memory_initialization_radix=16;
memory_initialization_vector=
4D546864,
00000006,
00000001,
01004D54,
726B0000,
0AD000B0,
077600B1,
075E00B0,
0B7F00FF,
03154170,
68617369,
61207068,
72617365,
2036342D,
31323800,
C00000B0,
077600B0,
0B7F00C1,
5000B107,
5E00B10B,
2000FF51,
0307270E,
00FF5804,
04021808,
00FF5902,
FD000090,
50450091,
447A0091,
4B7A0091,
527A7490,
50000091,
44000091,
4B000091,
52000C90,
524E0091,
44690091,
52697490,
52000091,
44000091,
52000C90,
56520091,
44510091,
4B517490,
56000091,
44000091,
4B000C90,
574E0091,
44630091,
4B637490,
57000091,
44000091,
4B000C90,
5E590091,
447C0091,
4B7C0091,
527C7491,
44000091,
4B000091,
52000C91,
446A0091,
526A7491,
44000091,
52000C91,
44520091,
4B527491,
44000091,
4B000C91,
44690091,
4D694E90,
5E003290,
523A0091,
46680091,
4A680091,
4D687490,
52000091,
46000091,
4A000091,
4D000B91,
44000091,
4D000190,
564E0091,
46610091,
4B617490,
56000091,
46000091,
4B000C90,
574F0091,
46690091,
4D697490,
57000091,
46000091,
4D000C90,
594E0091,
46640091,
4D647490,
59000091,
46000091,
4D000C90,
5E540091,
46690091,
4A690091,
4D697491,
46000091,
4A000091,
4D000C91,
46670091,
4D677491,
46000091,
4D000C91,
46590091,
48597491,
46000091,
48000C91,
466C0091,
4B6C4E90,
5E002691,
46000091,
4B000C90,
54400091,
48760091,
4B760091,
4F767490,
54000091,
48000091,
4B000091,
4F000C90,
564B0091,
48577490,
56000091,
48000C90,
574C0091,
486A0091,
4B6A7490,
57000091,
48000091,
4B000C90,
594E0091,
48660091,
4B667490,
59000091,
48000091,
4B000C90,
5E530091,
486A0091,
4B6A7491,
48000091,
4B000C91,
48640091,
4B647491,
48000091,
4B000C91,
48670091,
4B677491,
48000091,
4B000C91,
48650091,
4B654E90,
5E002691,
48000091,
4B000C90,
543D0091,
465C7490,
54000091,
46000C90,
564B0091,
46700091,
4B707490,
56000091,
46000091,
4B000C90,
574D0091,
466C0091,
4D6C7490,
57000091,
46000091,
4D000C90,
59500091,
46610091,
4B617490,
59000091,
46000091,
4B000C90,
5E560091,
46710091,
4F717490,
5E000091,
46000091,
4F000C90,
5C470091,
465B0091,
4B5B7490,
5C000091,
46000091,
4B000C90,
5B440091,
4D6A7490,
5B000091,
4D000C90,
59460091,
4B5E7490,
590000FF,
5902FD00,
00914B00,
00FF5902,
FD000CB1,
0B3A0090,
503D0091,
44780091,
4B780091,
52787490,
50000091,
44000091,
4B000091,
52000C90,
524B0091,
446B0091,
526B7490,
52000091,
44000091,
52000C90,
56530091,
44510091,
4B517490,
56000091,
44000091,
4B000C90,
574E0091,
44600091,
4B607490,
57000091,
44000091,
4B000C90,
5E560091,
447D0091,
4B7D0091,
527D7491,
44000091,
4B000091,
52000C91,
44690091,
52697491,
44000091,
52000C91,
44540091,
4B547491,
44000091,
4B000C91,
44680091,
4D684E90,
5E003290,
523A0091,
466A0091,
4A6A0091,
4D6A7490,
52000091,
46000091,
4A000091,
4D000B91,
44000091,
4D000190,
564E0091,
465D0091,
4B5D7490,
56000091,
46000091,
4B000C90,
574D0091,
466B0091,
4D6B7490,
57000091,
46000091,
4D000C90,
594F0091,
46640091,
4D647490,
59000091,
46000091,
4D000C90,
5E540091,
46690091,
4A690091,
4D697491,
46000091,
4A000091,
4D000C91,
46660091,
4D667491,
46000091,
4D000C91,
46590091,
48597491,
46000091,
48000C91,
466C0091,
4B6C4E90,
5E002691,
46000091,
4B000C90,
54400091,
48760091,
4B760091,
4F767490,
54000091,
48000091,
4B000091,
4F000C90,
564E0091,
48547490,
56000091,
48000C90,
574F0091,
486D0091,
4B6D7490,
57000091,
48000091,
4B000C90,
59510091,
48670091,
4B677490,
59000091,
48000091,
4B000C90,
5E540091,
486B0091,
4B6B7491,
48000091,
4B000C91,
48650091,
4B657491,
48000091,
4B000C91,
48650091,
4B65814E,
905E0032,
90525000,
905E5074,
90520000,
905E000C,
902B3D00,
90563D74,
902B0000,
9056000C,
902D4D00,
90574D74,
902D0000,
9057000C,
90525700,
905E5781,
74905200,
00905E00,
0C902B3D,
0090563D,
74902B00,
00905600,
0C902D4C,
0090574C,
74902D00,
00905700,
0C905259,
00905E59,
4E914800,
00914B00,
00FF5902,
FD002690,
52000090,
5E0000FF,
5902FD00,
0CB10B58,
00FF0601,
66009052,
6E00905E,
6E009138,
56009144,
56816790,
52000090,
5E000091,
38000091,
44001990,
52650090,
5E650091,
44760091,
48760091,
4B768167,
90520000,
905E0000,
91440000,
91480000,
914B0019,
90526500,
905E6500,
91385300,
91445381,
67905200,
00905E00,
00913800,
00914400,
19904B58,
00905758,
00914478,
00914878,
00914B78,
74904B00,
00905700,
0C904D68,
00905968,
67914400,
00914800,
00914B00,
19913A5B,
0091465B,
74904D00,
00905900,
0C904D65,
00905965,
67913A00,
00914600,
0D904D00,
00905900,
0C904D67,
00905967,
00914677,
00914A77,
00914D77,
74904D00,
00905900,
0C904D65,
00905965,
67914600,
00914A00,
00914D00,
0D904D00,
00905900,
0C904D6A,
0090596A,
00913A54,
00914654,
74904D00,
00905900,
0C904D67,
00905967,
67913A00,
00914600,
0D904D00,
00905900,
0C904858,
00905458,
00914676,
00914A76,
00914D76,
74904800,
00905400,
0C904B6D,
0090576D,
67914600,
00914A00,
00914D00,
0D904B00,
00905700,
0C90527B,
00905E7B,
00913C5D,
0091485D,
81679052,
0000905E,
0000913C,
00009148,
00199052,
6800905E,
68009148,
7500914B,
7500914F,
75816790,
52000090,
5E000091,
48000091,
4B000091,
4F001990,
52670090,
5E670091,
3C560091,
48568167,
90520000,
905E0000,
913C0000,
91480019,
904B5700,
90575700,
91487600,
914B7600,
914F7674,
904B0000,
9057000C,
904D6700,
90596767,
91480000,
914B0000,
914F0019,
913A5600,
91465674,
904D0000,
9059000C,
904D6800,
90596867,
913A0000,
9146000D,
904D0000,
9059000C,
904D6500,
90596500,
91467200,
914A7200,
914D7274,
904D0000,
9059000C,
904D6800,
90596867,
91460000,
914A0000,
914D000D,
904D0000,
9059000C,
904D6800,
90596800,
913A5500,
91465574,
904D0000,
9059000C,
904F6E00,
905B6E67,
913A0000,
9146000D,
904F0000,
905B000C,
904F6400,
905B6400,
91467500,
914A7500,
914D7574,
904F0000,
905B000C,
904F6500,
905B6567,
91460000,
914A0000,
914D0000,
FF5902FD,
000D904F,
0000905B,
0000FF59,
02FD000C,
B10B7000,
90527100,
905E7100,
91385500,
91445581,
67905200,
00905E00,
00913800,
00914400,
19905267,
00905E67,
00914476,
00914876,
00914B76,
81679052,
0000905E,
00009144,
00009148,
0000914B,
00199052,
6600905E,
66009138,
56009144,
56816790,
52000090,
5E000091,
38000091,
44001990,
4B550090,
57550091,
44760091,
48760091,
4B767490,
4B000090,
57000C90,
4D680090,
59686791,
44000091,
48000091,
4B001991,
3A5D0091,
465D7490,
4D000090,
59000C90,
4D660090,
59666791,
3A000091,
46000D90,
4D000090,
59000C90,
4D660090,
59660091,
46760091,
4A760091,
4D767490,
4D000090,
59000C90,
4D670090,
59676791,
46000091,
4A000091,
4D000D90,
4D000090,
59000C90,
4D690090,
59690091,
3A550091,
46557490,
4D000090,
59000C90,
4D660090,
59666791,
3A000091,
46000D90,
4D000090,
59000C90,
48590090,
54590091,
46750091,
4A750091,
4D757490,
48000090,
54000C90,
4B6C0090,
576C6791,
46000091,
4A000091,
4D000D90,
4B000090,
57000C90,
527E0090,
5E7E0091,
3C5B0091,
485B8167,
90520000,
905E0000,
913C0000,
91480019,
90526900,
905E6900,
91487700,
914B7700,
914F7781,
67905200,
00905E00,
00914800,
00914B00,
00914F00,
19905266,
00905E66,
00913C55,
00914855,
81679052,
0000905E,
0000913C,
00009148,
0019904D,
5A009059,
5A009148,
7600914B,
7600914F,
7674904D,
00009059,
000C904B,
5D009057,
5D679148,
0000914B,
0000914F,
0018904B,
00009057,
0001904B,
4C00913A,
55009146,
557F904B,
0001904B,
6374904B,
000C904B,
6474904B,
000C904A,
6074904A,
000C904A,
6574904A,
000C904B,
6A816790,
4B006791,
3A000091,
460000FF,
2F000000;
