memory_initialization_radix=16;
memory_initialization_vector=
4D546864,
00000006,
00000001,
01004D54,
726B0000,
0B0500FF,
030F4170,
68617369,
61203532,
732D3832,
7300FF51,
0307270E,
00FF5804,
04021808,
00B05B3C,
00B00A3D,
00B00000,
00B02000,
00C00000,
FF5902FD,
0000B15B,
3C00B10A,
3D00B100,
0000B120,
0000C100,
05904F00,
00905B00,
0C904F5F,
00905B5F,
0091466F,
00914A6F,
00914D6F,
74904F00,
00905B00,
0C904F60,
00905B60,
67914600,
00914A00,
00914D00,
00FF5902,
FD000D90,
4F000090,
5B0000FF,
5902FD00,
0C90526C,
00905E6C,
00913851,
00914451,
81679052,
0000905E,
00009138,
00009144,
00199052,
6200905E,
62009144,
70009148,
7000914B,
70816790,
52000090,
5E000091,
44000091,
48000091,
4B001990,
52610090,
5E610091,
38520091,
44528167,
90520000,
905E0000,
91380000,
91440019,
904B5100,
90575100,
91447000,
91487000,
914B7074,
904B0000,
9057000C,
904D6300,
90596367,
91440000,
91480000,
914B0019,
913A5900,
91465974,
904D0000,
9059000C,
904D6100,
90596167,
913A0000,
9146000D,
904D0000,
9059000C,
904D6100,
90596100,
91467000,
914A7000,
914D7074,
904D0000,
9059000C,
904D6200,
90596267,
91460000,
914A0000,
914D000D,
904D0000,
9059000C,
904D6400,
90596400,
913A5100,
91465174,
904D0000,
9059000C,
904D6100,
90596167,
913A0000,
9146000D,
904D0000,
9059000C,
90485500,
90545500,
91466F00,
914A6F00,
914D6F74,
90480000,
9054000C,
904B6700,
90576767,
91460000,
914A0000,
914D000D,
904B0000,
9057000C,
90527800,
905E7800,
913C5700,
91485781,
67905200,
00905E00,
00913C00,
00914800,
19905264,
00905E64,
00914871,
00914B71,
00914F71,
81679052,
0000905E,
00009148,
0000914B,
0000914F,
00199052,
6100905E,
6100913C,
51009148,
51816790,
52000090,
5E000091,
3C000091,
48001990,
4D560090,
59560091,
48700091,
4B700091,
4F707490,
4D000090,
59000C90,
4B590090,
57596791,
48000091,
4B000091,
4F001890,
4B000090,
57000190,
4B480091,
3A510091,
46517F90,
4B000190,
4B5E7490,
4B000C90,
4B5F7490,
4B000C90,
4A5B7490,
4A000C90,
4A607490,
4A000C90,
4B658167,
904B0067,
913A0000,
91460032,
903F5C00,
904B5C00,
FF06026D,
6600912C,
3E74912C,
000C912E,
5467903F,
0000904B,
000D912E,
000C903E,
5A00904A,
5A009132,
5D74903E,
0000904A,
00009132,
000C903F,
6200904B,
62009133,
59749133,
000C913A,
6567903F,
0000904B,
000D913A,
000C903A,
58009046,
5800912E,
3D74903A,
00009046,
0000912E,
000C9046,
77009052,
77009132,
59749046,
00009052,
00009132,
000C903E,
5200904A,
52009133,
5674903E,
0000904A,
0000FF59,
02FD0000,
91330000,
FF5902FD,
000C903F,
6800904B,
6800912E,
4C74912E,
000C9132,
5C67903F,
0000904B,
000D9132,
000C903E,
6000904A,
60009133,
5974903E,
0000904A,
00009133,
000C903F,
6500904B,
65009135,
5674903F,
0000904B,
00009135,
000C903A,
53009046,
5300913A,
6074913A,
000C9132,
4667903A,
00009046,
000D9132,
000C9046,
7A009052,
7A009133,
56749133,
000C9135,
56679046,
00009052,
000D9135,
000C903F,
5600904B,
56009130,
4C749130,
000C9132,
5667903F,
0000904B,
000D9132,
000C903E,
5E00904A,
5E009133,
5774903E,
0000904A,
00009133,
000C903F,
6200904B,
62009135,
5874903F,
0000904B,
00009135,
000C903A,
56009046,
5600913A,
6074913A,
000C9132,
4667903A,
00009046,
000D9132,
000C9046,
7C009052,
7C009133,
53749046,
00009052,
00009133,
000C903F,
5200904B,
52009135,
57749135,
00810090,
3F000090,
4B000C90,
4B637490,
4B000CFF,
06016600,
904A7A00,
90567A74,
904A0000,
9056000C,
904B6B00,
90576B74,
904B0000,
9057000C,
904A6200,
90566274,
904A0000,
9056000C,
904B6300,
90576374,
904B0000,
9057000C,
904A5B00,
90565B74,
904A0000,
9056000C,
904B6500,
90576574,
904B0000,
9057000C,
903F4900,
904B4900,
91335D00,
91385D74,
91330000,
9138000C,
912C3D67,
903F0000,
904B000D,
912C000C,
903E5B00,
904A5B00,
91336400,
91386474,
903E0000,
904A0000,
91330000,
9138000C,
903F6500,
904B6500,
912C3D74,
903F0000,
904B0000,
912C000C,
903A5400,
90465400,
91336A00,
91386A74,
91330000,
9138000C,
912C3F67,
903A0000,
9046000D,
912C000C,
90467D00,
90527D00,
91336800,
91386874,
90460000,
90520000,
91330000,
9138000C,
903E5300,
904A5300,
912C3D74,
903E0000,
904A0000,
912C000C,
903F6800,
904B6800,
91356900,
913A6974,
91350000,
913A000C,
912E3F67,
903F0000,
904B000D,
912E000C,
903E5F00,
904A5F00,
91356400,
913A6474,
903E0000,
904A0000,
91350000,
913A000C,
903F6400,
904B6400,
912E4074,
903F0000,
904B0000,
912E000C,
903A5300,
90465300,
91356B00,
913A6B74,
91350000,
913A000C,
912E4067,
903A0000,
9046000D,
912E000C,
90467E00,
90527E00,
91356600,
913A6674,
90460000,
90520000,
91350000,
913A000C,
903F5200,
904B5200,
912E3D74,
903F0000,
904B0000,
FF5902FD,
0000912E,
0000FF59,
02FD000C,
903F5F00,
904B5F00,
91376800,
913C6874,
91370000,
913C000C,
91304067,
903F0000,
904B000D,
9130000C,
903E5E00,
904A5E00,
91376700,
913C6774,
903E0000,
904A0000,
91370000,
913C000C,
903F6300,
904B6300,
91304074,
903F0000,
904B0000,
9130000C,
903A5400,
90465400,
91376800,
913C6874,
91370000,
913C000C,
91304167,
903A0000,
9046000D,
9130000C,
90467C00,
90527C00,
91376700,
913C6774,
90460000,
90520000,
91370000,
913C000C,
903F5500,
904B5500,
91303E74,
903F0000,
904B0000,
9130000C,
903C5800,
90485800,
91325B00,
91355B74,
903C0000,
90480000,
91320000,
9135000C,
903E6600,
904A6600,
912E4674,
903E0000,
904A0000,
912E000C,
903F6700,
904B6700,
91325E00,
91355E74,
903F0000,
904B0000,
91320000,
9135000C,
90416600,
904D6600,
912E4474,
90410000,
904D0000,
912E000C,
90467200,
90527200,
91326300,
91356374,
90460000,
90520000,
91320000,
9135000C,
90445B00,
90505B00,
912E4474,
90440000,
90500000,
912E000C,
90435D00,
904F5D00,
91325E00,
91355E74,
90430000,
904F0000,
91320000,
9135000C,
90415900,
904D5900,
912E4574,
90410000,
904D0000,
912E000C,
903F5D00,
904B5D00,
91336900,
91386974,
91330000,
9138000C,
912C3E67,
903F0000,
904B000D,
912C000C,
903E5F00,
904A5F00,
91336700,
91386774,
903E0000,
904A0000,
91330000,
9138000C,
903F6400,
904B6400,
912C4074,
903F0000,
904B0000,
912C000C,
903A5500,
90465500,
91336B00,
91386B74,
91330000,
9138000C,
912C3F67,
903A0000,
9046000D,
912C000C,
90467B00,
90527B00,
91336400,
91386474,
90460000,
90520000,
91330000,
9138000C,
903E5300,
904A5300,
912C4174,
903E0000,
904A0000,
912C000C,
903F6800,
904B6800,
91356A00,
913A6A74,
91350000,
913A000C,
912E3E67,
903F0000,
904B000D,
912E000C,
903E6100,
904A6100,
91356400,
913A6474,
903E0000,
904A0000,
91350000,
913A000C,
903F6200,
904B6200,
912E4074,
903F0000,
904B0000,
912E000C,
903A5400,
90465400,
91356A00,
913A6A74,
91350000,
913A000C,
912E3F67,
903A0000,
9046000D,
912E000C,
90467E00,
90527E00,
91356500,
913A6574,
90460000,
90520000,
91350000,
913A000C,
903F5300,
904B5300,
912E3E74,
903F0000,
904B0000,
912E000C,
903F6000,
904B6000,
91376900,
913C6974,
91370000,
913C000C,
91303F67,
903F0000,
904B000D,
9130000C,
903E5D00,
904A5D00,
91376800,
913C6874,
903E0000,
904A0000,
91370000,
913C000C,
903F6600,
904B6600,
91303F74,
903F0000,
904B0000,
9130000C,
903A5200,
90465200,
91376B00,
913C6B74,
91370000,
913C000C,
91303F67,
903A0000,
9046000D,
9130000C,
90467D00,
90527D00,
91376600,
913C6674,
90460000,
90520000,
91370000,
913C000C,
903E5100,
904A5100,
91303D74,
903E0000,
904A0000,
FF5902FD,
00009130,
0000FF59,
02FD000C,
90487900,
90547974,
90480000,
9054000C,
904A6A00,
90566A74,
904A0000,
9056000C,
904B6600,
90576674,
904B0000,
9057000C,
904D6800,
90596874,
904D0000,
9059000C,
90527200,
905E7274,
90520000,
905E000C,
90505D00,
905C5D00,
FF2F0000;
