memory_initialization_radix=16;
memory_initialization_vector=
4D546864,
00000006,
00000001,
01E04D54,
726B0000,
014300FF,
03114361,
6E6F6E20,
6D61696E,
206D656C,
6F647900,
FF510309,
896800FF,
58040402,
180800C0,
00009042,
76836080,
42000090,
40768360,
80400000,
903E7683,
60803E00,
00903D76,
8360803D,
0000903B,
76836080,
3B000090,
39768360,
80390000,
903B7683,
60803B00,
00903D76,
8360803D,
0000903E,
78836080,
3E000090,
42788360,
80420000,
90457883,
60804500,
00904378,
83608043,
00009042,
78836080,
42000090,
40788360,
80400000,
90427883,
60804200,
00903E78,
8360803E,
00009045,
78836080,
45000090,
47788360,
80470000,
90497883,
60804900,
00904A78,
8360804A,
00009049,
78836080,
49000090,
47788360,
80470000,
90457883,
60804500,
00904378,
83608043,
00009042,
76836080,
42000090,
40768360,
80400000,
903E7683,
60803E00,
00903976,
83608039,
0000903B,
76836080,
3B000090,
3D768360,
803D0000,
903E7683,
60803E00,
8360FF2F,
00000000;
