memory_initialization_radix=16;
memory_initialization_vector=
4D546864,
00000006,
00000001,
01E04D54,
726B0000,
02CE00FF,
03114661,
64656420,
6D61696E,
206D656C,
6F647900,
FF51030A,
2C2A00FF,
58040402,
180800C0,
00009041,
7C836080,
41000090,
417C8360,
80410000,
903F7C83,
60803F00,
0090417C,
83608041,
00009044,
7C836080,
44000090,
447C8360,
80440000,
90437C83,
60804300,
0090447C,
83608044,
00009041,
7C836080,
41000090,
417C8360,
80410000,
903F7C83,
60803F00,
0090417C,
83608041,
00009048,
7C836080,
48000090,
487C8360,
80480000,
90467C83,
60804600,
0090487C,
83608048,
00009041,
7C836080,
41000090,
417C8360,
80410000,
903F7C83,
60803F00,
0090417C,
83608041,
00009044,
7C836080,
44000090,
447C8360,
80440000,
90437C83,
60804300,
0090447C,
83608044,
00009041,
7C836080,
41000090,
417C8360,
80410000,
903F7C83,
60803F00,
0090417C,
83608041,
00009048,
7C836080,
48000090,
487C8360,
80480000,
90467C83,
60804600,
0090487C,
83608048,
00009041,
7A836080,
41000090,
3F7A8360,
803F0000,
903C7A83,
60803C00,
00903A7A,
8360803A,
00009038,
7A836080,
38000090,
377A8360,
80370000,
90387A83,
60803800,
00903A7A,
8360803A,
0000903C,
7A8F0080,
3C000090,
3C7A8360,
803C0000,
903A7A83,
60803A00,
0090387A,
83608038,
00009037,
7A836080,
37000090,
357A8360,
80350000,
90337A83,
60803300,
0090357A,
83608035,
00009037,
7A836080,
37000090,
387A8F00,
80380000,
90417A83,
60804100,
00903F7A,
8360803F,
0000903C,
7A836080,
3C000090,
3A7A8360,
803A0000,
90387A83,
60803800,
0090377A,
83608037,
00009038,
7A836080,
38000090,
3A7A8360,
803A0000,
903C7A8F,
00803C00,
0090417A,
83608041,
0000903F,
7A836080,
3F000090,
3C7A8360,
803C0000,
903A7A83,
60803A00,
0090387A,
83608038,
00009037,
7A836080,
37000090,
387A8360,
80380000,
903A7A83,
60803A00,
00903C7A,
8360803C,
0000903A,
7A836080,
3A000090,
387A8360,
80380000,
90377A83,
60803700,
0090357A,
83608035,
00009033,
7A836080,
33000090,
357A8360,
80350000,
90357A92,
60803500,
00FF2F00;
