memory_initialization_radix=16;
memory_initialization_vector=
4D546864,
00000006,
00000001,
01E04D54,
726B0000,
008C00FF,
03215653,
31303033,
42204320,
6D616A6F,
72207069,
74636820,
63616C69,
62726174,
696F6E00,
FF51030C,
B73500FF,
58040402,
180800C0,
0000903B,
76836080,
3B002690,
3D768360,
803D0026,
903F7683,
60803F00,
26904076,
83608040,
00269042,
76836080,
42002690,
44768360,
80440026,
90467683,
60804600,
26904776,
83608047,
00269047,
76874080,
470000FF,
2F000000;
