/* Auto-generated compact MIDI assets for VS1003B MicroBlaze playback. */
#ifndef VS1003B_MIDI_ASSETS_H
#define VS1003B_MIDI_ASSETS_H

#include "xil_types.h"

#define VS1003B_CANON_MIDI_LEN 1008U
#define VS1003B_CANON_MIDI_SOURCE "Canon_main_melody_bar72_92_36bpm_balanced"
static const u8 Vs1003bCanonMidi[VS1003B_CANON_MIDI_LEN] = {
    0x4D, 0x54, 0x68, 0x64, 0x00, 0x00, 0x00, 0x06, 0x00, 0x00, 0x00, 0x01,
    0x01, 0xE0, 0x4D, 0x54, 0x72, 0x6B, 0x00, 0x00, 0x03, 0xDA, 0x00, 0xB0,
    0x07, 0x7C, 0x00, 0xB0, 0x0B, 0x7F, 0x00, 0xFF, 0x03, 0x11, 0x43, 0x61,
    0x6E, 0x6F, 0x6E, 0x20, 0x6D, 0x61, 0x69, 0x6E, 0x20, 0x6D, 0x65, 0x6C,
    0x6F, 0x64, 0x79, 0x00, 0xFF, 0x51, 0x03, 0x19, 0x6E, 0x6A, 0x00, 0xFF,
    0x58, 0x04, 0x04, 0x02, 0x18, 0x08, 0x00, 0xC0, 0x00, 0x00, 0x90, 0x50,
    0x78, 0x78, 0x80, 0x50, 0x00, 0x00, 0x90, 0x4D, 0x78, 0x3C, 0x80, 0x4D,
    0x00, 0x00, 0x90, 0x4E, 0x78, 0x3C, 0x80, 0x4E, 0x00, 0x00, 0x90, 0x50,
    0x78, 0x78, 0x80, 0x50, 0x00, 0x00, 0x90, 0x4D, 0x78, 0x3C, 0x80, 0x4D,
    0x00, 0x00, 0x90, 0x4E, 0x78, 0x3C, 0x80, 0x4E, 0x00, 0x00, 0x90, 0x50,
    0x78, 0x3C, 0x80, 0x50, 0x00, 0x00, 0x90, 0x44, 0x78, 0x3C, 0x80, 0x44,
    0x00, 0x00, 0x90, 0x46, 0x78, 0x3C, 0x80, 0x46, 0x00, 0x00, 0x90, 0x48,
    0x78, 0x3C, 0x80, 0x48, 0x00, 0x00, 0x90, 0x49, 0x78, 0x3C, 0x80, 0x49,
    0x00, 0x00, 0x90, 0x4B, 0x78, 0x3C, 0x80, 0x4B, 0x00, 0x00, 0x90, 0x4D,
    0x78, 0x3C, 0x80, 0x4D, 0x00, 0x00, 0x90, 0x4E, 0x78, 0x3C, 0x80, 0x4E,
    0x00, 0x00, 0x90, 0x4D, 0x78, 0x78, 0x80, 0x4D, 0x00, 0x00, 0x90, 0x49,
    0x78, 0x3C, 0x80, 0x49, 0x00, 0x00, 0x90, 0x4B, 0x78, 0x3C, 0x80, 0x4B,
    0x00, 0x00, 0x90, 0x4D, 0x78, 0x78, 0x80, 0x4D, 0x00, 0x00, 0x90, 0x41,
    0x78, 0x3C, 0x80, 0x41, 0x00, 0x00, 0x90, 0x42, 0x78, 0x3C, 0x80, 0x42,
    0x00, 0x00, 0x90, 0x44, 0x78, 0x3C, 0x80, 0x44, 0x00, 0x00, 0x90, 0x46,
    0x78, 0x3C, 0x80, 0x46, 0x00, 0x00, 0x90, 0x44, 0x78, 0x3C, 0x80, 0x44,
    0x00, 0x00, 0x90, 0x42, 0x78, 0x3C, 0x80, 0x42, 0x00, 0x00, 0x90, 0x44,
    0x78, 0x3C, 0x80, 0x44, 0x00, 0x00, 0x90, 0x41, 0x78, 0x3C, 0x80, 0x41,
    0x00, 0x00, 0x90, 0x42, 0x78, 0x3C, 0x80, 0x42, 0x00, 0x00, 0x90, 0x44,
    0x78, 0x3C, 0x80, 0x44, 0x00, 0x00, 0x90, 0x42, 0x78, 0x78, 0x80, 0x42,
    0x00, 0x00, 0x90, 0x46, 0x78, 0x3C, 0x80, 0x46, 0x00, 0x00, 0x90, 0x44,
    0x78, 0x3C, 0x80, 0x44, 0x00, 0x00, 0x90, 0x42, 0x78, 0x78, 0x80, 0x42,
    0x00, 0x00, 0x90, 0x41, 0x78, 0x3C, 0x80, 0x41, 0x00, 0x00, 0x90, 0x3F,
    0x78, 0x3C, 0x80, 0x3F, 0x00, 0x00, 0x90, 0x41, 0x78, 0x3C, 0x80, 0x41,
    0x00, 0x00, 0x90, 0x3F, 0x78, 0x3C, 0x80, 0x3F, 0x00, 0x00, 0x90, 0x3D,
    0x78, 0x3C, 0x80, 0x3D, 0x00, 0x00, 0x90, 0x3F, 0x78, 0x3C, 0x80, 0x3F,
    0x00, 0x00, 0x90, 0x41, 0x78, 0x3C, 0x80, 0x41, 0x00, 0x00, 0x90, 0x42,
    0x78, 0x3C, 0x80, 0x42, 0x00, 0x00, 0x90, 0x44, 0x78, 0x3C, 0x80, 0x44,
    0x00, 0x00, 0x90, 0x46, 0x78, 0x3C, 0x80, 0x46, 0x00, 0x00, 0x90, 0x42,
    0x78, 0x78, 0x80, 0x42, 0x00, 0x00, 0x90, 0x46, 0x78, 0x3C, 0x80, 0x46,
    0x00, 0x00, 0x90, 0x44, 0x78, 0x3C, 0x80, 0x44, 0x00, 0x00, 0x90, 0x46,
    0x78, 0x78, 0x80, 0x46, 0x00, 0x00, 0x90, 0x48, 0x78, 0x3C, 0x80, 0x48,
    0x00, 0x00, 0x90, 0x49, 0x78, 0x3C, 0x80, 0x49, 0x00, 0x00, 0x90, 0x44,
    0x78, 0x3C, 0x80, 0x44, 0x00, 0x00, 0x90, 0x46, 0x78, 0x3C, 0x80, 0x46,
    0x00, 0x00, 0x90, 0x48, 0x78, 0x3C, 0x80, 0x48, 0x00, 0x00, 0x90, 0x49,
    0x78, 0x3C, 0x80, 0x49, 0x00, 0x00, 0x90, 0x4B, 0x78, 0x3C, 0x80, 0x4B,
    0x00, 0x00, 0x90, 0x4D, 0x78, 0x3C, 0x80, 0x4D, 0x00, 0x00, 0x90, 0x4E,
    0x78, 0x3C, 0x80, 0x4E, 0x00, 0x00, 0x90, 0x50, 0x78, 0x3C, 0x80, 0x50,
    0x00, 0x00, 0x90, 0x4D, 0x78, 0x78, 0x80, 0x4D, 0x00, 0x00, 0x90, 0x49,
    0x78, 0x3C, 0x80, 0x49, 0x00, 0x00, 0x90, 0x4B, 0x78, 0x3C, 0x80, 0x4B,
    0x00, 0x00, 0x90, 0x4D, 0x78, 0x78, 0x80, 0x4D, 0x00, 0x00, 0x90, 0x4B,
    0x78, 0x3C, 0x80, 0x4B, 0x00, 0x00, 0x90, 0x49, 0x78, 0x3C, 0x80, 0x49,
    0x00, 0x00, 0x90, 0x4B, 0x78, 0x3C, 0x80, 0x4B, 0x00, 0x00, 0x90, 0x48,
    0x78, 0x3C, 0x80, 0x48, 0x00, 0x00, 0x90, 0x49, 0x78, 0x3C, 0x80, 0x49,
    0x00, 0x00, 0x90, 0x4B, 0x78, 0x3C, 0x80, 0x4B, 0x00, 0x00, 0x90, 0x4D,
    0x78, 0x3C, 0x80, 0x4D, 0x00, 0x00, 0x90, 0x4B, 0x78, 0x3C, 0x80, 0x4B,
    0x00, 0x00, 0x90, 0x49, 0x78, 0x3C, 0x80, 0x49, 0x00, 0x00, 0x90, 0x48,
    0x78, 0x3C, 0x80, 0x48, 0x00, 0x00, 0x90, 0x49, 0x78, 0x78, 0x80, 0x49,
    0x00, 0x00, 0x90, 0x46, 0x78, 0x3C, 0x80, 0x46, 0x00, 0x00, 0x90, 0x48,
    0x78, 0x3C, 0x80, 0x48, 0x00, 0x00, 0x90, 0x49, 0x78, 0x78, 0x80, 0x49,
    0x00, 0x00, 0x90, 0x3D, 0x78, 0x3C, 0x80, 0x3D, 0x00, 0x00, 0x90, 0x3F,
    0x78, 0x3C, 0x80, 0x3F, 0x00, 0x00, 0x90, 0x41, 0x78, 0x3C, 0x80, 0x41,
    0x00, 0x00, 0x90, 0x42, 0x78, 0x3C, 0x80, 0x42, 0x00, 0x00, 0x90, 0x41,
    0x78, 0x3C, 0x80, 0x41, 0x00, 0x00, 0x90, 0x3F, 0x78, 0x3C, 0x80, 0x3F,
    0x00, 0x00, 0x90, 0x41, 0x78, 0x3C, 0x80, 0x41, 0x00, 0x00, 0x90, 0x49,
    0x78, 0x3C, 0x80, 0x49, 0x00, 0x00, 0x90, 0x48, 0x78, 0x3C, 0x80, 0x48,
    0x00, 0x00, 0x90, 0x49, 0x78, 0x3C, 0x80, 0x49, 0x00, 0x00, 0x90, 0x46,
    0x78, 0x78, 0x80, 0x46, 0x00, 0x00, 0x90, 0x49, 0x78, 0x3C, 0x80, 0x49,
    0x00, 0x00, 0x90, 0x48, 0x78, 0x3C, 0x80, 0x48, 0x00, 0x00, 0x90, 0x46,
    0x78, 0x78, 0x80, 0x46, 0x00, 0x00, 0x90, 0x44, 0x78, 0x3C, 0x80, 0x44,
    0x00, 0x00, 0x90, 0x42, 0x78, 0x3C, 0x80, 0x42, 0x00, 0x00, 0x90, 0x44,
    0x78, 0x3C, 0x80, 0x44, 0x00, 0x00, 0x90, 0x42, 0x78, 0x3C, 0x80, 0x42,
    0x00, 0x00, 0x90, 0x41, 0x78, 0x3C, 0x80, 0x41, 0x00, 0x00, 0x90, 0x42,
    0x78, 0x3C, 0x80, 0x42, 0x00, 0x00, 0x90, 0x44, 0x78, 0x3C, 0x80, 0x44,
    0x00, 0x00, 0x90, 0x46, 0x78, 0x3C, 0x80, 0x46, 0x00, 0x00, 0x90, 0x48,
    0x78, 0x3C, 0x80, 0x48, 0x00, 0x00, 0x90, 0x49, 0x78, 0x3C, 0x80, 0x49,
    0x00, 0x00, 0x90, 0x46, 0x78, 0x78, 0x80, 0x46, 0x00, 0x00, 0x90, 0x49,
    0x78, 0x3C, 0x80, 0x49, 0x00, 0x00, 0x90, 0x48, 0x78, 0x3C, 0x80, 0x48,
    0x00, 0x00, 0x90, 0x49, 0x78, 0x78, 0x80, 0x49, 0x00, 0x00, 0x90, 0x48,
    0x78, 0x3C, 0x80, 0x48, 0x00, 0x00, 0x90, 0x46, 0x78, 0x3C, 0x80, 0x46,
    0x00, 0x00, 0x90, 0x48, 0x78, 0x3C, 0x80, 0x48, 0x00, 0x00, 0x90, 0x49,
    0x78, 0x3C, 0x80, 0x49, 0x00, 0x00, 0x90, 0x4B, 0x78, 0x3C, 0x80, 0x4B,
    0x00, 0x00, 0x90, 0x49, 0x78, 0x3C, 0x80, 0x49, 0x00, 0x00, 0x90, 0x48,
    0x78, 0x3C, 0x80, 0x48, 0x00, 0x00, 0x90, 0x49, 0x78, 0x3C, 0x80, 0x49,
    0x00, 0x00, 0x90, 0x46, 0x78, 0x3C, 0x80, 0x46, 0x00, 0x00, 0x90, 0x48,
    0x78, 0x3C, 0x80, 0x48, 0x00, 0x00, 0x90, 0x49, 0x78, 0x81, 0x70, 0x80,
    0x49, 0x00, 0x81, 0x70, 0x90, 0x48, 0x78, 0x81, 0x70, 0x80, 0x48, 0x00,
    0x81, 0x70, 0x90, 0x46, 0x78, 0x81, 0x70, 0x80, 0x46, 0x00, 0x81, 0x70,
    0x90, 0x49, 0x78, 0x81, 0x70, 0x80, 0x49, 0x00, 0x00, 0xFF, 0x2F, 0x00
};

#define VS1003B_FADED_MIDI_LEN 13585U
#define VS1003B_FADED_MIDI_SOURCE "Faded_perfect_bar72_168_balanced_type0"
static const u8 Vs1003bFadedMidi[VS1003B_FADED_MIDI_LEN] = {
    0x4D, 0x54, 0x68, 0x64, 0x00, 0x00, 0x00, 0x06, 0x00, 0x00, 0x00, 0x01,
    0x01, 0xE0, 0x4D, 0x54, 0x72, 0x6B, 0x00, 0x00, 0x34, 0xFB, 0x00, 0xB0,
    0x07, 0x4C, 0x00, 0xB1, 0x07, 0x42, 0x00, 0xB2, 0x07, 0x40, 0x00, 0xB9,
    0x07, 0x30, 0x00, 0xBB, 0x07, 0x48, 0x00, 0xBC, 0x07, 0x48, 0x00, 0xBD,
    0x07, 0x3E, 0x00, 0xBE, 0x07, 0x3E, 0x00, 0xFF, 0x03, 0x0E, 0x46, 0x61,
    0x64, 0x65, 0x64, 0x20, 0x34, 0x38, 0x73, 0x2D, 0x31, 0x31, 0x32, 0x73,
    0x00, 0xFF, 0x51, 0x03, 0x0A, 0x2C, 0x2B, 0x00, 0xFF, 0x58, 0x04, 0x04,
    0x02, 0x18, 0x08, 0x00, 0xC0, 0x00, 0x00, 0xB0, 0x0A, 0x40, 0x00, 0xB0,
    0x5D, 0x00, 0x00, 0xB0, 0x07, 0x4C, 0x00, 0xB0, 0x5B, 0x00, 0x00, 0x90,
    0x52, 0x4C, 0x00, 0x90, 0x46, 0x4C, 0x00, 0xC1, 0x50, 0x00, 0xB1, 0x0A,
    0x40, 0x00, 0xB1, 0x5D, 0x00, 0x00, 0xB1, 0x07, 0x42, 0x00, 0xB1, 0x5B,
    0x00, 0x00, 0xC2, 0x57, 0x00, 0xB2, 0x0A, 0x40, 0x00, 0xB2, 0x5D, 0x00,
    0x00, 0xB2, 0x07, 0x40, 0x00, 0xB2, 0x5B, 0x00, 0x00, 0x92, 0x52, 0x60,
    0x00, 0xCB, 0x34, 0x00, 0xBB, 0x0A, 0x40, 0x00, 0xBB, 0x5D, 0x00, 0x00,
    0xBB, 0x07, 0x48, 0x00, 0xBB, 0x5B, 0x00, 0x00, 0xCC, 0x00, 0x00, 0xBC,
    0x0A, 0x40, 0x00, 0xBC, 0x5D, 0x00, 0x00, 0xBC, 0x07, 0x48, 0x00, 0xBC,
    0x5B, 0x00, 0x00, 0x9C, 0x2A, 0x5B, 0x00, 0xBC, 0x40, 0x7F, 0x00, 0xBC,
    0x40, 0x00, 0x00, 0xCD, 0x21, 0x00, 0xBD, 0x0A, 0x40, 0x00, 0xBD, 0x5D,
    0x00, 0x00, 0xBD, 0x07, 0x3E, 0x00, 0xBD, 0x5B, 0x00, 0x00, 0x9D, 0x1E,
    0x5B, 0x00, 0xB9, 0x00, 0x78, 0x00, 0xB9, 0x20, 0x00, 0x00, 0xC9, 0x10,
    0x00, 0xB9, 0x0A, 0x40, 0x00, 0xB9, 0x5D, 0x00, 0x00, 0xB9, 0x07, 0x30,
    0x00, 0xB9, 0x5B, 0x00, 0x00, 0x99, 0x26, 0x60, 0x00, 0x99, 0x38, 0x60,
    0x00, 0xCE, 0x27, 0x00, 0xBE, 0x0A, 0x40, 0x00, 0xBE, 0x5D, 0x00, 0x00,
    0xBE, 0x07, 0x3E, 0x00, 0xBE, 0x5B, 0x00, 0x00, 0x9E, 0x1E, 0x5F, 0x81,
    0x63, 0x8C, 0x2A, 0x40, 0x0C, 0x82, 0x52, 0x40, 0x01, 0x9C, 0x31, 0x5B,
    0x81, 0x63, 0x8C, 0x31, 0x40, 0x0C, 0x92, 0x52, 0x60, 0x00, 0x9C, 0x36,
    0x5B, 0x00, 0x89, 0x26, 0x40, 0x00, 0x89, 0x38, 0x40, 0x00, 0x99, 0x38,
    0x60, 0x00, 0x8E, 0x1E, 0x40, 0x81, 0x64, 0x8C, 0x36, 0x40, 0x0C, 0x82,
    0x52, 0x40, 0x01, 0x9C, 0x31, 0x5B, 0x00, 0x9E, 0x1E, 0x5F, 0x81, 0x63,
    0x8C, 0x31, 0x40, 0x0C, 0x92, 0x52, 0x60, 0x00, 0x9C, 0x3A, 0x5B, 0x00,
    0x89, 0x38, 0x40, 0x00, 0x99, 0x26, 0x60, 0x00, 0x99, 0x38, 0x60, 0x00,
    0x8E, 0x1E, 0x40, 0x81, 0x64, 0x8C, 0x3A, 0x40, 0x0C, 0x81, 0x46, 0x40,
    0x00, 0x82, 0x52, 0x40, 0x01, 0x91, 0x42, 0x4E, 0x00, 0x9C, 0x31, 0x5B,
    0x00, 0x9E, 0x1E, 0x5F, 0x81, 0x27, 0x80, 0x52, 0x40, 0x00, 0x80, 0x46,
    0x40, 0x3C, 0x8C, 0x31, 0x40, 0x0C, 0x90, 0x52, 0x4C, 0x00, 0x90, 0x46,
    0x4C, 0x00, 0x81, 0x42, 0x40, 0x00, 0x91, 0x42, 0x61, 0x00, 0x92, 0x52,
    0x60, 0x00, 0x9C, 0x36, 0x5B, 0x00, 0x8D, 0x1E, 0x40, 0x00, 0x9D, 0x1E,
    0x5B, 0x00, 0x89, 0x26, 0x40, 0x00, 0x89, 0x38, 0x40, 0x00, 0x99, 0x26,
    0x60, 0x00, 0x99, 0x38, 0x60, 0x00, 0x8E, 0x1E, 0x40, 0x81, 0x63, 0x8C,
    0x36, 0x40, 0x0D, 0x81, 0x42, 0x40, 0x00, 0x82, 0x52, 0x40, 0x01, 0x91,
    0x42, 0x4E, 0x00, 0x9C, 0x31, 0x5B, 0x00, 0x9E, 0x1E, 0x5F, 0x76, 0x81,
    0x42, 0x40, 0x02, 0x91, 0x44, 0x54, 0x5F, 0x80, 0x52, 0x40, 0x00, 0x80,
    0x46, 0x40, 0x0C, 0x8C, 0x31, 0x40, 0x0C, 0x90, 0x4D, 0x60, 0x00, 0x90,
    0x41, 0x60, 0x00, 0x81, 0x44, 0x40, 0x00, 0x91, 0x41, 0x60, 0x00, 0x92,
    0x4D, 0x60, 0x00, 0x92, 0x59, 0x60, 0x00, 0x9C, 0x25, 0x60, 0x00, 0x8D,
    0x1E, 0x40, 0x00, 0x89, 0x26, 0x40, 0x00, 0x89, 0x38, 0x40, 0x00, 0x99,
    0x26, 0x60, 0x00, 0x99, 0x38, 0x60, 0x00, 0x8E, 0x1E, 0x40, 0x00, 0x9E,
    0x25, 0x60, 0x81, 0x63, 0x8C, 0x25, 0x40, 0x0D, 0x81, 0x41, 0x40, 0x00,
    0x82, 0x4D, 0x40, 0x00, 0x82, 0x59, 0x40, 0x00, 0x89, 0x26, 0x40, 0x00,
    0x89, 0x38, 0x40, 0x00, 0x8E, 0x25, 0x40, 0x01, 0x91, 0x41, 0x60, 0x00,
    0x9C, 0x2C, 0x60, 0x00, 0x99, 0x38, 0x60, 0x00, 0x9E, 0x25, 0x60, 0x81,
    0x63, 0x8C, 0x2C, 0x40, 0x0C, 0x81, 0x41, 0x40, 0x00, 0x91, 0x41, 0x60,
    0x00, 0x92, 0x4D, 0x60, 0x00, 0x92, 0x59, 0x60, 0x00, 0x9C, 0x31, 0x60,
    0x00, 0x9C, 0x35, 0x60, 0x00, 0x89, 0x38, 0x40, 0x00, 0x99, 0x26, 0x60,
    0x00, 0x99, 0x38, 0x60, 0x00, 0x8E, 0x25, 0x40, 0x00, 0x9E, 0x25, 0x60,
    0x81, 0x63, 0x8C, 0x31, 0x40, 0x00, 0x8C, 0x35, 0x40, 0x0C, 0x81, 0x41,
    0x40, 0x00, 0x82, 0x4D, 0x40, 0x00, 0x82, 0x59, 0x40, 0x00, 0x89, 0x26,
    0x40, 0x00, 0x89, 0x38, 0x40, 0x00, 0x8E, 0x25, 0x40, 0x02, 0x91, 0x42,
    0x60, 0x00, 0x9C, 0x2C, 0x60, 0x00, 0x99, 0x38, 0x60, 0x00, 0x9E, 0x25,
    0x60, 0x81, 0x63, 0x8C, 0x2C, 0x40, 0x0C, 0x92, 0x4E, 0x60, 0x00, 0x92,
    0x5A, 0x60, 0x00, 0x9C, 0x25, 0x60, 0x00, 0x9C, 0x31, 0x60, 0x00, 0x89,
    0x38, 0x40, 0x00, 0x99, 0x26, 0x60, 0x00, 0x99, 0x38, 0x60, 0x00, 0x8E,
    0x25, 0x40, 0x00, 0x9E, 0x25, 0x60, 0x81, 0x6F, 0x81, 0x42, 0x40, 0x00,
    0x89, 0x26, 0x40, 0x00, 0x89, 0x38, 0x40, 0x00, 0x8E, 0x25, 0x40, 0x02,
    0x91, 0x44, 0x60, 0x00, 0x99, 0x26, 0x60, 0x00, 0x99, 0x38, 0x60, 0x00,
    0x9E, 0x25, 0x60, 0x81, 0x6F, 0x81, 0x44, 0x40, 0x00, 0x91, 0x49, 0x60,
    0x00, 0x82, 0x4E, 0x40, 0x00, 0x82, 0x5A, 0x40, 0x00, 0x8E, 0x25, 0x40,
    0x00, 0x9E, 0x25, 0x60, 0x81, 0x6F, 0x81, 0x49, 0x40, 0x00, 0x8E, 0x25,
    0x40, 0x02, 0x91, 0x41, 0x60, 0x00, 0x91, 0x4D, 0x60, 0x00, 0x9E, 0x25,
    0x60, 0x81, 0x0E, 0x80, 0x4D, 0x40, 0x00, 0x80, 0x41, 0x40, 0x31, 0x8C,
    0x25, 0x40, 0x00, 0x8C, 0x31, 0x40, 0x30, 0xFF, 0x58, 0x04, 0x02, 0x02,
    0x18, 0x08, 0x00, 0x81, 0x41, 0x40, 0x00, 0x81, 0x4D, 0x40, 0x00, 0x89,
    0x26, 0x40, 0x00, 0x89, 0x38, 0x40, 0x00, 0x99, 0x2A, 0x60, 0x00, 0x99,
    0x23, 0x60, 0x00, 0x8E, 0x25, 0x40, 0x81, 0x71, 0x91, 0x46, 0x60, 0x00,
    0x91, 0x52, 0x60, 0x81, 0x6F, 0x81, 0x46, 0x40, 0x00, 0x81, 0x52, 0x40,
    0x00, 0x89, 0x2A, 0x40, 0x00, 0x89, 0x23, 0x40, 0x01, 0x91, 0x46, 0x4A,
    0x00, 0x91, 0x52, 0x60, 0x00, 0x99, 0x26, 0x60, 0x77, 0x89, 0x26, 0x40,
    0x01, 0x99, 0x26, 0x60, 0x76, 0x81, 0x46, 0x40, 0x00, 0x81, 0x52, 0x40,
    0x00, 0x89, 0x26, 0x40, 0x02, 0x91, 0x46, 0x60, 0x00, 0x91, 0x52, 0x60,
    0x00, 0x99, 0x26, 0x60, 0x77, 0x89, 0x26, 0x40, 0x00, 0x99, 0x29, 0x60,
    0x3B, 0x89, 0x29, 0x40, 0x02, 0x99, 0x30, 0x60, 0x3B, 0x81, 0x46, 0x40,
    0x00, 0x81, 0x52, 0x40, 0x00, 0x89, 0x30, 0x40, 0x01, 0xFF, 0x58, 0x04,
    0x04, 0x02, 0x18, 0x08, 0x00, 0x90, 0x4E, 0x4C, 0x00, 0x90, 0x42, 0x4C,
    0x00, 0x91, 0x46, 0x48, 0x00, 0x91, 0x52, 0x60, 0x00, 0x92, 0x4E, 0x60,
    0x00, 0x92, 0x5A, 0x60, 0x00, 0x9B, 0x46, 0x4C, 0x00, 0x9B, 0x3F, 0x4C,
    0x00, 0x9B, 0x42, 0x4C, 0x00, 0x9C, 0x42, 0x4C, 0x00, 0x9C, 0x46, 0x4C,
    0x00, 0x9C, 0x4B, 0x4C, 0x00, 0x9C, 0x4E, 0x4C, 0x00, 0x9C, 0x27, 0x5B,
    0x00, 0x9C, 0x33, 0x5B, 0x00, 0x9D, 0x27, 0x5B, 0x00, 0x9D, 0x33, 0x5B,
    0x00, 0x99, 0x2A, 0x57, 0x00, 0x99, 0x31, 0x54, 0x00, 0x99, 0x23, 0x54,
    0x00, 0x9E, 0x27, 0x5F, 0x77, 0x82, 0x4E, 0x40, 0x00, 0x82, 0x5A, 0x40,
    0x6B, 0x8C, 0x27, 0x40, 0x00, 0x8C, 0x33, 0x40, 0x0C, 0x89, 0x2A, 0x40,
    0x00, 0x89, 0x31, 0x40, 0x00, 0x8E, 0x27, 0x40, 0x02, 0x92, 0x4E, 0x60,
    0x00, 0x92, 0x5A, 0x60, 0x00, 0x9C, 0x27, 0x5B, 0x00, 0x9C, 0x33, 0x5B,
    0x00, 0x99, 0x2A, 0x57, 0x00, 0x9E, 0x27, 0x5F, 0x77, 0x82, 0x4E, 0x40,
    0x00, 0x82, 0x5A, 0x40, 0x60, 0x80, 0x4E, 0x40, 0x00, 0x80, 0x42, 0x40,
    0x00, 0x8C, 0x42, 0x40, 0x00, 0x8C, 0x46, 0x40, 0x00, 0x8C, 0x4B, 0x40,
    0x00, 0x8C, 0x4E, 0x40, 0x0C, 0x8C, 0x27, 0x40, 0x00, 0x8C, 0x33, 0x40,
    0x0C, 0x8D, 0x27, 0x40, 0x00, 0x8D, 0x33, 0x40, 0x00, 0x89, 0x23, 0x40,
    0x00, 0x89, 0x2A, 0x40, 0x00, 0x8E, 0x27, 0x40, 0x01, 0x90, 0x4E, 0x4C,
    0x00, 0x90, 0x42, 0x4C, 0x00, 0x92, 0x4E, 0x60, 0x00, 0x92, 0x5A, 0x60,
    0x00, 0x9C, 0x42, 0x4C, 0x00, 0x9C, 0x46, 0x4C, 0x00, 0x9C, 0x4B, 0x4C,
    0x00, 0x9C, 0x4E, 0x4C, 0x00, 0x9C, 0x27, 0x5B, 0x00, 0x9C, 0x33, 0x5B,
    0x00, 0x9D, 0x27, 0x5B, 0x00, 0x9D, 0x33, 0x5B, 0x00, 0x99, 0x26, 0x59,
    0x00, 0x99, 0x2A, 0x58, 0x00, 0x99, 0x23, 0x57, 0x00, 0x9E, 0x27, 0x5F,
    0x77, 0x82, 0x4E, 0x40, 0x00, 0x82, 0x5A, 0x40, 0x6C, 0x8C, 0x27, 0x40,
    0x00, 0x8C, 0x33, 0x40, 0x0B, 0x89, 0x26, 0x40, 0x00, 0x89, 0x2A, 0x40,
    0x00, 0x8E, 0x27, 0x40, 0x02, 0x92, 0x4E, 0x60, 0x00, 0x92, 0x5A, 0x60,
    0x00, 0x9C, 0x27, 0x5B, 0x00, 0x9C, 0x33, 0x5B, 0x00, 0x99, 0x2A, 0x61,
    0x00, 0x9E, 0x27, 0x5F, 0x77, 0x82, 0x4E, 0x40, 0x00, 0x82, 0x5A, 0x40,
    0x60, 0x80, 0x4E, 0x40, 0x00, 0x80, 0x42, 0x40, 0x00, 0x8C, 0x42, 0x40,
    0x00, 0x8C, 0x46, 0x40, 0x00, 0x8C, 0x4B, 0x40, 0x00, 0x8C, 0x4E, 0x40,
    0x0C, 0x8C, 0x27, 0x40, 0x00, 0x8C, 0x33, 0x40, 0x0C, 0x8D, 0x27, 0x40,
    0x00, 0x8D, 0x33, 0x40, 0x00, 0x89, 0x23, 0x40, 0x00, 0x89, 0x2A, 0x40,
    0x00, 0x8E, 0x27, 0x40, 0x01, 0x90, 0x4E, 0x4C, 0x00, 0x90, 0x42, 0x4C,
    0x00, 0x92, 0x4E, 0x60, 0x00, 0x92, 0x5A, 0x60, 0x00, 0x9C, 0x42, 0x4C,
    0x00, 0x9C, 0x46, 0x4C, 0x00, 0x9C, 0x4B, 0x4C, 0x00, 0x9C, 0x4E, 0x4C,
    0x00, 0x9C, 0x27, 0x5B, 0x00, 0x9C, 0x33, 0x5B, 0x00, 0x9D, 0x27, 0x5B,
    0x00, 0x9D, 0x33, 0x5B, 0x00, 0x99, 0x2A, 0x57, 0x00, 0x99, 0x23, 0x5A,
    0x00, 0x9E, 0x27, 0x5F, 0x81, 0x33, 0x82, 0x4E, 0x40, 0x00, 0x82, 0x5A,
    0x40, 0x30, 0x8C, 0x27, 0x40, 0x00, 0x8C, 0x33, 0x40, 0x0B, 0x89, 0x2A,
    0x40, 0x00, 0x8E, 0x27, 0x40, 0x02, 0x9C, 0x27, 0x5B, 0x00, 0x9C, 0x33,
    0x5B, 0x00, 0x99, 0x2A, 0x61, 0x00, 0x9E, 0x27, 0x5F, 0x77, 0x92, 0x4E,
    0x60, 0x00, 0x92, 0x5A, 0x60, 0x3B, 0x82, 0x4E, 0x40, 0x00, 0x82, 0x5A,
    0x40, 0x25, 0x80, 0x4E, 0x40, 0x00, 0x80, 0x42, 0x40, 0x00, 0x8C, 0x42,
    0x40, 0x00, 0x8C, 0x46, 0x40, 0x00, 0x8C, 0x4B, 0x40, 0x00, 0x8C, 0x4E,
    0x40, 0x0C, 0x8C, 0x27, 0x40, 0x00, 0x8C, 0x33, 0x40, 0x0C, 0x8D, 0x27,
    0x40, 0x00, 0x8D, 0x33, 0x40, 0x00, 0x89, 0x23, 0x40, 0x00, 0x89, 0x2A,
    0x40, 0x00, 0x8E, 0x27, 0x40, 0x01, 0x90, 0x52, 0x4C, 0x00, 0x90, 0x46,
    0x4C, 0x00, 0x92, 0x52, 0x60, 0x00, 0x92, 0x5E, 0x60, 0x00, 0x9C, 0x42,
    0x4C, 0x00, 0x9C, 0x46, 0x4C, 0x00, 0x9C, 0x4B, 0x4C, 0x00, 0x9C, 0x4E,
    0x4C, 0x00, 0x9C, 0x27, 0x5B, 0x00, 0x9C, 0x33, 0x5B, 0x00, 0x9D, 0x27,
    0x5B, 0x00, 0x9D, 0x33, 0x5B, 0x00, 0x99, 0x26, 0x59, 0x00, 0x99, 0x2A,
    0x61, 0x00, 0x99, 0x23, 0x57, 0x00, 0x9E, 0x27, 0x5F, 0x58, 0x82, 0x52,
    0x40, 0x00, 0x82, 0x5E, 0x40, 0x5C, 0x92, 0x52, 0x60, 0x00, 0x92, 0x5E,
    0x60, 0x1D, 0x82, 0x52, 0x40, 0x00, 0x82, 0x5E, 0x40, 0x12, 0x8C, 0x27,
    0x40, 0x00, 0x8C, 0x33, 0x40, 0x0C, 0x81, 0x46, 0x40, 0x00, 0x81, 0x52,
    0x40, 0x00, 0x89, 0x26, 0x40, 0x00, 0x89, 0x2A, 0x40, 0x00, 0x8E, 0x27,
    0x40, 0x01, 0x91, 0x42, 0x50, 0x00, 0x91, 0x4E, 0x60, 0x00, 0x92, 0x52,
    0x60, 0x00, 0x92, 0x5E, 0x60, 0x00, 0x9C, 0x27, 0x60, 0x00, 0x9C, 0x33,
    0x60, 0x00, 0x99, 0x2A, 0x61, 0x00, 0x9E, 0x27, 0x5F, 0x3B, 0x82, 0x52,
    0x40, 0x00, 0x82, 0x5E, 0x40, 0x3C, 0x92, 0x52, 0x60, 0x00, 0x92, 0x5E,
    0x60, 0x3B, 0x82, 0x52, 0x40, 0x00, 0x82, 0x5E, 0x40, 0x25, 0x80, 0x52,
    0x40, 0x00, 0x80, 0x46, 0x40, 0x00, 0x8C, 0x42, 0x40, 0x00, 0x8C, 0x46,
    0x40, 0x00, 0x8C, 0x4B, 0x40, 0x00, 0x8C, 0x4E, 0x40, 0x0C, 0x8C, 0x27,
    0x40, 0x00, 0x8C, 0x33, 0x40, 0x0C, 0x81, 0x42, 0x40, 0x00, 0x81, 0x4E,
    0x40, 0x00, 0x8B, 0x46, 0x40, 0x00, 0x8D, 0x27, 0x40, 0x00, 0x8D, 0x33,
    0x40, 0x00, 0x89, 0x23, 0x40, 0x00, 0x89, 0x2A, 0x40, 0x00, 0x8E, 0x27,
    0x40, 0x01, 0x90, 0x57, 0x4C, 0x00, 0x90, 0x4B, 0x4C, 0x00, 0x91, 0x3F,
    0x4F, 0x00, 0x91, 0x4B, 0x60, 0x00, 0x92, 0x57, 0x55, 0x00, 0x92, 0x63,
    0x55, 0x00, 0x9B, 0x47, 0x4C, 0x00, 0x9C, 0x42, 0x57, 0x00, 0x9C, 0x47,
    0x57, 0x00, 0x9C, 0x4B, 0x57, 0x00, 0x9C, 0x4E, 0x57, 0x00, 0x9C, 0x23,
    0x60, 0x00, 0x9C, 0x2F, 0x60, 0x00, 0x9D, 0x23, 0x5B, 0x00, 0x9D, 0x2F,
    0x5B, 0x00, 0x99, 0x2A, 0x61, 0x00, 0x99, 0x23, 0x5B, 0x00, 0x9E, 0x23,
    0x5F, 0x76, 0x82, 0x57, 0x40, 0x00, 0x82, 0x63, 0x40, 0x6D, 0x8C, 0x23,
    0x40, 0x00, 0x8C, 0x2F, 0x40, 0x0C, 0x81, 0x3F, 0x40, 0x00, 0x81, 0x4B,
    0x40, 0x00, 0x91, 0x3D, 0x55, 0x00, 0x91, 0x49, 0x60, 0x00, 0x92, 0x57,
    0x55, 0x00, 0x92, 0x63, 0x55, 0x00, 0x9C, 0x23, 0x5B, 0x00, 0x9C, 0x2F,
    0x5B, 0x00, 0x89, 0x2A, 0x40, 0x00, 0x99, 0x2A, 0x61, 0x00, 0x8E, 0x23,
    0x40, 0x00, 0x9E, 0x23, 0x5F, 0x78, 0x82, 0x57, 0x40, 0x00, 0x82, 0x63,
    0x40, 0x5F, 0x80, 0x57, 0x40, 0x00, 0x80, 0x4B, 0x40, 0x00, 0x8C, 0x42,
    0x40, 0x00, 0x8C, 0x47, 0x40, 0x00, 0x8C, 0x4B, 0x40, 0x00, 0x8C, 0x4E,
    0x40, 0x0D, 0x8C, 0x23, 0x40, 0x00, 0x8C, 0x2F, 0x40, 0x0C, 0x8D, 0x23,
    0x40, 0x00, 0x8D, 0x2F, 0x40, 0x00, 0x89, 0x23, 0x40, 0x00, 0x89, 0x2A,
    0x40, 0x00, 0x8E, 0x23, 0x40, 0x01, 0x90, 0x57, 0x4C, 0x00, 0x90, 0x4B,
    0x4C, 0x00, 0x92, 0x57, 0x55, 0x00, 0x92, 0x63, 0x55, 0x00, 0x9C, 0x42,
    0x57, 0x00, 0x9C, 0x47, 0x57, 0x00, 0x9C, 0x4B, 0x57, 0x00, 0x9C, 0x4E,
    0x57, 0x00, 0x9C, 0x23, 0x5B, 0x00, 0x9C, 0x2F, 0x5B, 0x00, 0x9D, 0x23,
    0x5B, 0x00, 0x9D, 0x2F, 0x5B, 0x00, 0x99, 0x26, 0x58, 0x00, 0x99, 0x2A,
    0x61, 0x00, 0x99, 0x23, 0x57, 0x00, 0x9E, 0x23, 0x5F, 0x76, 0x82, 0x57,
    0x40, 0x00, 0x82, 0x63, 0x40, 0x6D, 0x8C, 0x23, 0x40, 0x00, 0x8C, 0x2F,
    0x40, 0x0C, 0x92, 0x57, 0x57, 0x00, 0x92, 0x63, 0x57, 0x00, 0x9C, 0x23,
    0x5B, 0x00, 0x9C, 0x2F, 0x5B, 0x00, 0x89, 0x26, 0x40, 0x00, 0x89, 0x2A,
    0x40, 0x00, 0x99, 0x2A, 0x61, 0x00, 0x8E, 0x23, 0x40, 0x00, 0x9E, 0x23,
    0x5F, 0x78, 0x82, 0x57, 0x40, 0x00, 0x82, 0x63, 0x40, 0x5F, 0x80, 0x57,
    0x40, 0x00, 0x80, 0x4B, 0x40, 0x00, 0x8C, 0x42, 0x40, 0x00, 0x8C, 0x47,
    0x40, 0x00, 0x8C, 0x4B, 0x40, 0x00, 0x8C, 0x4E, 0x40, 0x0D, 0x8C, 0x23,
    0x40, 0x00, 0x8C, 0x2F, 0x40, 0x0C, 0x8D, 0x23, 0x40, 0x00, 0x8D, 0x2F,
    0x40, 0x00, 0x89, 0x23, 0x40, 0x00, 0x89, 0x2A, 0x40, 0x00, 0x8E, 0x23,
    0x40, 0x01, 0x90, 0x57, 0x4C, 0x00, 0x90, 0x4B, 0x4C, 0x00, 0x92, 0x57,
    0x58, 0x00, 0x92, 0x63, 0x58, 0x00, 0x9C, 0x42, 0x57, 0x00, 0x9C, 0x47,
    0x57, 0x00, 0x9C, 0x4B, 0x57, 0x00, 0x9C, 0x4E, 0x57, 0x00, 0x9C, 0x23,
    0x5B, 0x00, 0x9C, 0x2F, 0x5B, 0x00, 0x9D, 0x23, 0x5B, 0x00, 0x9D, 0x2F,
    0x5B, 0x00, 0x99, 0x2A, 0x61, 0x00, 0x99, 0x23, 0x5C, 0x00, 0x9E, 0x23,
    0x5F, 0x76, 0x82, 0x57, 0x40, 0x00, 0x82, 0x63, 0x40, 0x6D, 0x8C, 0x23,
    0x40, 0x00, 0x8C, 0x2F, 0x40, 0x0C, 0x81, 0x3D, 0x40, 0x00, 0x81, 0x49,
    0x40, 0x00, 0x91, 0x42, 0x52, 0x00, 0x91, 0x4E, 0x60, 0x00, 0x92, 0x57,
    0x5A, 0x00, 0x92, 0x63, 0x5A, 0x00, 0x9C, 0x23, 0x5B, 0x00, 0x9C, 0x2F,
    0x5B, 0x00, 0x89, 0x2A, 0x40, 0x00, 0x99, 0x2A, 0x61, 0x00, 0x8E, 0x23,
    0x40, 0x00, 0x9E, 0x23, 0x5F, 0x78, 0x82, 0x57, 0x40, 0x00, 0x82, 0x63,
    0x40, 0x5F, 0x80, 0x57, 0x40, 0x00, 0x80, 0x4B, 0x40, 0x00, 0x8C, 0x42,
    0x40, 0x00, 0x8C, 0x47, 0x40, 0x00, 0x8C, 0x4B, 0x40, 0x00, 0x8C, 0x4E,
    0x40, 0x0C, 0x8C, 0x23, 0x40, 0x00, 0x8C, 0x2F, 0x40, 0x0D, 0x81, 0x42,
    0x40, 0x00, 0x81, 0x4E, 0x40, 0x00, 0x8D, 0x23, 0x40, 0x00, 0x8D, 0x2F,
    0x40, 0x00, 0x89, 0x23, 0x40, 0x00, 0x89, 0x2A, 0x40, 0x00, 0x8E, 0x23,
    0x40, 0x01, 0x90, 0x55, 0x4C, 0x00, 0x90, 0x49, 0x4C, 0x00, 0x91, 0x49,
    0x57, 0x00, 0x91, 0x55, 0x60, 0x00, 0x92, 0x55, 0x5C, 0x00, 0x92, 0x61,
    0x5C, 0x00, 0x9C, 0x42, 0x57, 0x00, 0x9C, 0x47, 0x57, 0x00, 0x9C, 0x4B,
    0x57, 0x00, 0x9C, 0x4E, 0x57, 0x00, 0x9C, 0x23, 0x5B, 0x00, 0x9C, 0x2F,
    0x5B, 0x00, 0x9D, 0x23, 0x5B, 0x00, 0x9D, 0x2F, 0x5B, 0x00, 0x99, 0x26,
    0x58, 0x00, 0x99, 0x2A, 0x61, 0x00, 0x99, 0x23, 0x55, 0x00, 0x9E, 0x23,
    0x5F, 0x76, 0x82, 0x55, 0x40, 0x00, 0x82, 0x61, 0x40, 0x6D, 0x8C, 0x23,
    0x40, 0x00, 0x8C, 0x2F, 0x40, 0x0C, 0x92, 0x55, 0x5D, 0x00, 0x92, 0x61,
    0x5D, 0x00, 0x9C, 0x23, 0x5B, 0x00, 0x9C, 0x2F, 0x5B, 0x00, 0x89, 0x26,
    0x40, 0x00, 0x89, 0x2A, 0x40, 0x00, 0x99, 0x2A, 0x61, 0x00, 0x8E, 0x23,
    0x40, 0x00, 0x9E, 0x23, 0x5F, 0x78, 0x81, 0x49, 0x40, 0x00, 0x81, 0x55,
    0x40, 0x00, 0x82, 0x55, 0x40, 0x00, 0x82, 0x61, 0x40, 0x01, 0x91, 0x46,
    0x57, 0x00, 0x91, 0x52, 0x60, 0x5E, 0x80, 0x55, 0x40, 0x00, 0x80, 0x49,
    0x40, 0x00, 0x8C, 0x42, 0x40, 0x00, 0x8C, 0x47, 0x40, 0x00, 0x8C, 0x4B,
    0x40, 0x00, 0x8C, 0x4E, 0x40, 0x0C, 0x8C, 0x23, 0x40, 0x00, 0x8C, 0x2F,
    0x40, 0x0D, 0x8B, 0x3F, 0x40, 0x00, 0x8B, 0x47, 0x40, 0x00, 0x8D, 0x23,
    0x40, 0x00, 0x8D, 0x2F, 0x40, 0x00, 0x89, 0x23, 0x40, 0x00, 0x89, 0x2A,
    0x40, 0x00, 0x8E, 0x23, 0x40, 0x01, 0x90, 0x52, 0x4C, 0x00, 0x90, 0x46,
    0x4C, 0x00, 0x92, 0x52, 0x60, 0x00, 0x92, 0x5E, 0x60, 0x00, 0x9B, 0x46,
    0x4C, 0x00, 0x9B, 0x3D, 0x4C, 0x00, 0x9C, 0x42, 0x57, 0x00, 0x9C, 0x46,
    0x57, 0x00, 0x9C, 0x49, 0x57, 0x00, 0x9C, 0x4E, 0x57, 0x00, 0x9C, 0x1E,
    0x5B, 0x00, 0x9C, 0x2A, 0x5B, 0x00, 0x9D, 0x1E, 0x5B, 0x00, 0x9D, 0x2A,
    0x5B, 0x00, 0x99, 0x2A, 0x61, 0x00, 0x99, 0x23, 0x5C, 0x00, 0x9E, 0x1E,
    0x5F, 0x76, 0x82, 0x52, 0x40, 0x00, 0x82, 0x5E, 0x40, 0x6D, 0x8C, 0x1E,
    0x40, 0x00, 0x8C, 0x2A, 0x40, 0x0C, 0x92, 0x52, 0x60, 0x00, 0x92, 0x5E,
    0x60, 0x00, 0x9C, 0x1E, 0x5B, 0x00, 0x9C, 0x2A, 0x5B, 0x00, 0x89, 0x2A,
    0x40, 0x00, 0x99, 0x2A, 0x61, 0x00, 0x8E, 0x1E, 0x40, 0x00, 0x9E, 0x1E,
    0x5F, 0x78, 0x82, 0x52, 0x40, 0x00, 0x82, 0x5E, 0x40, 0x5F, 0x80, 0x52,
    0x40, 0x00, 0x80, 0x46, 0x40, 0x00, 0x8C, 0x42, 0x40, 0x00, 0x8C, 0x46,
    0x40, 0x00, 0x8C, 0x49, 0x40, 0x00, 0x8C, 0x4E, 0x40, 0x0C, 0x8C, 0x1E,
    0x40, 0x00, 0x8C, 0x2A, 0x40, 0x0C, 0x8D, 0x1E, 0x40, 0x00, 0x8D, 0x2A,
    0x40, 0x00, 0x89, 0x23, 0x40, 0x00, 0x89, 0x2A, 0x40, 0x00, 0x8E, 0x1E,
    0x40, 0x02, 0x90, 0x52, 0x4C, 0x00, 0x90, 0x46, 0x4C, 0x00, 0x92, 0x52,
    0x60, 0x00, 0x92, 0x5E, 0x60, 0x00, 0x9C, 0x42, 0x57, 0x00, 0x9C, 0x46,
    0x57, 0x00, 0x9C, 0x49, 0x57, 0x00, 0x9C, 0x4E, 0x57, 0x00, 0x9C, 0x1E,
    0x5B, 0x00, 0x9C, 0x2A, 0x5B, 0x00, 0x9D, 0x1E, 0x5B, 0x00, 0x9D, 0x2A,
    0x5B, 0x00, 0x99, 0x26, 0x57, 0x00, 0x99, 0x2A, 0x61, 0x00, 0x99, 0x23,
    0x57, 0x00, 0x9E, 0x1E, 0x5F, 0x76, 0x82, 0x52, 0x40, 0x00, 0x82, 0x5E,
    0x40, 0x6D, 0x8C, 0x1E, 0x40, 0x00, 0x8C, 0x2A, 0x40, 0x0C, 0x92, 0x52,
    0x60, 0x00, 0x92, 0x5E, 0x60, 0x00, 0x9C, 0x1E, 0x5B, 0x00, 0x9C, 0x2A,
    0x5B, 0x00, 0x89, 0x26, 0x40, 0x00, 0x89, 0x2A, 0x40, 0x00, 0x99, 0x2A,
    0x61, 0x00, 0x8E, 0x1E, 0x40, 0x00, 0x9E, 0x1E, 0x5F, 0x78, 0x82, 0x52,
    0x40, 0x00, 0x82, 0x5E, 0x40, 0x5F, 0x80, 0x52, 0x40, 0x00, 0x80, 0x46,
    0x40, 0x00, 0x8C, 0x42, 0x40, 0x00, 0x8C, 0x46, 0x40, 0x00, 0x8C, 0x49,
    0x40, 0x00, 0x8C, 0x4E, 0x40, 0x0C, 0x8C, 0x1E, 0x40, 0x00, 0x8C, 0x2A,
    0x40, 0x0C, 0x8D, 0x1E, 0x40, 0x00, 0x8D, 0x2A, 0x40, 0x00, 0x89, 0x23,
    0x40, 0x00, 0x89, 0x2A, 0x40, 0x00, 0x8E, 0x1E, 0x40, 0x02, 0x90, 0x52,
    0x4C, 0x00, 0x90, 0x46, 0x4C, 0x00, 0x92, 0x52, 0x60, 0x00, 0x92, 0x5E,
    0x60, 0x00, 0x9C, 0x42, 0x57, 0x00, 0x9C, 0x46, 0x57, 0x00, 0x9C, 0x49,
    0x57, 0x00, 0x9C, 0x4E, 0x57, 0x00, 0x9C, 0x1E, 0x5B, 0x00, 0x9C, 0x2A,
    0x5B, 0x00, 0x9D, 0x1E, 0x5B, 0x00, 0x9D, 0x2A, 0x5B, 0x00, 0x99, 0x2A,
    0x61, 0x00, 0x99, 0x23, 0x5A, 0x00, 0x9E, 0x1E, 0x5F, 0x77, 0x82, 0x52,
    0x40, 0x00, 0x82, 0x5E, 0x40, 0x6C, 0x8C, 0x1E, 0x40, 0x00, 0x8C, 0x2A,
    0x40, 0x0C, 0x81, 0x46, 0x40, 0x00, 0x81, 0x52, 0x40, 0x00, 0x91, 0x42,
    0x56, 0x00, 0x91, 0x4E, 0x60, 0x00, 0x92, 0x52, 0x60, 0x00, 0x92, 0x5E,
    0x60, 0x00, 0x9C, 0x1E, 0x5B, 0x00, 0x9C, 0x2A, 0x5B, 0x00, 0x89, 0x2A,
    0x40, 0x00, 0x99, 0x2A, 0x61, 0x00, 0x8E, 0x1E, 0x40, 0x00, 0x9E, 0x1E,
    0x5F, 0x78, 0x82, 0x52, 0x40, 0x00, 0x82, 0x5E, 0x40, 0x5F, 0x80, 0x52,
    0x40, 0x00, 0x80, 0x46, 0x40, 0x00, 0x8C, 0x42, 0x40, 0x00, 0x8C, 0x46,
    0x40, 0x00, 0x8C, 0x49, 0x40, 0x00, 0x8C, 0x4E, 0x40, 0x0C, 0x8C, 0x1E,
    0x40, 0x00, 0x8C, 0x2A, 0x40, 0x0C, 0x81, 0x42, 0x40, 0x00, 0x81, 0x4E,
    0x40, 0x00, 0x8D, 0x1E, 0x40, 0x00, 0x8D, 0x2A, 0x40, 0x00, 0x89, 0x23,
    0x40, 0x00, 0x89, 0x2A, 0x40, 0x00, 0x8E, 0x1E, 0x40, 0x02, 0x90, 0x52,
    0x4C, 0x00, 0x90, 0x46, 0x4C, 0x00, 0x91, 0x49, 0x60, 0x00, 0x91, 0x55,
    0x60, 0x00, 0x92, 0x52, 0x60, 0x00, 0x92, 0x5E, 0x60, 0x00, 0x9C, 0x42,
    0x57, 0x00, 0x9C, 0x46, 0x57, 0x00, 0x9C, 0x49, 0x57, 0x00, 0x9C, 0x4E,
    0x57, 0x00, 0x9C, 0x1E, 0x5B, 0x00, 0x9C, 0x2A, 0x5B, 0x00, 0x9D, 0x1E,
    0x5B, 0x00, 0x9D, 0x2A, 0x5B, 0x00, 0x99, 0x26, 0x57, 0x00, 0x99, 0x2A,
    0x61, 0x00, 0x99, 0x23, 0x54, 0x00, 0x9E, 0x1E, 0x5F, 0x59, 0x82, 0x52,
    0x40, 0x00, 0x82, 0x5E, 0x40, 0x5B, 0x92, 0x52, 0x60, 0x00, 0x92, 0x5E,
    0x60, 0x1D, 0x82, 0x52, 0x40, 0x00, 0x82, 0x5E, 0x40, 0x12, 0x8C, 0x1E,
    0x40, 0x00, 0x8C, 0x2A, 0x40, 0x0C, 0x92, 0x52, 0x60, 0x00, 0x92, 0x5E,
    0x60, 0x00, 0x9C, 0x1E, 0x5B, 0x00, 0x9C, 0x2A, 0x5B, 0x00, 0x89, 0x26,
    0x40, 0x00, 0x89, 0x2A, 0x40, 0x00, 0x99, 0x2A, 0x61, 0x00, 0x8E, 0x1E,
    0x40, 0x00, 0x9E, 0x1E, 0x5F, 0x3B, 0x82, 0x52, 0x40, 0x00, 0x82, 0x5E,
    0x40, 0x3D, 0x81, 0x49, 0x40, 0x00, 0x81, 0x55, 0x40, 0x01, 0x91, 0x46,
    0x60, 0x00, 0x91, 0x52, 0x60, 0x00, 0x92, 0x52, 0x60, 0x00, 0x92, 0x5E,
    0x60, 0x3B, 0x82, 0x52, 0x40, 0x00, 0x82, 0x5E, 0x40, 0x23, 0x80, 0x52,
    0x40, 0x00, 0x80, 0x46, 0x40, 0x00, 0x8C, 0x42, 0x40, 0x00, 0x8C, 0x46,
    0x40, 0x00, 0x8C, 0x49, 0x40, 0x00, 0x8C, 0x4E, 0x40, 0x0C, 0x8C, 0x1E,
    0x40, 0x00, 0x8C, 0x2A, 0x40, 0x0C, 0x8B, 0x42, 0x40, 0x00, 0x8B, 0x46,
    0x40, 0x00, 0x8D, 0x1E, 0x40, 0x00, 0x8D, 0x2A, 0x40, 0x00, 0x89, 0x23,
    0x40, 0x00, 0x89, 0x2A, 0x40, 0x00, 0x8E, 0x1E, 0x40, 0x02, 0x90, 0x4D,
    0x4C, 0x00, 0x90, 0x41, 0x4C, 0x00, 0x92, 0x4D, 0x60, 0x00, 0x92, 0x59,
    0x60, 0x00, 0x9B, 0x41, 0x4C, 0x00, 0x9B, 0x44, 0x4C, 0x00, 0x9C, 0x44,
    0x57, 0x00, 0x9C, 0x49, 0x57, 0x00, 0x9C, 0x4D, 0x57, 0x00, 0x9C, 0x50,
    0x57, 0x00, 0x9C, 0x25, 0x5B, 0x00, 0x9C, 0x31, 0x5B, 0x00, 0x9D, 0x25,
    0x5B, 0x00, 0x9D, 0x31, 0x5B, 0x00, 0x99, 0x2A, 0x61, 0x00, 0x99, 0x23,
    0x5B, 0x00, 0x9E, 0x25, 0x5F, 0x77, 0x82, 0x4D, 0x40, 0x00, 0x82, 0x59,
    0x40, 0x6C, 0x8C, 0x25, 0x40, 0x00, 0x8C, 0x31, 0x40, 0x0C, 0x81, 0x46,
    0x40, 0x00, 0x81, 0x52, 0x40, 0x00, 0x89, 0x2A, 0x40, 0x00, 0x8E, 0x25,
    0x40, 0x01, 0x91, 0x44, 0x60, 0x00, 0x91, 0x50, 0x60, 0x00, 0x92, 0x4D,
    0x60, 0x00, 0x92, 0x59, 0x60, 0x00, 0x9C, 0x25, 0x5B, 0x00, 0x9C, 0x31,
    0x5B, 0x00, 0x99, 0x2A, 0x61, 0x00, 0x9E, 0x25, 0x5F, 0x77, 0x82, 0x4D,
    0x40, 0x00, 0x82, 0x59, 0x40, 0x60, 0x80, 0x4D, 0x40, 0x00, 0x80, 0x41,
    0x40, 0x00, 0x8C, 0x44, 0x40, 0x00, 0x8C, 0x49, 0x40, 0x00, 0x8C, 0x4D,
    0x40, 0x00, 0x8C, 0x50, 0x40, 0x0B, 0x8C, 0x25, 0x40, 0x00, 0x8C, 0x31,
    0x40, 0x0C, 0x8D, 0x25, 0x40, 0x00, 0x8D, 0x31, 0x40, 0x00, 0x89, 0x23,
    0x40, 0x00, 0x89, 0x2A, 0x40, 0x00, 0x8E, 0x25, 0x40, 0x02, 0x90, 0x4D,
    0x4C, 0x00, 0x90, 0x41, 0x4C, 0x00, 0x92, 0x4D, 0x60, 0x00, 0x92, 0x59,
    0x60, 0x00, 0x9C, 0x44, 0x57, 0x00, 0x9C, 0x49, 0x57, 0x00, 0x9C, 0x4D,
    0x57, 0x00, 0x9C, 0x50, 0x57, 0x00, 0x9C, 0x25, 0x5B, 0x00, 0x9C, 0x31,
    0x5B, 0x00, 0x9D, 0x25, 0x5B, 0x00, 0x9D, 0x31, 0x5B, 0x00, 0x99, 0x26,
    0x58, 0x00, 0x99, 0x2A, 0x61, 0x00, 0x99, 0x23, 0x52, 0x00, 0x9E, 0x25,
    0x5F, 0x77, 0x82, 0x4D, 0x40, 0x00, 0x82, 0x59, 0x40, 0x6C, 0x8C, 0x25,
    0x40, 0x00, 0x8C, 0x31, 0x40, 0x0C, 0x89, 0x26, 0x40, 0x00, 0x89, 0x2A,
    0x40, 0x00, 0x8E, 0x25, 0x40, 0x01, 0x92, 0x4D, 0x60, 0x00, 0x92, 0x59,
    0x60, 0x00, 0x9C, 0x25, 0x5B, 0x00, 0x9C, 0x31, 0x5B, 0x00, 0x99, 0x2A,
    0x61, 0x00, 0x9E, 0x25, 0x5F, 0x77, 0x82, 0x4D, 0x40, 0x00, 0x82, 0x59,
    0x40, 0x60, 0x80, 0x4D, 0x40, 0x00, 0x80, 0x41, 0x40, 0x00, 0x8C, 0x44,
    0x40, 0x00, 0x8C, 0x49, 0x40, 0x00, 0x8C, 0x4D, 0x40, 0x00, 0x8C, 0x50,
    0x40, 0x0B, 0x8C, 0x25, 0x40, 0x00, 0x8C, 0x31, 0x40, 0x0C, 0x8D, 0x25,
    0x40, 0x00, 0x8D, 0x31, 0x40, 0x00, 0x89, 0x23, 0x40, 0x00, 0x89, 0x2A,
    0x40, 0x00, 0x8E, 0x25, 0x40, 0x02, 0x90, 0x4D, 0x4C, 0x00, 0x90, 0x41,
    0x4C, 0x00, 0x92, 0x4D, 0x60, 0x00, 0x92, 0x59, 0x60, 0x00, 0x9C, 0x44,
    0x57, 0x00, 0x9C, 0x49, 0x57, 0x00, 0x9C, 0x4D, 0x57, 0x00, 0x9C, 0x50,
    0x57, 0x00, 0x9C, 0x25, 0x5B, 0x00, 0x9C, 0x31, 0x5B, 0x00, 0x9D, 0x25,
    0x5B, 0x00, 0x9D, 0x31, 0x5B, 0x00, 0x99, 0x2A, 0x61, 0x00, 0x99, 0x23,
    0x5A, 0x00, 0x9E, 0x25, 0x5F, 0x77, 0x82, 0x4D, 0x40, 0x00, 0x82, 0x59,
    0x40, 0x6C, 0x8C, 0x25, 0x40, 0x00, 0x8C, 0x31, 0x40, 0x0C, 0x81, 0x44,
    0x40, 0x00, 0x81, 0x50, 0x40, 0x00, 0x89, 0x2A, 0x40, 0x00, 0x8E, 0x25,
    0x40, 0x01, 0x91, 0x46, 0x54, 0x00, 0x91, 0x52, 0x60, 0x00, 0x92, 0x4D,
    0x60, 0x00, 0x92, 0x59, 0x60, 0x00, 0x9C, 0x25, 0x5B, 0x00, 0x9C, 0x31,
    0x5B, 0x00, 0x99, 0x2A, 0x61, 0x00, 0x9E, 0x25, 0x5F, 0x77, 0x82, 0x4D,
    0x40, 0x00, 0x82, 0x59, 0x40, 0x60, 0x80, 0x4D, 0x40, 0x00, 0x80, 0x41,
    0x40, 0x00, 0x8C, 0x44, 0x40, 0x00, 0x8C, 0x49, 0x40, 0x00, 0x8C, 0x4D,
    0x40, 0x00, 0x8C, 0x50, 0x40, 0x0C, 0x8C, 0x25, 0x40, 0x00, 0x8C, 0x31,
    0x40, 0x0B, 0x81, 0x46, 0x40, 0x00, 0x81, 0x52, 0x40, 0x00, 0x8D, 0x25,
    0x40, 0x00, 0x8D, 0x31, 0x40, 0x00, 0x89, 0x23, 0x40, 0x00, 0x89, 0x2A,
    0x40, 0x00, 0x8E, 0x25, 0x40, 0x02, 0x90, 0x4D, 0x4C, 0x00, 0x90, 0x41,
    0x4C, 0x00, 0x91, 0x46, 0x56, 0x00, 0x91, 0x52, 0x60, 0x00, 0x92, 0x4B,
    0x60, 0x00, 0x92, 0x57, 0x60, 0x00, 0x9C, 0x44, 0x57, 0x00, 0x9C, 0x49,
    0x57, 0x00, 0x9C, 0x4D, 0x57, 0x00, 0x9C, 0x50, 0x57, 0x00, 0x9C, 0x25,
    0x5B, 0x00, 0x9C, 0x31, 0x5B, 0x00, 0x9D, 0x25, 0x5B, 0x00, 0x9D, 0x31,
    0x5B, 0x00, 0x99, 0x26, 0x5A, 0x00, 0x99, 0x2D, 0x5C, 0x00, 0x9E, 0x25,
    0x5F, 0x77, 0x82, 0x4B, 0x40, 0x00, 0x82, 0x57, 0x40, 0x6C, 0x8C, 0x25,
    0x40, 0x00, 0x8C, 0x31, 0x40, 0x0C, 0x81, 0x46, 0x40, 0x00, 0x81, 0x52,
    0x40, 0x00, 0x89, 0x26, 0x40, 0x00, 0x89, 0x2D, 0x40, 0x00, 0x8E, 0x25,
    0x40, 0x01, 0x91, 0x46, 0x56, 0x00, 0x91, 0x52, 0x60, 0x00, 0x92, 0x4D,
    0x60, 0x00, 0x92, 0x59, 0x60, 0x00, 0x9C, 0x25, 0x5B, 0x00, 0x9C, 0x31,
    0x5B, 0x00, 0x99, 0x26, 0x56, 0x00, 0x99, 0x2B, 0x58, 0x00, 0x9E, 0x25,
    0x5F, 0x76, 0x82, 0x4D, 0x40, 0x00, 0x82, 0x59, 0x40, 0x00, 0x89, 0x26,
    0x40, 0x02, 0x99, 0x29, 0x5B, 0x00, 0x99, 0x26, 0x5B, 0x5F, 0x80, 0x4D,
    0x40, 0x00, 0x80, 0x41, 0x40, 0x00, 0x8C, 0x44, 0x40, 0x00, 0x8C, 0x49,
    0x40, 0x00, 0x8C, 0x4D, 0x40, 0x00, 0x8C, 0x50, 0x40, 0x0C, 0x8C, 0x25,
    0x40, 0x00, 0x8C, 0x31, 0x40, 0x0B, 0x8B, 0x3D, 0x40, 0x00, 0x8B, 0x41,
    0x40, 0x00, 0x8B, 0x44, 0x40, 0x00, 0x8D, 0x25, 0x40, 0x00, 0x8D, 0x31,
    0x40, 0x00, 0x89, 0x2B, 0x40, 0x00, 0x89, 0x29, 0x40, 0x00, 0x89, 0x26,
    0x40, 0x00, 0x8E, 0x25, 0x40, 0x02, 0x90, 0x4E, 0x4C, 0x00, 0x90, 0x42,
    0x4C, 0x00, 0x92, 0x4E, 0x60, 0x00, 0x92, 0x5A, 0x60, 0x00, 0x9B, 0x46,
    0x4C, 0x00, 0x9B, 0x3F, 0x4C, 0x00, 0x9B, 0x42, 0x4C, 0x00, 0x9C, 0x42,
    0x57, 0x00, 0x9C, 0x46, 0x57, 0x00, 0x9C, 0x4B, 0x57, 0x00, 0x9C, 0x4E,
    0x57, 0x00, 0x9C, 0x27, 0x5B, 0x00, 0x9C, 0x33, 0x5B, 0x00, 0x9D, 0x27,
    0x5B, 0x00, 0x9D, 0x33, 0x5B, 0x00, 0x99, 0x2A, 0x61, 0x00, 0x99, 0x31,
    0x54, 0x00, 0x99, 0x23, 0x55, 0x00, 0x9E, 0x27, 0x5F, 0x77, 0x82, 0x4E,
    0x40, 0x00, 0x82, 0x5A, 0x40, 0x78, 0x89, 0x2A, 0x40, 0x00, 0x89, 0x31,
    0x40, 0x00, 0x8E, 0x27, 0x40, 0x01, 0x92, 0x4E, 0x60, 0x00, 0x92, 0x5A,
    0x60, 0x00, 0x99, 0x2A, 0x61, 0x00, 0x9E, 0x27, 0x5F, 0x76, 0x82, 0x4E,
    0x40, 0x00, 0x82, 0x5A, 0x40, 0x61, 0x80, 0x4E, 0x40, 0x00, 0x80, 0x42,
    0x40, 0x00, 0x8C, 0x42, 0x40, 0x00, 0x8C, 0x46, 0x40, 0x00, 0x8C, 0x4B,
    0x40, 0x00, 0x8C, 0x4E, 0x40, 0x18, 0x8D, 0x27, 0x40, 0x00, 0x8D, 0x33,
    0x40, 0x00, 0x89, 0x23, 0x40, 0x00, 0x89, 0x2A, 0x40, 0x00, 0x8E, 0x27,
    0x40, 0x01, 0x90, 0x4E, 0x4C, 0x00, 0x90, 0x42, 0x4C, 0x00, 0x92, 0x4E,
    0x60, 0x00, 0x92, 0x5A, 0x60, 0x00, 0x9C, 0x4E, 0x57, 0x00, 0x9C, 0x42,
    0x57, 0x00, 0x9C, 0x46, 0x57, 0x00, 0x9C, 0x4B, 0x57, 0x00, 0x9D, 0x27,
    0x5B, 0x00, 0x9D, 0x33, 0x5B, 0x00, 0x99, 0x26, 0x5B, 0x00, 0x99, 0x2A,
    0x61, 0x00, 0x99, 0x23, 0x52, 0x00, 0x9E, 0x27, 0x5F, 0x77, 0x82, 0x4E,
    0x40, 0x00, 0x82, 0x5A, 0x40, 0x78, 0x89, 0x26, 0x40, 0x00, 0x89, 0x2A,
    0x40, 0x00, 0x8E, 0x27, 0x40, 0x01, 0x92, 0x4E, 0x60, 0x00, 0x92, 0x5A,
    0x60, 0x00, 0x99, 0x2A, 0x61, 0x00, 0x9E, 0x27, 0x5F, 0x76, 0x82, 0x4E,
    0x40, 0x00, 0x82, 0x5A, 0x40, 0x61, 0x80, 0x4E, 0x40, 0x00, 0x80, 0x42,
    0x40, 0x00, 0x8C, 0x4E, 0x40, 0x00, 0x8C, 0x42, 0x40, 0x00, 0x8C, 0x46,
    0x40, 0x00, 0x8C, 0x4B, 0x40, 0x18, 0x90, 0x4E, 0x4C, 0x00, 0x90, 0x42,
    0x4C, 0x00, 0x92, 0x4E, 0x60, 0x00, 0x92, 0x5A, 0x60, 0x00, 0x9C, 0x4E,
    0x57, 0x00, 0x9C, 0x42, 0x57, 0x00, 0x9C, 0x46, 0x57, 0x00, 0x9C, 0x4B,
    0x57, 0x00, 0x8D, 0x27, 0x40, 0x00, 0x8D, 0x33, 0x40, 0x00, 0x9D, 0x27,
    0x5B, 0x00, 0x9D, 0x33, 0x5B, 0x00, 0x89, 0x23, 0x40, 0x00, 0x89, 0x2A,
    0x40, 0x00, 0x99, 0x2A, 0x61, 0x00, 0x99, 0x23, 0x5A, 0x00, 0x8E, 0x27,
    0x40, 0x00, 0x9E, 0x27, 0x5F, 0x78, 0x82, 0x4E, 0x40, 0x00, 0x82, 0x5A,
    0x40, 0x78, 0x81, 0x46, 0x40, 0x00, 0x81, 0x52, 0x40, 0x00, 0x89, 0x2A,
    0x40, 0x00, 0x8E, 0x27, 0x40, 0x01, 0x91, 0x42, 0x55, 0x00, 0x91, 0x4E,
    0x60, 0x00, 0x92, 0x4E, 0x60, 0x00, 0x92, 0x5A, 0x60, 0x00, 0x99, 0x2A,
    0x61, 0x00, 0x9E, 0x27, 0x5F, 0x76, 0x82, 0x4E, 0x40, 0x00, 0x82, 0x5A,
    0x40, 0x61, 0x80, 0x4E, 0x40, 0x00, 0x80, 0x42, 0x40, 0x00, 0x8C, 0x4E,
    0x40, 0x00, 0x8C, 0x42, 0x40, 0x00, 0x8C, 0x46, 0x40, 0x00, 0x8C, 0x4B,
    0x40, 0x18, 0x90, 0x52, 0x4C, 0x00, 0x90, 0x46, 0x4C, 0x00, 0x81, 0x42,
    0x40, 0x00, 0x81, 0x4E, 0x40, 0x00, 0x91, 0x42, 0x60, 0x00, 0x91, 0x4E,
    0x60, 0x00, 0x92, 0x52, 0x60, 0x00, 0x92, 0x5E, 0x60, 0x00, 0x9C, 0x4E,
    0x57, 0x00, 0x9C, 0x42, 0x57, 0x00, 0x9C, 0x46, 0x57, 0x00, 0x9C, 0x4B,
    0x57, 0x00, 0x8D, 0x27, 0x40, 0x00, 0x8D, 0x33, 0x40, 0x00, 0x9D, 0x27,
    0x5B, 0x00, 0x9D, 0x33, 0x5B, 0x00, 0x89, 0x23, 0x40, 0x00, 0x89, 0x2A,
    0x40, 0x00, 0x99, 0x26, 0x5C, 0x00, 0x99, 0x2A, 0x61, 0x00, 0x99, 0x23,
    0x55, 0x00, 0x8E, 0x27, 0x40, 0x00, 0x9E, 0x27, 0x5F, 0x5A, 0x82, 0x52,
    0x40, 0x00, 0x82, 0x5E, 0x40, 0x5B, 0x92, 0x52, 0x60, 0x00, 0x92, 0x5E,
    0x60, 0x1C, 0x82, 0x52, 0x40, 0x00, 0x82, 0x5E, 0x40, 0x1F, 0x81, 0x42,
    0x40, 0x00, 0x81, 0x4E, 0x40, 0x00, 0x89, 0x26, 0x40, 0x00, 0x89, 0x2A,
    0x40, 0x00, 0x8E, 0x27, 0x40, 0x01, 0x91, 0x3F, 0x4D, 0x00, 0x91, 0x4B,
    0x60, 0x00, 0x92, 0x52, 0x60, 0x00, 0x92, 0x5E, 0x60, 0x00, 0x99, 0x2A,
    0x61, 0x00, 0x9E, 0x27, 0x5F, 0x3B, 0x82, 0x52, 0x40, 0x00, 0x82, 0x5E,
    0x40, 0x3B, 0x81, 0x3F, 0x40, 0x00, 0x81, 0x4B, 0x40, 0x02, 0x91, 0x47,
    0x57, 0x00, 0x91, 0x53, 0x60, 0x00, 0x92, 0x52, 0x60, 0x00, 0x92, 0x5E,
    0x60, 0x16, 0x8C, 0x27, 0x40, 0x00, 0x8C, 0x33, 0x40, 0x25, 0x82, 0x52,
    0x40, 0x00, 0x82, 0x5E, 0x40, 0x24, 0x80, 0x52, 0x40, 0x00, 0x80, 0x46,
    0x40, 0x00, 0x8C, 0x4E, 0x40, 0x00, 0x8C, 0x42, 0x40, 0x00, 0x8C, 0x46,
    0x40, 0x00, 0x8C, 0x4B, 0x40, 0x18, 0x90, 0x57, 0x4C, 0x00, 0x90, 0x4B,
    0x4C, 0x00, 0x92, 0x57, 0x60, 0x00, 0x92, 0x63, 0x60, 0x00, 0x8B, 0x46,
    0x40, 0x00, 0x9B, 0x47, 0x4C, 0x00, 0x9C, 0x42, 0x57, 0x00, 0x9C, 0x47,
    0x57, 0x00, 0x9C, 0x4B, 0x57, 0x00, 0x9C, 0x4E, 0x57, 0x00, 0x9C, 0x23,
    0x5B, 0x00, 0x9C, 0x2F, 0x5B, 0x00, 0x8D, 0x27, 0x40, 0x00, 0x8D, 0x33,
    0x40, 0x00, 0x9D, 0x23, 0x5B, 0x00, 0x9D, 0x2F, 0x5B, 0x00, 0x89, 0x23,
    0x40, 0x00, 0x89, 0x2A, 0x40, 0x00, 0x99, 0x2A, 0x61, 0x00, 0x99, 0x23,
    0x57, 0x00, 0x8E, 0x27, 0x40, 0x00, 0x9E, 0x23, 0x5F, 0x78, 0x82, 0x57,
    0x40, 0x00, 0x82, 0x63, 0x40, 0x78, 0x89, 0x2A, 0x40, 0x00, 0x8E, 0x23,
    0x40, 0x01, 0x92, 0x57, 0x60, 0x00, 0x92, 0x63, 0x60, 0x00, 0x99, 0x2A,
    0x61, 0x00, 0x9E, 0x23, 0x5F, 0x76, 0x82, 0x57, 0x40, 0x00, 0x82, 0x63,
    0x40, 0x61, 0x80, 0x57, 0x40, 0x00, 0x80, 0x4B, 0x40, 0x00, 0x8C, 0x42,
    0x40, 0x00, 0x8C, 0x47, 0x40, 0x00, 0x8C, 0x4B, 0x40, 0x00, 0x8C, 0x4E,
    0x40, 0x18, 0x90, 0x57, 0x4C, 0x00, 0x90, 0x4B, 0x4C, 0x00, 0x92, 0x57,
    0x60, 0x00, 0x92, 0x63, 0x60, 0x00, 0x9C, 0x4E, 0x57, 0x00, 0x9C, 0x42,
    0x57, 0x00, 0x9C, 0x47, 0x57, 0x00, 0x9C, 0x4B, 0x57, 0x00, 0x8D, 0x23,
    0x40, 0x00, 0x8D, 0x2F, 0x40, 0x00, 0x9D, 0x23, 0x5B, 0x00, 0x9D, 0x2F,
    0x5B, 0x00, 0x89, 0x23, 0x40, 0x00, 0x89, 0x2A, 0x40, 0x00, 0x99, 0x26,
    0x59, 0x00, 0x99, 0x2A, 0x61, 0x00, 0x99, 0x23, 0x54, 0x00, 0x8E, 0x23,
    0x40, 0x00, 0x9E, 0x23, 0x5F, 0x78, 0x82, 0x57, 0x40, 0x00, 0x82, 0x63,
    0x40, 0x78, 0x89, 0x26, 0x40, 0x00, 0x89, 0x2A, 0x40, 0x00, 0x8E, 0x23,
    0x40, 0x01, 0x92, 0x57, 0x60, 0x00, 0x92, 0x63, 0x60, 0x00, 0x99, 0x2A,
    0x61, 0x00, 0x9E, 0x23, 0x5F, 0x76, 0x82, 0x57, 0x40, 0x00, 0x82, 0x63,
    0x40, 0x61, 0x80, 0x57, 0x40, 0x00, 0x80, 0x4B, 0x40, 0x00, 0x8C, 0x4E,
    0x40, 0x00, 0x8C, 0x42, 0x40, 0x00, 0x8C, 0x47, 0x40, 0x00, 0x8C, 0x4B,
    0x40, 0x18, 0x90, 0x57, 0x4C, 0x00, 0x90, 0x4B, 0x4C, 0x00, 0x92, 0x57,
    0x60, 0x00, 0x92, 0x63, 0x60, 0x00, 0x9C, 0x4E, 0x57, 0x00, 0x9C, 0x42,
    0x57, 0x00, 0x9C, 0x47, 0x57, 0x00, 0x9C, 0x4B, 0x57, 0x00, 0x8D, 0x23,
    0x40, 0x00, 0x8D, 0x2F, 0x40, 0x00, 0x9D, 0x23, 0x5B, 0x00, 0x9D, 0x2F,
    0x5B, 0x00, 0x89, 0x23, 0x40, 0x00, 0x89, 0x2A, 0x40, 0x00, 0x99, 0x2A,
    0x61, 0x00, 0x99, 0x23, 0x58, 0x00, 0x8E, 0x23, 0x40, 0x00, 0x9E, 0x23,
    0x5F, 0x78, 0x82, 0x57, 0x40, 0x00, 0x82, 0x63, 0x40, 0x77, 0x89, 0x2A,
    0x40, 0x00, 0x8E, 0x23, 0x40, 0x02, 0x92, 0x57, 0x60, 0x00, 0x92, 0x63,
    0x60, 0x00, 0x99, 0x2A, 0x61, 0x00, 0x9E, 0x23, 0x5F, 0x76, 0x82, 0x57,
    0x40, 0x00, 0x82, 0x63, 0x40, 0x61, 0x80, 0x57, 0x40, 0x00, 0x80, 0x4B,
    0x40, 0x00, 0x8C, 0x4E, 0x40, 0x00, 0x8C, 0x42, 0x40, 0x00, 0x8C, 0x47,
    0x40, 0x00, 0x8C, 0x4B, 0x40, 0x18, 0x90, 0x55, 0x4C, 0x00, 0x90, 0x49,
    0x4C, 0x00, 0x92, 0x55, 0x60, 0x00, 0x92, 0x61, 0x60, 0x00, 0x9C, 0x4E,
    0x57, 0x00, 0x9C, 0x42, 0x57, 0x00, 0x9C, 0x47, 0x57, 0x00, 0x9C, 0x4B,
    0x57, 0x00, 0x8D, 0x23, 0x40, 0x00, 0x8D, 0x2F, 0x40, 0x00, 0x9D, 0x23,
    0x5B, 0x00, 0x9D, 0x2F, 0x5B, 0x00, 0x89, 0x23, 0x40, 0x00, 0x89, 0x2A,
    0x40, 0x00, 0x99, 0x26, 0x5C, 0x00, 0x99, 0x2A, 0x61, 0x00, 0x99, 0x23,
    0x56, 0x00, 0x8E, 0x23, 0x40, 0x00, 0x9E, 0x23, 0x5F, 0x78, 0x82, 0x55,
    0x40, 0x00, 0x82, 0x61, 0x40, 0x77, 0x81, 0x47, 0x40, 0x00, 0x81, 0x53,
    0x40, 0x00, 0x89, 0x26, 0x40, 0x00, 0x89, 0x2A, 0x40, 0x00, 0x8E, 0x23,
    0x40, 0x02, 0x91, 0x49, 0x4F, 0x00, 0x91, 0x55, 0x60, 0x00, 0x92, 0x55,
    0x60, 0x00, 0x92, 0x61, 0x60, 0x00, 0x99, 0x2A, 0x61, 0x00, 0x9E, 0x23,
    0x5F, 0x77, 0x82, 0x55, 0x40, 0x00, 0x82, 0x61, 0x40, 0x17, 0x8C, 0x23,
    0x40, 0x00, 0x8C, 0x2F, 0x40, 0x49, 0x80, 0x55, 0x40, 0x00, 0x80, 0x49,
    0x40, 0x00, 0x8C, 0x4E, 0x40, 0x00, 0x8C, 0x42, 0x40, 0x00, 0x8C, 0x47,
    0x40, 0x00, 0x8C, 0x4B, 0x40, 0x18, 0x90, 0x52, 0x4C, 0x00, 0x90, 0x46,
    0x4C, 0x00, 0x81, 0x49, 0x40, 0x00, 0x81, 0x55, 0x40, 0x00, 0x91, 0x46,
    0x54, 0x00, 0x91, 0x52, 0x60, 0x00, 0x92, 0x52, 0x60, 0x00, 0x92, 0x5E,
    0x60, 0x00, 0x8B, 0x3F, 0x40, 0x00, 0x8B, 0x47, 0x40, 0x00, 0x9B, 0x46,
    0x4C, 0x00, 0x9B, 0x3D, 0x4C, 0x00, 0x9C, 0x42, 0x57, 0x00, 0x9C, 0x46,
    0x57, 0x00, 0x9C, 0x49, 0x57, 0x00, 0x9C, 0x4E, 0x57, 0x00, 0x9C, 0x1E,
    0x5B, 0x00, 0x9C, 0x2A, 0x5B, 0x00, 0x8D, 0x23, 0x40, 0x00, 0x8D, 0x2F,
    0x40, 0x00, 0x9D, 0x1E, 0x5B, 0x00, 0x9D, 0x2A, 0x5B, 0x00, 0x89, 0x23,
    0x40, 0x00, 0x89, 0x2A, 0x40, 0x00, 0x99, 0x2A, 0x61, 0x00, 0x99, 0x23,
    0x58, 0x00, 0x8E, 0x23, 0x40, 0x00, 0x9E, 0x1E, 0x5F, 0x78, 0x82, 0x52,
    0x40, 0x00, 0x82, 0x5E, 0x40, 0x77, 0x81, 0x46, 0x40, 0x00, 0x81, 0x52,
    0x40, 0x00, 0x89, 0x2A, 0x40, 0x00, 0x8E, 0x1E, 0x40, 0x02, 0x91, 0x49,
    0x51, 0x00, 0x91, 0x55, 0x60, 0x00, 0x92, 0x52, 0x60, 0x00, 0x92, 0x5E,
    0x60, 0x00, 0x99, 0x2A, 0x61, 0x00, 0x9E, 0x1E, 0x5F, 0x77, 0x82, 0x52,
    0x40, 0x00, 0x82, 0x5E, 0x40, 0x60, 0x80, 0x52, 0x40, 0x00, 0x80, 0x46,
    0x40, 0x00, 0x8C, 0x42, 0x40, 0x00, 0x8C, 0x46, 0x40, 0x00, 0x8C, 0x49,
    0x40, 0x00, 0x8C, 0x4E, 0x40, 0x18, 0x90, 0x52, 0x4C, 0x00, 0x90, 0x46,
    0x4C, 0x00, 0x81, 0x49, 0x40, 0x00, 0x81, 0x55, 0x40, 0x00, 0x91, 0x46,
    0x52, 0x00, 0x91, 0x52, 0x60, 0x00, 0x92, 0x52, 0x60, 0x00, 0x92, 0x5E,
    0x60, 0x00, 0x9C, 0x4E, 0x57, 0x00, 0x9C, 0x42, 0x57, 0x00, 0x9C, 0x46,
    0x57, 0x00, 0x9C, 0x49, 0x57, 0x00, 0x8D, 0x1E, 0x40, 0x00, 0x8D, 0x2A,
    0x40, 0x00, 0x9D, 0x1E, 0x5B, 0x00, 0x9D, 0x2A, 0x5B, 0x00, 0x89, 0x23,
    0x40, 0x00, 0x89, 0x2A, 0x40, 0x00, 0x99, 0x26, 0x59, 0x00, 0x99, 0x2A,
    0x61, 0x00, 0x99, 0x23, 0x56, 0x00, 0x8E, 0x1E, 0x40, 0x00, 0x9E, 0x1E,
    0x5F, 0x78, 0x82, 0x52, 0x40, 0x00, 0x82, 0x5E, 0x40, 0x77, 0x81, 0x46,
    0x40, 0x00, 0x81, 0x52, 0x40, 0x00, 0x89, 0x26, 0x40, 0x00, 0x89, 0x2A,
    0x40, 0x00, 0x8E, 0x1E, 0x40, 0x02, 0x91, 0x49, 0x55, 0x00, 0x91, 0x55,
    0x60, 0x00, 0x92, 0x52, 0x60, 0x00, 0x92, 0x5E, 0x60, 0x00, 0x99, 0x2A,
    0x61, 0x00, 0x9E, 0x1E, 0x5F, 0x77, 0x82, 0x52, 0x40, 0x00, 0x82, 0x5E,
    0x40, 0x60, 0x80, 0x52, 0x40, 0x00, 0x80, 0x46, 0x40, 0x00, 0x8C, 0x4E,
    0x40, 0x00, 0x8C, 0x42, 0x40, 0x00, 0x8C, 0x46, 0x40, 0x00, 0x8C, 0x49,
    0x40, 0x18, 0x81, 0x49, 0x40, 0x00, 0x81, 0x55, 0x40, 0x00, 0x8D, 0x1E,
    0x40, 0x00, 0x8D, 0x2A, 0x40, 0x00, 0x89, 0x23, 0x40, 0x00, 0x89, 0x2A,
    0x40, 0x00, 0x8E, 0x1E, 0x40, 0x01, 0x90, 0x52, 0x4C, 0x00, 0x90, 0x46,
    0x4C, 0x00, 0x91, 0x46, 0x52, 0x00, 0x91, 0x52, 0x60, 0x00, 0x92, 0x52,
    0x60, 0x00, 0x92, 0x5E, 0x60, 0x00, 0x9C, 0x4E, 0x57, 0x00, 0x9C, 0x42,
    0x57, 0x00, 0x9C, 0x46, 0x57, 0x00, 0x9C, 0x49, 0x57, 0x00, 0x9D, 0x1E,
    0x5B, 0x00, 0x9D, 0x2A, 0x5B, 0x00, 0x99, 0x2A, 0x61, 0x00, 0x99, 0x23,
    0x5A, 0x00, 0x9E, 0x1E, 0x5F, 0x77, 0x82, 0x52, 0x40, 0x00, 0x82, 0x5E,
    0x40, 0x77, 0x81, 0x46, 0x40, 0x00, 0x81, 0x52, 0x40, 0x00, 0x89, 0x2A,
    0x40, 0x00, 0x8E, 0x1E, 0x40, 0x02, 0x91, 0x49, 0x54, 0x00, 0x91, 0x55,
    0x60, 0x00, 0x92, 0x52, 0x60, 0x00, 0x92, 0x5E, 0x60, 0x00, 0x99, 0x2A,
    0x61, 0x00, 0x9E, 0x1E, 0x5F, 0x77, 0x82, 0x52, 0x40, 0x00, 0x82, 0x5E,
    0x40, 0x60, 0x80, 0x52, 0x40, 0x00, 0x80, 0x46, 0x40, 0x00, 0x8C, 0x4E,
    0x40, 0x00, 0x8C, 0x42, 0x40, 0x00, 0x8C, 0x46, 0x40, 0x00, 0x8C, 0x49,
    0x40, 0x18, 0x81, 0x49, 0x40, 0x00, 0x81, 0x55, 0x40, 0x00, 0x8D, 0x1E,
    0x40, 0x00, 0x8D, 0x2A, 0x40, 0x00, 0x89, 0x23, 0x40, 0x00, 0x89, 0x2A,
    0x40, 0x00, 0x8E, 0x1E, 0x40, 0x01, 0x90, 0x52, 0x4C, 0x00, 0x90, 0x46,
    0x4C, 0x00, 0x91, 0x46, 0x54, 0x00, 0x91, 0x52, 0x60, 0x00, 0x92, 0x52,
    0x60, 0x00, 0x92, 0x5E, 0x60, 0x00, 0x9C, 0x4E, 0x57, 0x00, 0x9C, 0x42,
    0x57, 0x00, 0x9C, 0x46, 0x57, 0x00, 0x9C, 0x49, 0x57, 0x00, 0x9D, 0x1E,
    0x5B, 0x00, 0x9D, 0x2A, 0x5B, 0x00, 0x99, 0x26, 0x5A, 0x00, 0x99, 0x2A,
    0x61, 0x00, 0x99, 0x23, 0x54, 0x00, 0x9E, 0x1E, 0x5F, 0x58, 0x82, 0x52,
    0x40, 0x00, 0x82, 0x5E, 0x40, 0x5B, 0x92, 0x52, 0x60, 0x00, 0x92, 0x5E,
    0x60, 0x1E, 0x82, 0x52, 0x40, 0x00, 0x82, 0x5E, 0x40, 0x1D, 0x81, 0x46,
    0x40, 0x00, 0x81, 0x52, 0x40, 0x00, 0x89, 0x26, 0x40, 0x00, 0x89, 0x2A,
    0x40, 0x00, 0x8E, 0x1E, 0x40, 0x02, 0x91, 0x44, 0x51, 0x00, 0x91, 0x50,
    0x60, 0x00, 0x92, 0x52, 0x60, 0x00, 0x92, 0x5E, 0x60, 0x00, 0x99, 0x2A,
    0x61, 0x00, 0x9E, 0x1E, 0x5F, 0x3B, 0x82, 0x52, 0x40, 0x00, 0x82, 0x5E,
    0x40, 0x3C, 0x81, 0x44, 0x40, 0x00, 0x81, 0x50, 0x40, 0x00, 0x91, 0x47,
    0x55, 0x00, 0x91, 0x53, 0x60, 0x00, 0x92, 0x52, 0x60, 0x00, 0x92, 0x5E,
    0x60, 0x18, 0x8C, 0x1E, 0x40, 0x00, 0x8C, 0x2A, 0x40, 0x23, 0x82, 0x52,
    0x40, 0x00, 0x82, 0x5E, 0x40, 0x25, 0x80, 0x52, 0x40, 0x00, 0x80, 0x46,
    0x40, 0x00, 0x8C, 0x4E, 0x40, 0x00, 0x8C, 0x42, 0x40, 0x00, 0x8C, 0x46,
    0x40, 0x00, 0x8C, 0x49, 0x40, 0x18, 0x8B, 0x42, 0x40, 0x00, 0x8B, 0x46,
    0x40, 0x00, 0x8D, 0x1E, 0x40, 0x00, 0x8D, 0x2A, 0x40, 0x00, 0x89, 0x23,
    0x40, 0x00, 0x89, 0x2A, 0x40, 0x00, 0x8E, 0x1E, 0x40, 0x01, 0x90, 0x4D,
    0x4C, 0x00, 0x90, 0x41, 0x4C, 0x00, 0x92, 0x4D, 0x60, 0x00, 0x92, 0x59,
    0x60, 0x00, 0x9B, 0x41, 0x4C, 0x00, 0x9B, 0x44, 0x4C, 0x00, 0x9C, 0x44,
    0x57, 0x00, 0x9C, 0x49, 0x57, 0x00, 0x9C, 0x4D, 0x57, 0x00, 0x9C, 0x50,
    0x57, 0x00, 0x9C, 0x25, 0x5B, 0x00, 0x9C, 0x31, 0x5B, 0x00, 0x9D, 0x25,
    0x5B, 0x00, 0x9D, 0x31, 0x5B, 0x00, 0x99, 0x2A, 0x61, 0x00, 0x99, 0x23,
    0x5A, 0x00, 0x9E, 0x25, 0x5F, 0x76, 0x82, 0x4D, 0x40, 0x00, 0x82, 0x59,
    0x40, 0x78, 0x89, 0x2A, 0x40, 0x00, 0x8E, 0x25, 0x40, 0x02, 0x92, 0x4D,
    0x60, 0x00, 0x92, 0x59, 0x60, 0x00, 0x99, 0x2A, 0x61, 0x00, 0x9E, 0x25,
    0x5F, 0x77, 0x82, 0x4D, 0x40, 0x00, 0x82, 0x59, 0x40, 0x60, 0x80, 0x4D,
    0x40, 0x00, 0x80, 0x41, 0x40, 0x00, 0x8C, 0x44, 0x40, 0x00, 0x8C, 0x49,
    0x40, 0x00, 0x8C, 0x4D, 0x40, 0x00, 0x8C, 0x50, 0x40, 0x18, 0x8D, 0x25,
    0x40, 0x00, 0x8D, 0x31, 0x40, 0x00, 0x89, 0x23, 0x40, 0x00, 0x89, 0x2A,
    0x40, 0x00, 0x8E, 0x25, 0x40, 0x01, 0x90, 0x4D, 0x4C, 0x00, 0x90, 0x41,
    0x4C, 0x00, 0x92, 0x4D, 0x60, 0x00, 0x92, 0x59, 0x60, 0x00, 0x9C, 0x50,
    0x57, 0x00, 0x9C, 0x44, 0x57, 0x00, 0x9C, 0x49, 0x57, 0x00, 0x9C, 0x4D,
    0x57, 0x00, 0x9D, 0x25, 0x5B, 0x00, 0x9D, 0x31, 0x5B, 0x00, 0x99, 0x26,
    0x5A, 0x00, 0x99, 0x2A, 0x61, 0x00, 0x99, 0x23, 0x58, 0x00, 0x9E, 0x25,
    0x5F, 0x76, 0x82, 0x4D, 0x40, 0x00, 0x82, 0x59, 0x40, 0x78, 0x81, 0x47,
    0x40, 0x00, 0x81, 0x53, 0x40, 0x00, 0x89, 0x26, 0x40, 0x00, 0x89, 0x2A,
    0x40, 0x00, 0x8E, 0x25, 0x40, 0x02, 0x91, 0x41, 0x58, 0x00, 0x91, 0x4D,
    0x60, 0x00, 0x92, 0x4D, 0x60, 0x00, 0x92, 0x59, 0x60, 0x00, 0x99, 0x2A,
    0x61, 0x00, 0x9E, 0x25, 0x5F, 0x77, 0x82, 0x4D, 0x40, 0x00, 0x82, 0x59,
    0x40, 0x60, 0x80, 0x4D, 0x40, 0x00, 0x80, 0x41, 0x40, 0x00, 0x8C, 0x50,
    0x40, 0x00, 0x8C, 0x44, 0x40, 0x00, 0x8C, 0x49, 0x40, 0x00, 0x8C, 0x4D,
    0x40, 0x18, 0x81, 0x41, 0x40, 0x00, 0x81, 0x4D, 0x40, 0x00, 0x8D, 0x25,
    0x40, 0x00, 0x8D, 0x31, 0x40, 0x00, 0x89, 0x23, 0x40, 0x00, 0x89, 0x2A,
    0x40, 0x00, 0x8E, 0x25, 0x40, 0x01, 0x90, 0x4D, 0x4C, 0x00, 0x90, 0x41,
    0x4C, 0x00, 0x91, 0x47, 0x61, 0x00, 0x91, 0x53, 0x60, 0x00, 0x92, 0x4D,
    0x60, 0x00, 0x92, 0x59, 0x60, 0x00, 0x9C, 0x50, 0x57, 0x00, 0x9C, 0x44,
    0x57, 0x00, 0x9C, 0x49, 0x57, 0x00, 0x9C, 0x4D, 0x57, 0x00, 0x9D, 0x25,
    0x5B, 0x00, 0x9D, 0x31, 0x5B, 0x00, 0x99, 0x26, 0x5A, 0x00, 0x99, 0x2B,
    0x5C, 0x00, 0x9E, 0x25, 0x5F, 0x76, 0x82, 0x4D, 0x40, 0x00, 0x82, 0x59,
    0x40, 0x79, 0x89, 0x26, 0x40, 0x00, 0x8E, 0x25, 0x40, 0x01, 0x92, 0x4D,
    0x60, 0x00, 0x92, 0x59, 0x60, 0x00, 0x99, 0x26, 0x5A, 0x00, 0x99, 0x2D,
    0x5A, 0x00, 0x9E, 0x25, 0x5F, 0x77, 0x82, 0x4D, 0x40, 0x00, 0x82, 0x59,
    0x40, 0x5F, 0x80, 0x4D, 0x40, 0x00, 0x80, 0x41, 0x40, 0x00, 0x8C, 0x50,
    0x40, 0x00, 0x8C, 0x44, 0x40, 0x00, 0x8C, 0x49, 0x40, 0x00, 0x8C, 0x4D,
    0x40, 0x19, 0x81, 0x47, 0x40, 0x00, 0x81, 0x53, 0x40, 0x00, 0x8D, 0x25,
    0x40, 0x00, 0x8D, 0x31, 0x40, 0x00, 0x89, 0x2B, 0x40, 0x00, 0x89, 0x26,
    0x40, 0x00, 0x89, 0x2D, 0x40, 0x00, 0x8E, 0x25, 0x40, 0x01, 0x90, 0x4D,
    0x4C, 0x00, 0x90, 0x41, 0x4C, 0x00, 0x91, 0x46, 0x57, 0x00, 0x91, 0x52,
    0x60, 0x00, 0x92, 0x4B, 0x60, 0x00, 0x92, 0x57, 0x60, 0x00, 0x9C, 0x50,
    0x57, 0x00, 0x9C, 0x44, 0x57, 0x00, 0x9C, 0x49, 0x57, 0x00, 0x9C, 0x4D,
    0x57, 0x00, 0x9D, 0x25, 0x5B, 0x00, 0x9D, 0x31, 0x5B, 0x00, 0x99, 0x26,
    0x57, 0x00, 0x99, 0x30, 0x5A, 0x00, 0x9E, 0x25, 0x5F, 0x76, 0x82, 0x4B,
    0x40, 0x00, 0x82, 0x57, 0x40, 0x00, 0x89, 0x26, 0x40, 0x00, 0x89, 0x30,
    0x40, 0x02, 0x99, 0x26, 0x57, 0x00, 0x99, 0x2F, 0x5B, 0x77, 0x92, 0x4D,
    0x60, 0x00, 0x92, 0x59, 0x60, 0x00, 0x89, 0x26, 0x40, 0x00, 0x89, 0x2F,
    0x40, 0x00, 0x99, 0x26, 0x56, 0x00, 0x99, 0x2D, 0x5B, 0x00, 0x8E, 0x25,
    0x40, 0x00, 0x9E, 0x25, 0x5F, 0x78, 0x82, 0x4D, 0x40, 0x00, 0x82, 0x59,
    0x40, 0x00, 0x89, 0x26, 0x40, 0x00, 0x89, 0x2D, 0x40, 0x00, 0x99, 0x26,
    0x51, 0x00, 0x99, 0x2B, 0x5B, 0x18, 0x8C, 0x25, 0x40, 0x00, 0x8C, 0x31,
    0x40, 0x47, 0x80, 0x4D, 0x40, 0x00, 0x80, 0x41, 0x40, 0x00, 0x8C, 0x50,
    0x40, 0x00, 0x8C, 0x44, 0x40, 0x00, 0x8C, 0x49, 0x40, 0x00, 0x8C, 0x4D,
    0x40, 0x19, 0x8B, 0x3D, 0x40, 0x00, 0x8B, 0x41, 0x40, 0x00, 0x8B, 0x44,
    0x40, 0x00, 0x8D, 0x25, 0x40, 0x00, 0x8D, 0x31, 0x40, 0x00, 0x89, 0x26,
    0x40, 0x00, 0x89, 0x2B, 0x40, 0x00, 0x8E, 0x25, 0x40, 0x01, 0x90, 0x4E,
    0x4C, 0x00, 0x90, 0x42, 0x4C, 0x00, 0x92, 0x4E, 0x60, 0x00, 0x92, 0x5A,
    0x60, 0x00, 0x9B, 0x46, 0x4C, 0x00, 0x9B, 0x3F, 0x4C, 0x00, 0x9B, 0x42,
    0x4C, 0x00, 0x9C, 0x42, 0x57, 0x00, 0x9C, 0x46, 0x57, 0x00, 0x9C, 0x4B,
    0x57, 0x00, 0x9C, 0x4E, 0x57, 0x00, 0x9C, 0x27, 0x5B, 0x00, 0x9C, 0x33,
    0x5B, 0x00, 0x9D, 0x27, 0x5B, 0x00, 0x9D, 0x33, 0x5B, 0x00, 0x99, 0x2A,
    0x61, 0x00, 0x99, 0x31, 0x53, 0x00, 0x99, 0x23, 0x54, 0x00, 0x9E, 0x27,
    0x5F, 0x76, 0x82, 0x4E, 0x40, 0x00, 0x82, 0x5A, 0x40, 0x79, 0x92, 0x4E,
    0x60, 0x00, 0x92, 0x5A, 0x60, 0x00, 0x89, 0x2A, 0x40, 0x00, 0x89, 0x31,
    0x40, 0x00, 0x99, 0x2A, 0x61, 0x00, 0x8E, 0x27, 0x40, 0x00, 0x9E, 0x27,
    0x5F, 0x78, 0x82, 0x4E, 0x40, 0x00, 0x82, 0x5A, 0x40, 0x5F, 0x80, 0x4E,
    0x40, 0x00, 0x80, 0x42, 0x40, 0x00, 0x8C, 0x42, 0x40, 0x00, 0x8C, 0x46,
    0x40, 0x00, 0x8C, 0x4B, 0x40, 0x00, 0x8C, 0x4E, 0x40, 0x19, 0x8D, 0x27,
    0x40, 0x00, 0x8D, 0x33, 0x40, 0x00, 0x89, 0x23, 0x40, 0x00, 0x89, 0x2A,
    0x40, 0x00, 0x8E, 0x27, 0x40, 0x01, 0x90, 0x4E, 0x4C, 0x00, 0x90, 0x42,
    0x4C, 0x00, 0x92, 0x4E, 0x60, 0x00, 0x92, 0x5A, 0x60, 0x00, 0x9C, 0x4E,
    0x57, 0x00, 0x9C, 0x42, 0x57, 0x00, 0x9C, 0x46, 0x57, 0x00, 0x9C, 0x4B,
    0x57, 0x00, 0x9D, 0x27, 0x5B, 0x00, 0x9D, 0x33, 0x5B, 0x00, 0x99, 0x26,
    0x5B, 0x00, 0x99, 0x2A, 0x61, 0x00, 0x99, 0x23, 0x55, 0x00, 0x9E, 0x27,
    0x5F, 0x76, 0x82, 0x4E, 0x40, 0x00, 0x82, 0x5A, 0x40, 0x79, 0x92, 0x4E,
    0x60, 0x00, 0x92, 0x5A, 0x60, 0x00, 0x89, 0x26, 0x40, 0x00, 0x89, 0x2A,
    0x40, 0x00, 0x99, 0x2A, 0x61, 0x00, 0x8E, 0x27, 0x40, 0x00, 0x9E, 0x27,
    0x5F, 0x78, 0x82, 0x4E, 0x40, 0x00, 0x82, 0x5A, 0x40, 0x5F, 0x80, 0x4E,
    0x40, 0x00, 0x80, 0x42, 0x40, 0x00, 0x8C, 0x4E, 0x40, 0x00, 0x8C, 0x42,
    0x40, 0x00, 0x8C, 0x46, 0x40, 0x00, 0x8C, 0x4B, 0x40, 0x19, 0x8D, 0x27,
    0x40, 0x00, 0x8D, 0x33, 0x40, 0x00, 0x89, 0x23, 0x40, 0x00, 0x89, 0x2A,
    0x40, 0x00, 0x8E, 0x27, 0x40, 0x01, 0x90, 0x4E, 0x4C, 0x00, 0x90, 0x42,
    0x4C, 0x00, 0x92, 0x52, 0x60, 0x00, 0x92, 0x5E, 0x60, 0x00, 0x9C, 0x4E,
    0x57, 0x00, 0x9C, 0x42, 0x57, 0x00, 0x9C, 0x46, 0x57, 0x00, 0x9C, 0x4B,
    0x57, 0x00, 0x9D, 0x27, 0x5B, 0x00, 0x9D, 0x33, 0x5B, 0x00, 0x99, 0x2A,
    0x61, 0x00, 0x99, 0x23, 0x57, 0x00, 0x9E, 0x27, 0x5F, 0x76, 0x82, 0x52,
    0x40, 0x00, 0x82, 0x5E, 0x40, 0x79, 0x92, 0x52, 0x60, 0x00, 0x92, 0x5E,
    0x60, 0x00, 0x89, 0x2A, 0x40, 0x00, 0x99, 0x2A, 0x61, 0x00, 0x8E, 0x27,
    0x40, 0x00, 0x9E, 0x27, 0x5F, 0x78, 0x82, 0x52, 0x40, 0x00, 0x82, 0x5E,
    0x40, 0x5F, 0x80, 0x4E, 0x40, 0x00, 0x80, 0x42, 0x40, 0x00, 0x8C, 0x4E,
    0x40, 0x00, 0x8C, 0x42, 0x40, 0x00, 0x8C, 0x46, 0x40, 0x00, 0x8C, 0x4B,
    0x40, 0x18, 0x8D, 0x27, 0x40, 0x00, 0x8D, 0x33, 0x40, 0x00, 0x89, 0x23,
    0x40, 0x00, 0x89, 0x2A, 0x40, 0x00, 0x8E, 0x27, 0x40, 0x02, 0x90, 0x52,
    0x4C, 0x00, 0x90, 0x46, 0x4C, 0x00, 0x92, 0x5A, 0x60, 0x00, 0x92, 0x66,
    0x60, 0x00, 0x9C, 0x52, 0x57, 0x00, 0x9C, 0x46, 0x57, 0x00, 0x9C, 0x4B,
    0x57, 0x00, 0x9C, 0x4E, 0x57, 0x00, 0x9D, 0x27, 0x5B, 0x00, 0x9D, 0x33,
    0x5B, 0x00, 0x99, 0x26, 0x57, 0x00, 0x99, 0x2A, 0x61, 0x00, 0x99, 0x23,
    0x55, 0x00, 0x9E, 0x27, 0x5F, 0x59, 0x82, 0x5A, 0x40, 0x00, 0x82, 0x66,
    0x40, 0x5B, 0x92, 0x5A, 0x60, 0x00, 0x92, 0x66, 0x60, 0x1D, 0x82, 0x5A,
    0x40, 0x00, 0x82, 0x66, 0x40, 0x1E, 0x92, 0x59, 0x60, 0x00, 0x92, 0x65,
    0x60, 0x00, 0x89, 0x26, 0x40, 0x00, 0x89, 0x2A, 0x40, 0x00, 0x99, 0x2A,
    0x61, 0x00, 0x8E, 0x27, 0x40, 0x00, 0x9E, 0x27, 0x5F, 0x5A, 0x82, 0x59,
    0x40, 0x00, 0x82, 0x65, 0x40, 0x36, 0x8C, 0x27, 0x40, 0x00, 0x8C, 0x33,
    0x40, 0x24, 0x92, 0x59, 0x60, 0x00, 0x92, 0x65, 0x60, 0x1D, 0x82, 0x59,
    0x40, 0x00, 0x82, 0x65, 0x40, 0x06, 0x80, 0x52, 0x40, 0x00, 0x80, 0x46,
    0x40, 0x00, 0x8C, 0x52, 0x40, 0x00, 0x8C, 0x46, 0x40, 0x00, 0x8C, 0x4B,
    0x40, 0x00, 0x8C, 0x4E, 0x40, 0x18, 0x8B, 0x46, 0x40, 0x00, 0x8D, 0x27,
    0x40, 0x00, 0x8D, 0x33, 0x40, 0x00, 0x89, 0x23, 0x40, 0x00, 0x89, 0x2A,
    0x40, 0x00, 0x8E, 0x27, 0x40, 0x02, 0x90, 0x57, 0x4C, 0x00, 0x90, 0x4B,
    0x4C, 0x00, 0x92, 0x57, 0x60, 0x00, 0x92, 0x63, 0x60, 0x00, 0x9B, 0x47,
    0x4C, 0x00, 0x9B, 0x4B, 0x4C, 0x00, 0x9C, 0x47, 0x57, 0x00, 0x9C, 0x4B,
    0x57, 0x00, 0x9C, 0x4E, 0x57, 0x00, 0x9C, 0x53, 0x57, 0x00, 0x9C, 0x23,
    0x5B, 0x00, 0x9C, 0x2F, 0x5B, 0x00, 0x9D, 0x23, 0x5B, 0x00, 0x9D, 0x2F,
    0x5B, 0x00, 0x99, 0x2A, 0x61, 0x00, 0x99, 0x23, 0x57, 0x00, 0x9E, 0x23,
    0x5F, 0x76, 0x82, 0x57, 0x40, 0x00, 0x82, 0x63, 0x40, 0x79, 0x92, 0x57,
    0x60, 0x00, 0x92, 0x63, 0x60, 0x00, 0x89, 0x2A, 0x40, 0x00, 0x99, 0x2A,
    0x61, 0x00, 0x8E, 0x23, 0x40, 0x00, 0x9E, 0x23, 0x5F, 0x78, 0x82, 0x57,
    0x40, 0x00, 0x82, 0x63, 0x40, 0x5F, 0x80, 0x57, 0x40, 0x00, 0x80, 0x4B,
    0x40, 0x00, 0x8C, 0x47, 0x40, 0x00, 0x8C, 0x4B, 0x40, 0x00, 0x8C, 0x4E,
    0x40, 0x00, 0x8C, 0x53, 0x40, 0x18, 0x8D, 0x23, 0x40, 0x00, 0x8D, 0x2F,
    0x40, 0x00, 0x89, 0x23, 0x40, 0x00, 0x89, 0x2A, 0x40, 0x00, 0x8E, 0x23,
    0x40, 0x02, 0x90, 0x57, 0x4C, 0x00, 0x90, 0x4B, 0x4C, 0x00, 0x92, 0x57,
    0x60, 0x00, 0x92, 0x63, 0x60, 0x00, 0x9C, 0x53, 0x57, 0x00, 0x9C, 0x47,
    0x57, 0x00, 0x9C, 0x4B, 0x57, 0x00, 0x9C, 0x4E, 0x57, 0x00, 0x9D, 0x23,
    0x5B, 0x00, 0x9D, 0x2F, 0x5B, 0x00, 0x99, 0x26, 0x58, 0x00, 0x99, 0x2A,
    0x61, 0x00, 0x99, 0x23, 0x57, 0x00, 0x9E, 0x23, 0x5F, 0x77, 0x82, 0x57,
    0x40, 0x00, 0x82, 0x63, 0x40, 0x78, 0x81, 0x46, 0x40, 0x00, 0x81, 0x52,
    0x40, 0x00, 0x91, 0x42, 0x55, 0x00, 0x91, 0x4E, 0x60, 0x00, 0x92, 0x57,
    0x60, 0x00, 0x92, 0x63, 0x60, 0x00, 0x89, 0x26, 0x40, 0x00, 0x89, 0x2A,
    0x40, 0x00, 0x99, 0x2A, 0x61, 0x00, 0x8E, 0x23, 0x40, 0x00, 0x9E, 0x23,
    0x5F, 0x78, 0x82, 0x57, 0x40, 0x00, 0x82, 0x63, 0x40, 0x5F, 0x80, 0x57,
    0x40, 0x00, 0x80, 0x4B, 0x40, 0x00, 0x8C, 0x53, 0x40, 0x00, 0x8C, 0x47,
    0x40, 0x00, 0x8C, 0x4B, 0x40, 0x00, 0x8C, 0x4E, 0x40, 0x18, 0x81, 0x42,
    0x40, 0x00, 0x81, 0x4E, 0x40, 0x00, 0x8D, 0x23, 0x40, 0x00, 0x8D, 0x2F,
    0x40, 0x00, 0x89, 0x23, 0x40, 0x00, 0x89, 0x2A, 0x40, 0x00, 0x8E, 0x23,
    0x40, 0x02, 0x90, 0x57, 0x4C, 0x00, 0x90, 0x4B, 0x4C, 0x00, 0x91, 0x47,
    0x54, 0x00, 0x91, 0x53, 0x60, 0x00, 0x92, 0x55, 0x60, 0x00, 0x92, 0x61,
    0x60, 0x00, 0x9C, 0x53, 0x57, 0x00, 0x9C, 0x47, 0x57, 0x00, 0x9C, 0x4B,
    0x57, 0x00, 0x9C, 0x4E, 0x57, 0x00, 0x9D, 0x23, 0x5B, 0x00, 0x9D, 0x2F,
    0x5B, 0x00, 0x99, 0x2A, 0x61, 0x00, 0x99, 0x23, 0x55, 0x00, 0x9E, 0x23,
    0x5F, 0x77, 0x82, 0x55, 0x40, 0x00, 0x82, 0x61, 0x40, 0x78, 0x92, 0x55,
    0x60, 0x00, 0x92, 0x61, 0x60, 0x00, 0x89, 0x2A, 0x40, 0x00, 0x99, 0x2A,
    0x61, 0x00, 0x8E, 0x23, 0x40, 0x00, 0x9E, 0x23, 0x5F, 0x78, 0x82, 0x55,
    0x40, 0x00, 0x82, 0x61, 0x40, 0x5F, 0x80, 0x57, 0x40, 0x00, 0x80, 0x4B,
    0x40, 0x00, 0x8C, 0x53, 0x40, 0x00, 0x8C, 0x47, 0x40, 0x00, 0x8C, 0x4B,
    0x40, 0x00, 0x8C, 0x4E, 0x40, 0x18, 0x81, 0x47, 0x40, 0x00, 0x81, 0x53,
    0x40, 0x00, 0x8D, 0x23, 0x40, 0x00, 0x8D, 0x2F, 0x40, 0x00, 0x89, 0x23,
    0x40, 0x00, 0x89, 0x2A, 0x40, 0x00, 0x8E, 0x23, 0x40, 0x02, 0x90, 0x55,
    0x4C, 0x00, 0x90, 0x49, 0x4C, 0x00, 0x91, 0x46, 0x5A, 0x00, 0x91, 0x52,
    0x60, 0x00, 0x92, 0x50, 0x60, 0x00, 0x92, 0x5C, 0x60, 0x00, 0x9C, 0x4E,
    0x57, 0x00, 0x9C, 0x42, 0x57, 0x00, 0x9C, 0x47, 0x57, 0x00, 0x9C, 0x4B,
    0x57, 0x00, 0x9D, 0x23, 0x5B, 0x00, 0x9D, 0x2F, 0x5B, 0x00, 0x99, 0x26,
    0x57, 0x00, 0x99, 0x2A, 0x61, 0x00, 0x99, 0x23, 0x54, 0x00, 0x9E, 0x23,
    0x5F, 0x77, 0x82, 0x50, 0x40, 0x00, 0x82, 0x5C, 0x40, 0x78, 0x89, 0x26,
    0x40, 0x00, 0x89, 0x2A, 0x40, 0x00, 0x8E, 0x23, 0x40, 0x01, 0x92, 0x50,
    0x60, 0x00, 0x92, 0x5C, 0x60, 0x00, 0x99, 0x2A, 0x61, 0x00, 0x9E, 0x23,
    0x5F, 0x77, 0x82, 0x50, 0x40, 0x00, 0x82, 0x5C, 0x40, 0x18, 0x8C, 0x23,
    0x40, 0x00, 0x8C, 0x2F, 0x40, 0x48, 0x80, 0x55, 0x40, 0x00, 0x80, 0x49,
    0x40, 0x00, 0x8C, 0x4E, 0x40, 0x00, 0x8C, 0x42, 0x40, 0x00, 0x8C, 0x47,
    0x40, 0x00, 0x8C, 0x4B, 0x40, 0x17, 0x8B, 0x3F, 0x40, 0x00, 0x8B, 0x47,
    0x40, 0x00, 0x8B, 0x4B, 0x40, 0x00, 0x8D, 0x23, 0x40, 0x00, 0x8D, 0x2F,
    0x40, 0x00, 0x89, 0x23, 0x40, 0x00, 0x89, 0x2A, 0x40, 0x00, 0x8E, 0x23,
    0x40, 0x02, 0x90, 0x52, 0x4C, 0x00, 0x90, 0x46, 0x4C, 0x00, 0x92, 0x52,
    0x60, 0x00, 0x92, 0x5E, 0x60, 0x00, 0x9B, 0x46, 0x4C, 0x00, 0x9B, 0x3D,
    0x4C, 0x00, 0x9B, 0x49, 0x4C, 0x00, 0x9C, 0x42, 0x57, 0x00, 0x9C, 0x46,
    0x57, 0x00, 0x9C, 0x49, 0x57, 0x00, 0x9C, 0x4E, 0x57, 0x00, 0x9C, 0x1E,
    0x5B, 0x00, 0x9C, 0x2A, 0x5B, 0x00, 0x9D, 0x1E, 0x5B, 0x00, 0x9D, 0x2A,
    0x5B, 0x00, 0x99, 0x2A, 0x60, 0x00, 0x99, 0x23, 0x58, 0x00, 0x9E, 0x1E,
    0x5F, 0x77, 0x82, 0x52, 0x40, 0x00, 0x82, 0x5E, 0x40, 0x78, 0x89, 0x2A,
    0x40, 0x00, 0x8E, 0x1E, 0x40, 0x01, 0x92, 0x52, 0x60, 0x00, 0x92, 0x5E,
    0x60, 0x00, 0x99, 0x2A, 0x60, 0x00, 0x9E, 0x1E, 0x5F, 0x77, 0x82, 0x52,
    0x40, 0x00, 0x82, 0x5E, 0x40, 0x60, 0x80, 0x52, 0x40, 0x00, 0x80, 0x46,
    0x40, 0x00, 0x8C, 0x42, 0x40, 0x00, 0x8C, 0x46, 0x40, 0x00, 0x8C, 0x49,
    0x40, 0x00, 0x8C, 0x4E, 0x40, 0x17, 0x8D, 0x1E, 0x40, 0x00, 0x8D, 0x2A,
    0x40, 0x00, 0x89, 0x23, 0x40, 0x00, 0x89, 0x2A, 0x40, 0x00, 0x8E, 0x1E,
    0x40, 0x02, 0x90, 0x52, 0x4C, 0x00, 0x90, 0x46, 0x4C, 0x00, 0x92, 0x52,
    0x60, 0x00, 0x92, 0x5E, 0x60, 0x00, 0x9C, 0x4E, 0x57, 0x00, 0x9C, 0x42,
    0x57, 0x00, 0x9C, 0x46, 0x57, 0x00, 0x9C, 0x49, 0x57, 0x00, 0x9D, 0x1E,
    0x5B, 0x00, 0x9D, 0x2A, 0x5B, 0x00, 0x99, 0x26, 0x60, 0x00, 0x99, 0x2A,
    0x60, 0x00, 0x99, 0x23, 0x52, 0x00, 0x9E, 0x1E, 0x5F, 0x77, 0x82, 0x52,
    0x40, 0x00, 0x82, 0x5E, 0x40, 0x78, 0x89, 0x26, 0x40, 0x00, 0x89, 0x2A,
    0x40, 0x00, 0x8E, 0x1E, 0x40, 0x01, 0x92, 0x52, 0x60, 0x00, 0x92, 0x5E,
    0x60, 0x00, 0x99, 0x2A, 0x60, 0x00, 0x9E, 0x1E, 0x5F, 0x76, 0x82, 0x52,
    0x40, 0x00, 0x82, 0x5E, 0x40, 0x61, 0x80, 0x52, 0x40, 0x00, 0x80, 0x46,
    0x40, 0x00, 0x8C, 0x4E, 0x40, 0x00, 0x8C, 0x42, 0x40, 0x00, 0x8C, 0x46,
    0x40, 0x00, 0x8C, 0x49, 0x40, 0x17, 0x8D, 0x1E, 0x40, 0x00, 0x8D, 0x2A,
    0x40, 0x00, 0x89, 0x23, 0x40, 0x00, 0x89, 0x2A, 0x40, 0x00, 0x8E, 0x1E,
    0x40, 0x02, 0x90, 0x52, 0x4C, 0x00, 0x90, 0x46, 0x4C, 0x00, 0x92, 0x55,
    0x60, 0x00, 0x92, 0x61, 0x60, 0x00, 0x9C, 0x4E, 0x57, 0x00, 0x9C, 0x42,
    0x57, 0x00, 0x9C, 0x46, 0x57, 0x00, 0x9C, 0x49, 0x57, 0x00, 0x9D, 0x1E,
    0x5B, 0x00, 0x9D, 0x2A, 0x5B, 0x00, 0x99, 0x2A, 0x60, 0x00, 0x99, 0x23,
    0x5B, 0x00, 0x9E, 0x1E, 0x5F, 0x77, 0x82, 0x55, 0x40, 0x00, 0x82, 0x61,
    0x40, 0x78, 0x89, 0x2A, 0x40, 0x00, 0x8E, 0x1E, 0x40, 0x01, 0x92, 0x53,
    0x60, 0x00, 0x92, 0x5F, 0x60, 0x00, 0x99, 0x2A, 0x60, 0x00, 0x9E, 0x1E,
    0x5F, 0x76, 0x82, 0x53, 0x40, 0x00, 0x82, 0x5F, 0x40, 0x61, 0x80, 0x52,
    0x40, 0x00, 0x80, 0x46, 0x40, 0x00, 0x8C, 0x4E, 0x40, 0x00, 0x8C, 0x42,
    0x40, 0x00, 0x8C, 0x46, 0x40, 0x00, 0x8C, 0x49, 0x40, 0x17, 0x8D, 0x1E,
    0x40, 0x00, 0x8D, 0x2A, 0x40, 0x00, 0x89, 0x23, 0x40, 0x00, 0x89, 0x2A,
    0x40, 0x00, 0x8E, 0x1E, 0x40, 0x02, 0x90, 0x52, 0x4C, 0x00, 0x90, 0x46,
    0x4C, 0x00, 0x92, 0x52, 0x60, 0x00, 0x92, 0x5E, 0x60, 0x00, 0x9C, 0x4E,
    0x57, 0x00, 0x9C, 0x42, 0x57, 0x00, 0x9C, 0x46, 0x57, 0x00, 0x9C, 0x49,
    0x57, 0x00, 0x9D, 0x1E, 0x5B, 0x00, 0x9D, 0x2A, 0x5B, 0x00, 0x99, 0x26,
    0x60, 0x00, 0x99, 0x2A, 0x60, 0x00, 0x99, 0x23, 0x5B, 0x00, 0x9E, 0x1E,
    0x5F, 0x77, 0x82, 0x52, 0x40, 0x00, 0x82, 0x5E, 0x40, 0x78, 0x81, 0x46,
    0x40, 0x00, 0x81, 0x52, 0x40, 0x00, 0x89, 0x26, 0x40, 0x00, 0x89, 0x2A,
    0x40, 0x00, 0x8E, 0x1E, 0x40, 0x01, 0x91, 0x42, 0x60, 0x00, 0x91, 0x4E,
    0x60, 0x00, 0x92, 0x4E, 0x60, 0x00, 0x92, 0x5A, 0x60, 0x00, 0x99, 0x2A,
    0x60, 0x00, 0x9E, 0x1E, 0x5F, 0x58, 0x82, 0x4E, 0x40, 0x00, 0x82, 0x5A,
    0x40, 0x37, 0x8C, 0x1E, 0x40, 0x00, 0x8C, 0x2A, 0x40, 0x25, 0x92, 0x4D,
    0x60, 0x00, 0x92, 0x59, 0x60, 0x1D, 0x82, 0x4D, 0x40, 0x00, 0x82, 0x59,
    0x40, 0x06, 0x80, 0x52, 0x40, 0x00, 0x80, 0x46, 0x40, 0x00, 0x8C, 0x4E,
    0x40, 0x00, 0x8C, 0x42, 0x40, 0x00, 0x8C, 0x46, 0x40, 0x00, 0x8C, 0x49,
    0x40, 0x18, 0x81, 0x42, 0x40, 0x00, 0x81, 0x4E, 0x40, 0x00, 0x8B, 0x42,
    0x40, 0x00, 0x8B, 0x46, 0x40, 0x00, 0x8D, 0x1E, 0x40, 0x00, 0x8D, 0x2A,
    0x40, 0x00, 0x89, 0x23, 0x40, 0x00, 0x89, 0x2A, 0x40, 0x00, 0x8E, 0x1E,
    0x40, 0x01, 0x90, 0x4D, 0x4C, 0x00, 0x90, 0x41, 0x4C, 0x00, 0x91, 0x41,
    0x5A, 0x00, 0x91, 0x4D, 0x60, 0x00, 0x92, 0x4D, 0x60, 0x00, 0x92, 0x59,
    0x60, 0x00, 0x9B, 0x41, 0x4C, 0x00, 0x9B, 0x44, 0x4C, 0x00, 0x9C, 0x44,
    0x57, 0x00, 0x9C, 0x49, 0x57, 0x00, 0x9C, 0x4D, 0x57, 0x00, 0x9C, 0x50,
    0x57, 0x00, 0x9C, 0x25, 0x5B, 0x00, 0x9C, 0x31, 0x5B, 0x00, 0x9D, 0x25,
    0x5B, 0x00, 0x9D, 0x31, 0x5B, 0x00, 0x99, 0x2A, 0x60, 0x00, 0x99, 0x23,
    0x5B, 0x00, 0x9E, 0x25, 0x5F, 0x77, 0x82, 0x4D, 0x40, 0x00, 0x82, 0x59,
    0x40, 0x78, 0x89, 0x2A, 0x40, 0x00, 0x8E, 0x25, 0x40, 0x01, 0x92, 0x4D,
    0x60, 0x00, 0x92, 0x59, 0x60, 0x00, 0x99, 0x2A, 0x60, 0x00, 0x9E, 0x25,
    0x5F, 0x76, 0x82, 0x4D, 0x40, 0x00, 0x82, 0x59, 0x40, 0x61, 0x80, 0x4D,
    0x40, 0x00, 0x80, 0x41, 0x40, 0x00, 0x8C, 0x44, 0x40, 0x00, 0x8C, 0x49,
    0x40, 0x00, 0x8C, 0x4D, 0x40, 0x00, 0x8C, 0x50, 0x40, 0x18, 0x90, 0x4D,
    0x4C, 0x00, 0x90, 0x41, 0x4C, 0x00, 0x92, 0x4D, 0x60, 0x00, 0x92, 0x59,
    0x60, 0x00, 0x9C, 0x50, 0x57, 0x00, 0x9C, 0x44, 0x57, 0x00, 0x9C, 0x49,
    0x57, 0x00, 0x9C, 0x4D, 0x57, 0x00, 0x8D, 0x25, 0x40, 0x00, 0x8D, 0x31,
    0x40, 0x00, 0x9D, 0x25, 0x5B, 0x00, 0x9D, 0x31, 0x5B, 0x00, 0x89, 0x23,
    0x40, 0x00, 0x89, 0x2A, 0x40, 0x00, 0x99, 0x26, 0x60, 0x00, 0x99, 0x2A,
    0x60, 0x00, 0x99, 0x23, 0x5B, 0x00, 0x8E, 0x25, 0x40, 0x00, 0x9E, 0x25,
    0x5F, 0x78, 0x82, 0x4D, 0x40, 0x00, 0x82, 0x59, 0x40, 0x78, 0x81, 0x41,
    0x40, 0x00, 0x81, 0x4D, 0x40, 0x00, 0x89, 0x26, 0x40, 0x00, 0x89, 0x2A,
    0x40, 0x00, 0x8E, 0x25, 0x40, 0x01, 0x91, 0x3D, 0x54, 0x00, 0x91, 0x49,
    0x60, 0x00, 0x92, 0x4D, 0x60, 0x00, 0x92, 0x59, 0x60, 0x00, 0x99, 0x2A,
    0x60, 0x00, 0x9E, 0x25, 0x5F, 0x76, 0x82, 0x4D, 0x40, 0x00, 0x82, 0x59,
    0x40, 0x61, 0x80, 0x4D, 0x40, 0x00, 0x80, 0x41, 0x40, 0x00, 0x8C, 0x50,
    0x40, 0x00, 0x8C, 0x44, 0x40, 0x00, 0x8C, 0x49, 0x40, 0x00, 0x8C, 0x4D,
    0x40, 0x18, 0x90, 0x4D, 0x4C, 0x00, 0x90, 0x41, 0x4C, 0x00, 0x81, 0x3D,
    0x40, 0x00, 0x81, 0x49, 0x40, 0x00, 0x91, 0x47, 0x52, 0x00, 0x91, 0x53,
    0x60, 0x00, 0x92, 0x50, 0x60, 0x00, 0x92, 0x5C, 0x60, 0x00, 0x9C, 0x50,
    0x57, 0x00, 0x9C, 0x44, 0x57, 0x00, 0x9C, 0x49, 0x57, 0x00, 0x9C, 0x4D,
    0x57, 0x00, 0x8D, 0x25, 0x40, 0x00, 0x8D, 0x31, 0x40, 0x00, 0x9D, 0x25,
    0x5B, 0x00, 0x9D, 0x31, 0x5B, 0x00, 0x89, 0x23, 0x40, 0x00, 0x89, 0x2A,
    0x40, 0x00, 0x99, 0x2A, 0x60, 0x00, 0x99, 0x23, 0x5B, 0x00, 0x8E, 0x25,
    0x40, 0x00, 0x9E, 0x25, 0x5F, 0x78, 0x82, 0x50, 0x40, 0x00, 0x82, 0x5C,
    0x40, 0x78, 0x89, 0x2A, 0x40, 0x00, 0x8E, 0x25, 0x40, 0x01, 0x92, 0x50,
    0x60, 0x00, 0x92, 0x5C, 0x60, 0x00, 0x99, 0x2D, 0x5B, 0x00, 0x99, 0x2A,
    0x60, 0x00, 0x9E, 0x25, 0x5F, 0x76, 0x82, 0x50, 0x40, 0x00, 0x82, 0x5C,
    0x40, 0x61, 0x80, 0x4D, 0x40, 0x00, 0x80, 0x41, 0x40, 0x00, 0x8C, 0x50,
    0x40, 0x00, 0x8C, 0x44, 0x40, 0x00, 0x8C, 0x49, 0x40, 0x00, 0x8C, 0x4D,
    0x40, 0x18, 0x90, 0x4D, 0x4C, 0x00, 0x90, 0x41, 0x4C, 0x00, 0x81, 0x47,
    0x40, 0x00, 0x81, 0x53, 0x40, 0x00, 0x91, 0x46, 0x5A, 0x00, 0x91, 0x52,
    0x60, 0x00, 0x92, 0x4D, 0x60, 0x00, 0x92, 0x59, 0x60, 0x00, 0x9C, 0x50,
    0x57, 0x00, 0x9C, 0x44, 0x57, 0x00, 0x9C, 0x49, 0x57, 0x00, 0x9C, 0x4D,
    0x57, 0x00, 0x8D, 0x25, 0x40, 0x00, 0x8D, 0x31, 0x40, 0x00, 0x9D, 0x25,
    0x5B, 0x00, 0x9D, 0x31, 0x5B, 0x00, 0x89, 0x23, 0x40, 0x00, 0x89, 0x2D,
    0x40, 0x00, 0x89, 0x2A, 0x40, 0x00, 0x99, 0x26, 0x5B, 0x00, 0x99, 0x2D,
    0x5B, 0x00, 0x99, 0x23, 0x5B, 0x00, 0x8E, 0x25, 0x40, 0x00, 0x9E, 0x25,
    0x5F, 0x78, 0x82, 0x4D, 0x40, 0x00, 0x82, 0x59, 0x40, 0x78, 0x89, 0x26,
    0x40, 0x00, 0x89, 0x2D, 0x40, 0x00, 0x8E, 0x25, 0x40, 0x01, 0x92, 0x4D,
    0x60, 0x00, 0x92, 0x59, 0x60, 0x00, 0x99, 0x30, 0x60, 0x00, 0x99, 0x2A,
    0x60, 0x00, 0x9E, 0x25, 0x5F, 0x76, 0x82, 0x4D, 0x40, 0x00, 0x82, 0x59,
    0x40, 0x18, 0x8C, 0x25, 0x40, 0x00, 0x8C, 0x31, 0x40, 0x49, 0x80, 0x4D,
    0x40, 0x00, 0x80, 0x41, 0x40, 0x00, 0x8C, 0x50, 0x40, 0x00, 0x8C, 0x44,
    0x40, 0x00, 0x8C, 0x49, 0x40, 0x00, 0x8C, 0x4D, 0x40, 0x18, 0x90, 0x4E,
    0x4C, 0x00, 0x90, 0x42, 0x4C, 0x00, 0x92, 0x4E, 0x60, 0x00, 0x92, 0x5A,
    0x60, 0x00, 0x8B, 0x3D, 0x40, 0x00, 0x8B, 0x49, 0x40, 0x00, 0x8B, 0x41,
    0x40, 0x00, 0x8B, 0x44, 0x40, 0x00, 0x9B, 0x46, 0x4C, 0x00, 0x9B, 0x3F,
    0x4C, 0x00, 0x9B, 0x42, 0x4C, 0x00, 0x9B, 0x4B, 0x4C, 0x00, 0x9C, 0x42,
    0x57, 0x00, 0x9C, 0x46, 0x57, 0x00, 0x9C, 0x4B, 0x57, 0x00, 0x9C, 0x4E,
    0x57, 0x00, 0x9C, 0x27, 0x5B, 0x00, 0x9C, 0x33, 0x5B, 0x00, 0x8D, 0x25,
    0x40, 0x00, 0x8D, 0x31, 0x40, 0x00, 0x9D, 0x27, 0x5B, 0x00, 0x9D, 0x33,
    0x5B, 0x00, 0x89, 0x23, 0x40, 0x00, 0x89, 0x30, 0x40, 0x00, 0x89, 0x2A,
    0x40, 0x00, 0x99, 0x2A, 0x60, 0x00, 0x99, 0x31, 0x60, 0x00, 0x99, 0x23,
    0x5B, 0x00, 0x8E, 0x25, 0x40, 0x00, 0x9E, 0x27, 0x5F, 0x78, 0x82, 0x4E,
    0x40, 0x00, 0x82, 0x5A, 0x40, 0x77, 0x89, 0x2A, 0x40, 0x00, 0x89, 0x31,
    0x40, 0x00, 0x8E, 0x27, 0x40, 0x02, 0x92, 0x4E, 0x60, 0x00, 0x92, 0x5A,
    0x60, 0x00, 0x99, 0x2A, 0x60, 0x00, 0x9E, 0x27, 0x5F, 0x76, 0x82, 0x4E,
    0x40, 0x00, 0x82, 0x5A, 0x40, 0x61, 0x80, 0x4E, 0x40, 0x00, 0x80, 0x42,
    0x40, 0x00, 0x8C, 0x42, 0x40, 0x00, 0x8C, 0x46, 0x40, 0x00, 0x8C, 0x4B,
    0x40, 0x00, 0x8C, 0x4E, 0x40, 0x18, 0x90, 0x4E, 0x4C, 0x00, 0x90, 0x42,
    0x4C, 0x00, 0x92, 0x4E, 0x60, 0x00, 0x92, 0x5A, 0x60, 0x00, 0x9C, 0x4E,
    0x57, 0x00, 0x9C, 0x42, 0x57, 0x00, 0x9C, 0x46, 0x57, 0x00, 0x9C, 0x4B,
    0x57, 0x00, 0x8D, 0x27, 0x40, 0x00, 0x8D, 0x33, 0x40, 0x00, 0x9D, 0x27,
    0x5B, 0x00, 0x9D, 0x33, 0x5B, 0x00, 0x89, 0x23, 0x40, 0x00, 0x89, 0x2A,
    0x40, 0x00, 0x99, 0x26, 0x60, 0x00, 0x99, 0x2A, 0x60, 0x00, 0x99, 0x23,
    0x5B, 0x00, 0x8E, 0x27, 0x40, 0x00, 0x9E, 0x27, 0x5F, 0x78, 0x82, 0x4E,
    0x40, 0x00, 0x82, 0x5A, 0x40, 0x77, 0x89, 0x26, 0x40, 0x00, 0x89, 0x2A,
    0x40, 0x00, 0x8E, 0x27, 0x40, 0x02, 0x92, 0x4E, 0x60, 0x00, 0x92, 0x5A,
    0x60, 0x00, 0x99, 0x2A, 0x60, 0x00, 0x9E, 0x27, 0x5F, 0x76, 0x82, 0x4E,
    0x40, 0x00, 0x82, 0x5A, 0x40, 0x61, 0x80, 0x4E, 0x40, 0x00, 0x80, 0x42,
    0x40, 0x00, 0x8C, 0x4E, 0x40, 0x00, 0x8C, 0x42, 0x40, 0x00, 0x8C, 0x46,
    0x40, 0x00, 0x8C, 0x4B, 0x40, 0x18, 0x90, 0x4E, 0x4C, 0x00, 0x90, 0x42,
    0x4C, 0x00, 0x92, 0x52, 0x60, 0x00, 0x92, 0x5E, 0x60, 0x00, 0x9C, 0x4E,
    0x57, 0x00, 0x9C, 0x42, 0x57, 0x00, 0x9C, 0x46, 0x57, 0x00, 0x9C, 0x4B,
    0x57, 0x00, 0x8D, 0x27, 0x40, 0x00, 0x8D, 0x33, 0x40, 0x00, 0x9D, 0x27,
    0x5B, 0x00, 0x9D, 0x33, 0x5B, 0x00, 0x89, 0x23, 0x40, 0x00, 0x89, 0x2A,
    0x40, 0x00, 0x99, 0x2A, 0x60, 0x00, 0x99, 0x23, 0x5B, 0x00, 0x8E, 0x27,
    0x40, 0x00, 0x9E, 0x27, 0x5F, 0x78, 0x82, 0x52, 0x40, 0x00, 0x82, 0x5E,
    0x40, 0x77, 0x89, 0x2A, 0x40, 0x00, 0x8E, 0x27, 0x40, 0x02, 0x92, 0x52,
    0x60, 0x00, 0x92, 0x5E, 0x60, 0x00, 0x99, 0x2A, 0x60, 0x00, 0x9E, 0x27,
    0x5F, 0x77, 0x82, 0x52, 0x40, 0x00, 0x82, 0x5E, 0x40, 0x60, 0x80, 0x4E,
    0x40, 0x00, 0x80, 0x42, 0x40, 0x00, 0x8C, 0x4E, 0x40, 0x00, 0x8C, 0x42,
    0x40, 0x00, 0x8C, 0x46, 0x40, 0x00, 0x8C, 0x4B, 0x40, 0x18, 0x90, 0x52,
    0x4C, 0x00, 0x90, 0x46, 0x4C, 0x00, 0x92, 0x5A, 0x60, 0x00, 0x92, 0x66,
    0x60, 0x00, 0x9C, 0x4E, 0x57, 0x00, 0x9C, 0x42, 0x57, 0x00, 0x9C, 0x46,
    0x57, 0x00, 0x9C, 0x4B, 0x57, 0x00, 0x8D, 0x27, 0x40, 0x00, 0x8D, 0x33,
    0x40, 0x00, 0x9D, 0x27, 0x5B, 0x00, 0x9D, 0x33, 0x5B, 0x00, 0x89, 0x23,
    0x40, 0x00, 0x89, 0x2A, 0x40, 0x00, 0x99, 0x26, 0x60, 0x00, 0x99, 0x2A,
    0x60, 0x00, 0x99, 0x23, 0x5B, 0x00, 0x8E, 0x27, 0x40, 0x00, 0x9E, 0x27,
    0x5F, 0x59, 0x82, 0x5A, 0x40, 0x00, 0x82, 0x66, 0x40, 0x5B, 0x92, 0x5A,
    0x60, 0x00, 0x92, 0x66, 0x60, 0x1D, 0x82, 0x5A, 0x40, 0x00, 0x82, 0x66,
    0x40, 0x1E, 0x89, 0x26, 0x40, 0x00, 0x89, 0x2A, 0x40, 0x00, 0x8E, 0x27,
    0x40, 0x02, 0x92, 0x59, 0x60, 0x00, 0x92, 0x65, 0x60, 0x00, 0x99, 0x2A,
    0x60, 0x00, 0x9E, 0x27, 0x5F, 0x59, 0x82, 0x59, 0x40, 0x00, 0x82, 0x65,
    0x40, 0x35, 0x8C, 0x27, 0x40, 0x00, 0x8C, 0x33, 0x40, 0x26, 0x92, 0x59,
    0x60, 0x00, 0x92, 0x65, 0x60, 0x1D, 0x82, 0x59, 0x40, 0x00, 0x82, 0x65,
    0x40, 0x06, 0x80, 0x52, 0x40, 0x00, 0x80, 0x46, 0x40, 0x00, 0x8C, 0x4E,
    0x40, 0x00, 0x8C, 0x42, 0x40, 0x00, 0x8C, 0x46, 0x40, 0x00, 0x8C, 0x4B,
    0x40, 0x18, 0x90, 0x57, 0x4C, 0x00, 0x90, 0x4B, 0x4C, 0x00, 0x92, 0x57,
    0x60, 0x00, 0x92, 0x63, 0x60, 0x00, 0x8B, 0x46, 0x40, 0x00, 0x9B, 0x47,
    0x4C, 0x00, 0x9C, 0x42, 0x57, 0x00, 0x9C, 0x47, 0x57, 0x00, 0x9C, 0x4B,
    0x57, 0x00, 0x9C, 0x4E, 0x57, 0x00, 0x9C, 0x23, 0x5B, 0x00, 0x9C, 0x2F,
    0x5B, 0x00, 0x8D, 0x27, 0x40, 0x00, 0x8D, 0x33, 0x40, 0x00, 0x9D, 0x23,
    0x5B, 0x00, 0x9D, 0x2F, 0x5B, 0x00, 0x89, 0x23, 0x40, 0x00, 0x89, 0x2A,
    0x40, 0x00, 0x99, 0x2A, 0x60, 0x00, 0x99, 0x23, 0x5B, 0x00, 0x8E, 0x27,
    0x40, 0x00, 0x9E, 0x23, 0x5F, 0x78, 0x82, 0x57, 0x40, 0x00, 0x82, 0x63,
    0x40, 0x77, 0x89, 0x2A, 0x40, 0x00, 0x8E, 0x23, 0x40, 0x02, 0x92, 0x57,
    0x60, 0x00, 0x92, 0x63, 0x60, 0x00, 0x99, 0x2A, 0x60, 0x00, 0x9E, 0x23,
    0x5F, 0x77, 0x82, 0x57, 0x40, 0x00, 0x82, 0x63, 0x40, 0x60, 0x80, 0x57,
    0x40, 0x00, 0x80, 0x4B, 0x40, 0x00, 0x8C, 0x42, 0x40, 0x00, 0x8C, 0x47,
    0x40, 0x00, 0x8C, 0x4B, 0x40, 0x00, 0x8C, 0x4E, 0x40, 0x18, 0x8D, 0x23,
    0x40, 0x00, 0x8D, 0x2F, 0x40, 0x00, 0x89, 0x23, 0x40, 0x00, 0x89, 0x2A,
    0x40, 0x00, 0x8E, 0x23, 0x40, 0x01, 0x90, 0x57, 0x4C, 0x00, 0x90, 0x4B,
    0x4C, 0x00, 0x92, 0x57, 0x60, 0x00, 0x92, 0x63, 0x60, 0x00, 0x9C, 0x53,
    0x57, 0x00, 0x9C, 0x47, 0x57, 0x00, 0x9C, 0x4B, 0x57, 0x00, 0x9C, 0x4E,
    0x57, 0x00, 0x9D, 0x23, 0x5B, 0x00, 0x9D, 0x2F, 0x5B, 0x00, 0x99, 0x26,
    0x60, 0x00, 0x99, 0x2A, 0x60, 0x00, 0x99, 0x23, 0x5B, 0x00, 0x9E, 0x23,
    0x5F, 0x77, 0x82, 0x57, 0x40, 0x00, 0x82, 0x63, 0x40, 0x77, 0x81, 0x46,
    0x40, 0x00, 0x81, 0x52, 0x40, 0x00, 0x89, 0x26, 0x40, 0x00, 0x89, 0x2A,
    0x40, 0x00, 0x8E, 0x23, 0x40, 0x02, 0x91, 0x42, 0x55, 0x00, 0x91, 0x4E,
    0x60, 0x00, 0x92, 0x57, 0x60, 0x00, 0x92, 0x63, 0x60, 0x00, 0x99, 0x2A,
    0x60, 0x00, 0x9E, 0x23, 0x5F, 0x77, 0x82, 0x57, 0x40, 0x00, 0x82, 0x63,
    0x40, 0x60, 0x80, 0x57, 0x40, 0x00, 0x80, 0x4B, 0x40, 0x00, 0x8C, 0x53,
    0x40, 0x00, 0x8C, 0x47, 0x40, 0x00, 0x8C, 0x4B, 0x40, 0x00, 0x8C, 0x4E,
    0x40, 0x18, 0x81, 0x42, 0x40, 0x00, 0x81, 0x4E, 0x40, 0x00, 0x8D, 0x23,
    0x40, 0x00, 0x8D, 0x2F, 0x40, 0x00, 0x89, 0x23, 0x40, 0x00, 0x89, 0x2A,
    0x40, 0x00, 0x8E, 0x23, 0x40, 0x01, 0x90, 0x57, 0x4C, 0x00, 0x90, 0x4B,
    0x4C, 0x00, 0x91, 0x47, 0x53, 0x00, 0x91, 0x53, 0x60, 0x00, 0x92, 0x55,
    0x60, 0x00, 0x92, 0x61, 0x60, 0x00, 0x9C, 0x53, 0x57, 0x00, 0x9C, 0x47,
    0x57, 0x00, 0x9C, 0x4B, 0x57, 0x00, 0x9C, 0x4E, 0x57, 0x00, 0x9D, 0x23,
    0x5B, 0x00, 0x9D, 0x2F, 0x5B, 0x00, 0x99, 0x2A, 0x60, 0x00, 0x99, 0x23,
    0x5B, 0x00, 0x9E, 0x23, 0x5F, 0x77, 0x82, 0x55, 0x40, 0x00, 0x82, 0x61,
    0x40, 0x77, 0x89, 0x2A, 0x40, 0x00, 0x8E, 0x23, 0x40, 0x02, 0x92, 0x55,
    0x60, 0x00, 0x92, 0x61, 0x60, 0x00, 0x99, 0x2A, 0x60, 0x00, 0x9E, 0x23,
    0x5F, 0x77, 0x82, 0x55, 0x40, 0x00, 0x82, 0x61, 0x40, 0x60, 0x80, 0x57,
    0x40, 0x00, 0x80, 0x4B, 0x40, 0x00, 0x8C, 0x53, 0x40, 0x00, 0x8C, 0x47,
    0x40, 0x00, 0x8C, 0x4B, 0x40, 0x00, 0x8C, 0x4E, 0x40, 0x18, 0x81, 0x47,
    0x40, 0x00, 0x81, 0x53, 0x40, 0x00, 0x8D, 0x23, 0x40, 0x00, 0x8D, 0x2F,
    0x40, 0x00, 0x89, 0x23, 0x40, 0x00, 0x89, 0x2A, 0x40, 0x00, 0x8E, 0x23,
    0x40, 0x01, 0x90, 0x55, 0x4C, 0x00, 0x90, 0x49, 0x4C, 0x00, 0x91, 0x49,
    0x57, 0x00, 0x91, 0x55, 0x60, 0x00, 0x92, 0x50, 0x60, 0x00, 0x92, 0x5C,
    0x60, 0x00, 0x9C, 0x4E, 0x57, 0x00, 0x9C, 0x42, 0x57, 0x00, 0x9C, 0x47,
    0x57, 0x00, 0x9C, 0x4B, 0x57, 0x00, 0x9D, 0x23, 0x5B, 0x00, 0x9D, 0x2F,
    0x5B, 0x00, 0x99, 0x26, 0x60, 0x00, 0x99, 0x2A, 0x60, 0x00, 0x99, 0x23,
    0x5B, 0x00, 0x9E, 0x23, 0x5F, 0x76, 0x82, 0x50, 0x40, 0x00, 0x82, 0x5C,
    0x40, 0x78, 0x89, 0x26, 0x40, 0x00, 0x89, 0x2A, 0x40, 0x00, 0x8E, 0x23,
    0x40, 0x02, 0x92, 0x50, 0x60, 0x00, 0x92, 0x5C, 0x60, 0x00, 0x99, 0x2A,
    0x60, 0x00, 0x9E, 0x23, 0x5F, 0x77, 0x82, 0x50, 0x40, 0x00, 0x82, 0x5C,
    0x40, 0x18, 0x8C, 0x23, 0x40, 0x00, 0x8C, 0x2F, 0x40, 0x48, 0x80, 0x55,
    0x40, 0x00, 0x80, 0x49, 0x40, 0x00, 0x8C, 0x4E, 0x40, 0x00, 0x8C, 0x42,
    0x40, 0x00, 0x8C, 0x47, 0x40, 0x00, 0x8C, 0x4B, 0x40, 0x18, 0x8B, 0x3F,
    0x40, 0x00, 0x8B, 0x4B, 0x40, 0x00, 0x8B, 0x47, 0x40, 0x00, 0x8D, 0x23,
    0x40, 0x00, 0x8D, 0x2F, 0x40, 0x00, 0x89, 0x23, 0x40, 0x00, 0x89, 0x2A,
    0x40, 0x00, 0x8E, 0x23, 0x40, 0x01, 0x90, 0x52, 0x4C, 0x00, 0x90, 0x46,
    0x4C, 0x00, 0x92, 0x52, 0x60, 0x00, 0x92, 0x5E, 0x60, 0x00, 0x9B, 0x3D,
    0x4C, 0x00, 0x9B, 0x49, 0x4C, 0x00, 0x9C, 0x42, 0x57, 0x00, 0x9C, 0x46,
    0x57, 0x00, 0x9C, 0x49, 0x57, 0x00, 0x9C, 0x4E, 0x57, 0x00, 0x9C, 0x1E,
    0x5B, 0x00, 0x9C, 0x2A, 0x5B, 0x00, 0x9D, 0x1E, 0x5B, 0x00, 0x9D, 0x2A,
    0x5B, 0x00, 0x99, 0x2A, 0x60, 0x00, 0x99, 0x23, 0x5B, 0x00, 0x9E, 0x1E,
    0x5F, 0x76, 0x82, 0x52, 0x40, 0x00, 0x82, 0x5E, 0x40, 0x78, 0x89, 0x2A,
    0x40, 0x00, 0x8E, 0x1E, 0x40, 0x02, 0x92, 0x52, 0x60, 0x00, 0x92, 0x5E,
    0x60, 0x00, 0x99, 0x2A, 0x60, 0x00, 0x9E, 0x1E, 0x5F, 0x77, 0x82, 0x52,
    0x40, 0x00, 0x82, 0x5E, 0x40, 0x60, 0x80, 0x52, 0x40, 0x00, 0x80, 0x46,
    0x40, 0x00, 0x8C, 0x42, 0x40, 0x00, 0x8C, 0x46, 0x40, 0x00, 0x8C, 0x49,
    0x40, 0x00, 0x8C, 0x4E, 0x40, 0x18, 0x8D, 0x1E, 0x40, 0x00, 0x8D, 0x2A,
    0x40, 0x00, 0x89, 0x23, 0x40, 0x00, 0x89, 0x2A, 0x40, 0x00, 0x8E, 0x1E,
    0x40, 0x01, 0x90, 0x52, 0x4C, 0x00, 0x90, 0x46, 0x4C, 0x00, 0x92, 0x52,
    0x60, 0x00, 0x92, 0x5E, 0x60, 0x00, 0x9C, 0x4E, 0x57, 0x00, 0x9C, 0x42,
    0x57, 0x00, 0x9C, 0x46, 0x57, 0x00, 0x9C, 0x49, 0x57, 0x00, 0x9D, 0x1E,
    0x5B, 0x00, 0x9D, 0x2A, 0x5B, 0x00, 0x99, 0x26, 0x60, 0x00, 0x99, 0x2A,
    0x60, 0x00, 0x99, 0x23, 0x5B, 0x00, 0x9E, 0x1E, 0x5F, 0x76, 0x82, 0x52,
    0x40, 0x00, 0x82, 0x5E, 0x40, 0x79, 0x92, 0x52, 0x60, 0x00, 0x92, 0x5E,
    0x60, 0x00, 0x89, 0x26, 0x40, 0x00, 0x89, 0x2A, 0x40, 0x00, 0x99, 0x2A,
    0x60, 0x00, 0x8E, 0x1E, 0x40, 0x00, 0x9E, 0x1E, 0x5F, 0x78, 0x82, 0x52,
    0x40, 0x00, 0x82, 0x5E, 0x40, 0x5F, 0x80, 0x52, 0x40, 0x00, 0x80, 0x46,
    0x40, 0x00, 0x8C, 0x4E, 0x40, 0x00, 0x8C, 0x42, 0x40, 0x00, 0x8C, 0x46,
    0x40, 0x00, 0x8C, 0x49, 0x40, 0x19, 0x8D, 0x1E, 0x40, 0x00, 0x8D, 0x2A,
    0x40, 0x00, 0x89, 0x23, 0x40, 0x00, 0x89, 0x2A, 0x40, 0x00, 0x8E, 0x1E,
    0x40, 0x01, 0x90, 0x52, 0x4C, 0x00, 0x90, 0x46, 0x4C, 0x00, 0x92, 0x55,
    0x60, 0x00, 0x92, 0x61, 0x60, 0x00, 0x9C, 0x4E, 0x57, 0x00, 0x9C, 0x42,
    0x57, 0x00, 0x9C, 0x46, 0x57, 0x00, 0x9C, 0x49, 0x57, 0x00, 0x9D, 0x1E,
    0x5B, 0x00, 0x9D, 0x2A, 0x5B, 0x00, 0x99, 0x2A, 0x60, 0x00, 0x99, 0x23,
    0x5B, 0x00, 0x9E, 0x1E, 0x5F, 0x76, 0x82, 0x55, 0x40, 0x00, 0x82, 0x61,
    0x40, 0x79, 0x92, 0x53, 0x60, 0x00, 0x92, 0x5F, 0x60, 0x00, 0x89, 0x2A,
    0x40, 0x00, 0x99, 0x2A, 0x60, 0x00, 0x8E, 0x1E, 0x40, 0x00, 0x9E, 0x1E,
    0x5F, 0x78, 0x82, 0x53, 0x40, 0x00, 0x82, 0x5F, 0x40, 0x5F, 0x80, 0x52,
    0x40, 0x00, 0x80, 0x46, 0x40, 0x00, 0x8C, 0x4E, 0x40, 0x00, 0x8C, 0x42,
    0x40, 0x00, 0x8C, 0x46, 0x40, 0x00, 0x8C, 0x49, 0x40, 0x19, 0x8D, 0x1E,
    0x40, 0x00, 0x8D, 0x2A, 0x40, 0x00, 0x89, 0x23, 0x40, 0x00, 0x89, 0x2A,
    0x40, 0x00, 0x8E, 0x1E, 0x40, 0x01, 0x90, 0x52, 0x4C, 0x00, 0x90, 0x46,
    0x4C, 0x00, 0x92, 0x52, 0x60, 0x00, 0x92, 0x5E, 0x60, 0x00, 0x9C, 0x4E,
    0x57, 0x00, 0x9C, 0x42, 0x57, 0x00, 0x9C, 0x46, 0x57, 0x00, 0x9C, 0x49,
    0x57, 0x00, 0x9D, 0x1E, 0x5B, 0x00, 0x9D, 0x2A, 0x5B, 0x00, 0x99, 0x26,
    0x60, 0x00, 0x99, 0x2A, 0x60, 0x00, 0x99, 0x23, 0x5B, 0x00, 0x9E, 0x1E,
    0x5F, 0x76, 0x82, 0x52, 0x40, 0x00, 0x82, 0x5E, 0x40, 0x79, 0x81, 0x49,
    0x40, 0x00, 0x81, 0x55, 0x40, 0x00, 0x91, 0x42, 0x56, 0x00, 0x91, 0x4E,
    0x60, 0x00, 0x92, 0x4E, 0x60, 0x00, 0x92, 0x5A, 0x60, 0x00, 0x89, 0x26,
    0x40, 0x00, 0x89, 0x2A, 0x40, 0x00, 0x99, 0x2A, 0x60, 0x00, 0x8E, 0x1E,
    0x40, 0x00, 0x9E, 0x1E, 0x5F, 0x5A, 0x82, 0x4E, 0x40, 0x00, 0x82, 0x5A,
    0x40, 0x36, 0x8C, 0x1E, 0x40, 0x00, 0x8C, 0x2A, 0x40, 0x25, 0x92, 0x4D,
    0x60, 0x00, 0x92, 0x59, 0x60, 0x1C, 0x82, 0x4D, 0x40, 0x00, 0x82, 0x59,
    0x40, 0x06, 0x80, 0x52, 0x40, 0x00, 0x80, 0x46, 0x40, 0x00, 0x8C, 0x4E,
    0x40, 0x00, 0x8C, 0x42, 0x40, 0x00, 0x8C, 0x46, 0x40, 0x00, 0x8C, 0x49,
    0x40, 0x19, 0x81, 0x42, 0x40, 0x00, 0x81, 0x4E, 0x40, 0x00, 0x8B, 0x42,
    0x40, 0x00, 0x8D, 0x1E, 0x40, 0x00, 0x8D, 0x2A, 0x40, 0x00, 0x89, 0x23,
    0x40, 0x00, 0x89, 0x2A, 0x40, 0x00, 0x8E, 0x1E, 0x40, 0x01, 0x90, 0x4D,
    0x4C, 0x00, 0x90, 0x41, 0x4C, 0x00, 0x91, 0x41, 0x5A, 0x00, 0x91, 0x4D,
    0x60, 0x00, 0x92, 0x4D, 0x60, 0x00, 0x92, 0x59, 0x60, 0x00, 0x9B, 0x41,
    0x4C, 0x00, 0x9B, 0x44, 0x4C, 0x00, 0x9C, 0x44, 0x57, 0x00, 0x9C, 0x49,
    0x57, 0x00, 0x9C, 0x4D, 0x57, 0x00, 0x9C, 0x50, 0x57, 0x00, 0x9C, 0x25,
    0x5B, 0x00, 0x9C, 0x31, 0x5B, 0x00, 0x9D, 0x25, 0x5B, 0x00, 0x9D, 0x31,
    0x5B, 0x00, 0x99, 0x2A, 0x60, 0x00, 0x99, 0x23, 0x5B, 0x00, 0x9E, 0x25,
    0x5F, 0x76, 0x82, 0x4D, 0x40, 0x00, 0x82, 0x59, 0x40, 0x79, 0x92, 0x4D,
    0x60, 0x00, 0x92, 0x59, 0x60, 0x00, 0x89, 0x2A, 0x40, 0x00, 0x99, 0x2A,
    0x60, 0x00, 0x8E, 0x25, 0x40, 0x00, 0x9E, 0x25, 0x5F, 0x78, 0x82, 0x4D,
    0x40, 0x00, 0x82, 0x59, 0x40, 0x5F, 0x80, 0x4D, 0x40, 0x00, 0x80, 0x41,
    0x40, 0x00, 0x8C, 0x44, 0x40, 0x00, 0x8C, 0x49, 0x40, 0x00, 0x8C, 0x4D,
    0x40, 0x00, 0x8C, 0x50, 0x40, 0x19, 0x8D, 0x25, 0x40, 0x00, 0x8D, 0x31,
    0x40, 0x00, 0x89, 0x23, 0x40, 0x00, 0x89, 0x2A, 0x40, 0x00, 0x8E, 0x25,
    0x40, 0x01, 0x90, 0x4D, 0x4C, 0x00, 0x90, 0x41, 0x4C, 0x00, 0x92, 0x4D,
    0x60, 0x00, 0x92, 0x59, 0x60, 0x00, 0x9C, 0x50, 0x57, 0x00, 0x9C, 0x44,
    0x57, 0x00, 0x9C, 0x49, 0x57, 0x00, 0x9C, 0x4D, 0x57, 0x00, 0x9D, 0x25,
    0x5B, 0x00, 0x9D, 0x31, 0x5B, 0x00, 0x99, 0x26, 0x60, 0x00, 0x99, 0x2A,
    0x60, 0x00, 0x99, 0x23, 0x5B, 0x00, 0x9E, 0x25, 0x5F, 0x76, 0x82, 0x4D,
    0x40, 0x00, 0x82, 0x59, 0x40, 0x79, 0x81, 0x41, 0x40, 0x00, 0x81, 0x4D,
    0x40, 0x00, 0x91, 0x3D, 0x61, 0x00, 0x91, 0x49, 0x60, 0x00, 0x92, 0x4D,
    0x60, 0x00, 0x92, 0x59, 0x60, 0x00, 0x89, 0x26, 0x40, 0x00, 0x89, 0x2A,
    0x40, 0x00, 0x89, 0x23, 0x40, 0x00, 0x99, 0x26, 0x60, 0x00, 0x99, 0x2A,
    0x60, 0x00, 0x99, 0x2B, 0x5A, 0x00, 0x8E, 0x25, 0x40, 0x00, 0x9E, 0x25,
    0x5F, 0x78, 0x82, 0x4D, 0x40, 0x00, 0x82, 0x59, 0x40, 0x5F, 0x80, 0x4D,
    0x40, 0x00, 0x80, 0x41, 0x40, 0x00, 0x8C, 0x50, 0x40, 0x00, 0x8C, 0x44,
    0x40, 0x00, 0x8C, 0x49, 0x40, 0x00, 0x8C, 0x4D, 0x40, 0x18, 0x81, 0x3D,
    0x40, 0x00, 0x81, 0x49, 0x40, 0x00, 0x8D, 0x25, 0x40, 0x00, 0x8D, 0x31,
    0x40, 0x00, 0x89, 0x26, 0x40, 0x00, 0x89, 0x2A, 0x40, 0x00, 0x89, 0x2B,
    0x40, 0x00, 0x8E, 0x25, 0x40, 0x02, 0x90, 0x4D, 0x4C, 0x00, 0x90, 0x41,
    0x4C, 0x00, 0x91, 0x47, 0x57, 0x00, 0x91, 0x53, 0x60, 0x00, 0x92, 0x4E,
    0x60, 0x00, 0x92, 0x5A, 0x60, 0x00, 0x9C, 0x50, 0x57, 0x00, 0x9C, 0x44,
    0x57, 0x00, 0x9C, 0x49, 0x57, 0x00, 0x9C, 0x4D, 0x57, 0x00, 0x9D, 0x25,
    0x5B, 0x00, 0x9D, 0x31, 0x5B, 0x00, 0x99, 0x2A, 0x60, 0x00, 0x99, 0x23,
    0x5B, 0x00, 0x9E, 0x25, 0x5F, 0x76, 0x82, 0x4E, 0x40, 0x00, 0x82, 0x5A,
    0x40, 0x79, 0x92, 0x4E, 0x60, 0x00, 0x92, 0x5A, 0x60, 0x00, 0x89, 0x2A,
    0x40, 0x00, 0x99, 0x26, 0x60, 0x00, 0x99, 0x2D, 0x60, 0x00, 0x99, 0x2A,
    0x60, 0x00, 0x8E, 0x25, 0x40, 0x00, 0x9E, 0x25, 0x5F, 0x78, 0x82, 0x4E,
    0x40, 0x00, 0x82, 0x5A, 0x40, 0x5F, 0x80, 0x4D, 0x40, 0x00, 0x80, 0x41,
    0x40, 0x00, 0x8C, 0x50, 0x40, 0x00, 0x8C, 0x44, 0x40, 0x00, 0x8C, 0x49,
    0x40, 0x00, 0x8C, 0x4D, 0x40, 0x18, 0x81, 0x47, 0x40, 0x00, 0x81, 0x53,
    0x40, 0x00, 0x8D, 0x25, 0x40, 0x00, 0x8D, 0x31, 0x40, 0x00, 0x89, 0x23,
    0x40, 0x00, 0x89, 0x26, 0x40, 0x00, 0x89, 0x2D, 0x40, 0x00, 0x89, 0x2A,
    0x40, 0x00, 0x8E, 0x25, 0x40, 0x02, 0x90, 0x4D, 0x4C, 0x00, 0x90, 0x41,
    0x4C, 0x00, 0x91, 0x46, 0x57, 0x00, 0x91, 0x52, 0x60, 0x00, 0x92, 0x50,
    0x60, 0x00, 0x92, 0x5C, 0x60, 0x00, 0x9C, 0x50, 0x57, 0x00, 0x9C, 0x44,
    0x57, 0x00, 0x9C, 0x49, 0x57, 0x00, 0x9C, 0x4D, 0x57, 0x00, 0x9D, 0x25,
    0x5B, 0x00, 0x9D, 0x31, 0x5B, 0x00, 0x99, 0x26, 0x60, 0x00, 0x99, 0x2F,
    0x60, 0x00, 0x99, 0x2A, 0x60, 0x00, 0x9E, 0x25, 0x5F, 0x76, 0x82, 0x50,
    0x40, 0x00, 0x82, 0x5C, 0x40, 0x79, 0x92, 0x4E, 0x60, 0x00, 0x92, 0x5A,
    0x60, 0x00, 0x89, 0x26, 0x40, 0x00, 0x89, 0x2F, 0x40, 0x00, 0x89, 0x2A,
    0x40, 0x00, 0x99, 0x26, 0x60, 0x00, 0x99, 0x30, 0x60, 0x00, 0x99, 0x2A,
    0x60, 0x00, 0x8E, 0x25, 0x40, 0x00, 0x9E, 0x25, 0x5F, 0x78, 0x82, 0x4E,
    0x40, 0x00, 0x82, 0x5A, 0x40, 0x18, 0x8C, 0x25, 0x40, 0x00, 0x8C, 0x31,
    0x40, 0x47, 0x80, 0x4D, 0x40, 0x00, 0x80, 0x41, 0x40, 0x00, 0x8C, 0x50,
    0x40, 0x00, 0x8C, 0x44, 0x40, 0x00, 0x8C, 0x49, 0x40, 0x00, 0x8C, 0x4D,
    0x40, 0x18, 0x81, 0x46, 0x40, 0x00, 0x81, 0x52, 0x40, 0x00, 0x8B, 0x3D,
    0x40, 0x00, 0x8B, 0x49, 0x40, 0x00, 0x8B, 0x41, 0x40, 0x00, 0x8B, 0x44,
    0x40, 0x00, 0x8D, 0x25, 0x40, 0x00, 0x8D, 0x31, 0x40, 0x00, 0x89, 0x26,
    0x40, 0x00, 0x89, 0x30, 0x40, 0x00, 0x89, 0x2A, 0x40, 0x00, 0x8E, 0x25,
    0x40, 0x02, 0x90, 0x4E, 0x4C, 0x00, 0x90, 0x42, 0x4C, 0x00, 0x92, 0x4E,
    0x60, 0x00, 0x9C, 0x27, 0x5B, 0x00, 0x9D, 0x27, 0x5B, 0x00, 0x99, 0x38,
    0x5B, 0x00, 0x99, 0x32, 0x5B, 0x00, 0x99, 0x39, 0x5B, 0x00, 0x99, 0x23,
    0x60, 0x00, 0x9E, 0x27, 0x61, 0x77, 0x82, 0x4E, 0x40, 0x6C, 0x8C, 0x27,
    0x40, 0x0C, 0x91, 0x4E, 0x52, 0x00, 0x92, 0x4E, 0x60, 0x00, 0x9C, 0x2E,
    0x5B, 0x78, 0x82, 0x4E, 0x40, 0x6B, 0x8C, 0x2E, 0x40, 0x0C, 0x81, 0x4E,
    0x40, 0x00, 0x89, 0x38, 0x40, 0x00, 0x89, 0x32, 0x40, 0x00, 0x89, 0x39,
    0x40, 0x00, 0x89, 0x23, 0x40, 0x02, 0x91, 0x4E, 0x46, 0x00, 0x92, 0x4E,
    0x60, 0x00, 0x9C, 0x33, 0x5B, 0x00, 0x99, 0x36, 0x5B, 0x77, 0x82, 0x4E,
    0x40, 0x6C, 0x8C, 0x33, 0x40, 0x0C, 0x81, 0x4E, 0x40, 0x00, 0x91, 0x4B,
    0x61, 0x00, 0x92, 0x4E, 0x60, 0x00, 0x9C, 0x2E, 0x5B, 0x78, 0x82, 0x4E,
    0x40, 0x6B, 0x8C, 0x2E, 0x40, 0x0C, 0x81, 0x4B, 0x40, 0x00, 0x89, 0x36,
    0x40, 0x02, 0x91, 0x4E, 0x48, 0x00, 0x92, 0x4E, 0x60, 0x00, 0x9C, 0x36,
    0x5B, 0x00, 0x99, 0x36, 0x5B, 0x77, 0x82, 0x4E, 0x40, 0x6C, 0x8C, 0x36,
    0x40, 0x0C, 0x81, 0x4E, 0x40, 0x01, 0x91, 0x4B, 0x61, 0x00, 0x92, 0x4E,
    0x60, 0x00, 0x9C, 0x33, 0x5B, 0x77, 0x82, 0x4E, 0x40, 0x30, 0x80, 0x4E,
    0x40, 0x00, 0x80, 0x42, 0x40, 0x3B, 0x8C, 0x33, 0x40, 0x0C, 0x81, 0x4B,
    0x40, 0x00, 0x89, 0x36, 0x40, 0x02, 0x90, 0x52, 0x4C, 0x00, 0x90, 0x46,
    0x4C, 0x00, 0x91, 0x4E, 0x50, 0x00, 0x92, 0x4E, 0x60, 0x00, 0x9C, 0x2E,
    0x5B, 0x00, 0x99, 0x36, 0x5B, 0x77, 0x82, 0x4E, 0x40, 0x78, 0x81, 0x4E,
    0x40, 0x01, 0x91, 0x50, 0x4E, 0x00, 0x92, 0x4E, 0x60, 0x77, 0x82, 0x4E,
    0x40, 0x60, 0x80, 0x52, 0x40, 0x00, 0x80, 0x46, 0x40, 0x00, 0x8C, 0x2E,
    0x40, 0x17, 0x81, 0x50, 0x40, 0x00, 0x8D, 0x27, 0x40, 0x00, 0x89, 0x36,
    0x40, 0x00, 0x8E, 0x27, 0x40, 0x02, 0x90, 0x57, 0x4C, 0x00, 0x90, 0x4B,
    0x4C, 0x00, 0x91, 0x52, 0x4E, 0x00, 0x92, 0x4E, 0x60, 0x00, 0x9C, 0x2F,
    0x5B, 0x00, 0x9D, 0x23, 0x5B, 0x00, 0x99, 0x36, 0x5B, 0x00, 0x9E, 0x23,
    0x4E, 0x77, 0x82, 0x4E, 0x40, 0x6C, 0x8C, 0x2F, 0x40, 0x0D, 0x92, 0x4E,
    0x60, 0x00, 0x9C, 0x36, 0x5B, 0x76, 0x82, 0x4E, 0x40, 0x6D, 0x8C, 0x36,
    0x40, 0x0B, 0x81, 0x52, 0x40, 0x00, 0x89, 0x36, 0x40, 0x02, 0x91, 0x4E,
    0x61, 0x00, 0x92, 0x4E, 0x60, 0x00, 0x9C, 0x3B, 0x5B, 0x00, 0x99, 0x36,
    0x5B, 0x77, 0x82, 0x4E, 0x40, 0x6C, 0x8C, 0x3B, 0x40, 0x0C, 0x81, 0x4E,
    0x40, 0x00, 0x8D, 0x23, 0x40, 0x01, 0x91, 0x4E, 0x61, 0x00, 0x92, 0x4E,
    0x60, 0x00, 0x9C, 0x36, 0x5B, 0x00, 0x9D, 0x2A, 0x5B, 0x76, 0x82, 0x4E,
    0x40, 0x6D, 0x8C, 0x36, 0x40, 0x0C, 0x81, 0x4E, 0x40, 0x00, 0x89, 0x36,
    0x40, 0x01, 0x91, 0x49, 0x50, 0x00, 0x92, 0x4E, 0x60, 0x00, 0x9C, 0x3F,
    0x5B, 0x00, 0x99, 0x36, 0x5B, 0x77, 0x82, 0x4E, 0x40, 0x6C, 0x8C, 0x3F,
    0x40, 0x0C, 0x81, 0x49, 0x40, 0x00, 0x8D, 0x2A, 0x40, 0x01, 0x91, 0x52,
    0x54, 0x00, 0x92, 0x4E, 0x60, 0x00, 0x9C, 0x3B, 0x5B, 0x00, 0x9D, 0x23,
    0x5B, 0x76, 0x82, 0x4E, 0x40, 0x31, 0x80, 0x57, 0x40, 0x00, 0x80, 0x4B,
    0x40, 0x3C, 0x8C, 0x3B, 0x40, 0x0C, 0x90, 0x55, 0x4C, 0x00, 0x90, 0x49,
    0x4C, 0x00, 0x92, 0x4E, 0x60, 0x00, 0x9C, 0x36, 0x5B, 0x00, 0x8D, 0x23,
    0x40, 0x00, 0x9D, 0x23, 0x5B, 0x00, 0x89, 0x36, 0x40, 0x00, 0x99, 0x36,
    0x5B, 0x78, 0x82, 0x4E, 0x40, 0x79, 0x92, 0x4E, 0x60, 0x76, 0x82, 0x4E,
    0x40, 0x61, 0x80, 0x55, 0x40, 0x00, 0x80, 0x49, 0x40, 0x00, 0x8C, 0x36,
    0x40, 0x18, 0x90, 0x52, 0x4C, 0x00, 0x90, 0x46, 0x4C, 0x00, 0x92, 0x4E,
    0x60, 0x00, 0x9C, 0x2A, 0x5B, 0x00, 0x8D, 0x23, 0x40, 0x00, 0x9D, 0x2A,
    0x5B, 0x00, 0x89, 0x36, 0x40, 0x00, 0x99, 0x36, 0x5B, 0x00, 0x8E, 0x23,
    0x40, 0x00, 0x9E, 0x1E, 0x4F, 0x78, 0x82, 0x4E, 0x40, 0x6C, 0x8C, 0x2A,
    0x40, 0x0D, 0x92, 0x4E, 0x60, 0x00, 0x9C, 0x31, 0x5B, 0x76, 0x82, 0x4E,
    0x40, 0x6D, 0x8C, 0x31, 0x40, 0x0C, 0x92, 0x4E, 0x60, 0x00, 0x9C, 0x36,
    0x5B, 0x00, 0x89, 0x36, 0x40, 0x00, 0x99, 0x36, 0x5B, 0x78, 0x82, 0x4E,
    0x40, 0x6B, 0x8C, 0x36, 0x40, 0x0D, 0x8D, 0x2A, 0x40, 0x01, 0x92, 0x4E,
    0x60, 0x00, 0x9C, 0x31, 0x5B, 0x00, 0x9D, 0x25, 0x5B, 0x76, 0x82, 0x4E,
    0x40, 0x6D, 0x8C, 0x31, 0x40, 0x0C, 0x92, 0x4E, 0x60, 0x00, 0x9C, 0x3A,
    0x5B, 0x00, 0x89, 0x36, 0x40, 0x00, 0x99, 0x36, 0x5B, 0x78, 0x82, 0x4E,
    0x40, 0x6B, 0x8C, 0x3A, 0x40, 0x0D, 0x81, 0x52, 0x40, 0x00, 0x8D, 0x25,
    0x40, 0x01, 0x91, 0x4E, 0x61, 0x00, 0x92, 0x4E, 0x60, 0x00, 0x9C, 0x36,
    0x5B, 0x00, 0x9D, 0x2A, 0x5B, 0x76, 0x82, 0x4E, 0x40, 0x31, 0x80, 0x52,
    0x40, 0x00, 0x80, 0x46, 0x40, 0x3C, 0x8C, 0x36, 0x40, 0x0C, 0x90, 0x52,
    0x4C, 0x00, 0x90, 0x46, 0x4C, 0x00, 0x81, 0x4E, 0x40, 0x00, 0x91, 0x4E,
    0x61, 0x00, 0x92, 0x4E, 0x60, 0x00, 0x9C, 0x31, 0x5B, 0x00, 0x8D, 0x2A,
    0x40, 0x00, 0x9D, 0x25, 0x5B, 0x00, 0x89, 0x36, 0x40, 0x00, 0x99, 0x36,
    0x5B, 0x78, 0x82, 0x4E, 0x40, 0x77, 0x81, 0x4E, 0x40, 0x00, 0x8D, 0x25,
    0x40, 0x02, 0x91, 0x4E, 0x61, 0x00, 0x92, 0x4E, 0x60, 0x00, 0x9D, 0x22,
    0x5B, 0x76, 0x82, 0x4E, 0x40, 0x61, 0x80, 0x52, 0x40, 0x00, 0x80, 0x46,
    0x40, 0x00, 0x8C, 0x31, 0x40, 0x18, 0x90, 0x41, 0x55, 0x00, 0x90, 0x4D,
    0x60, 0x00, 0x81, 0x4E, 0x40, 0x00, 0x91, 0x4D, 0x52, 0x00, 0x92, 0x4D,
    0x60, 0x00, 0x9C, 0x25, 0x5B, 0x00, 0x8D, 0x22, 0x40, 0x00, 0x9D, 0x25,
    0x5B, 0x00, 0x89, 0x36, 0x40, 0x00, 0x99, 0x36, 0x5B, 0x00, 0x8E, 0x1E,
    0x40, 0x00, 0x9E, 0x25, 0x4D, 0x78, 0x82, 0x4D, 0x40, 0x6B, 0x8C, 0x25,
    0x40, 0x0E, 0x92, 0x4D, 0x60, 0x00, 0x9C, 0x2C, 0x5B, 0x77, 0x82, 0x4D,
    0x40, 0x6C, 0x8C, 0x2C, 0x40, 0x0C, 0x92, 0x4D, 0x60, 0x00, 0x9C, 0x31,
    0x5B, 0x00, 0x89, 0x36, 0x40, 0x00, 0x99, 0x36, 0x5B, 0x78, 0x82, 0x4D,
    0x40, 0x6B, 0x8C, 0x31, 0x40, 0x0C, 0x81, 0x4D, 0x40, 0x00, 0x8D, 0x25,
    0x40, 0x02, 0x91, 0x4D, 0x60, 0x00, 0x92, 0x4D, 0x60, 0x00, 0x9C, 0x2C,
    0x5B, 0x00, 0x9D, 0x20, 0x5B, 0x77, 0x82, 0x4D, 0x40, 0x6C, 0x8C, 0x2C,
    0x40, 0x0C, 0x81, 0x4D, 0x40, 0x00, 0x91, 0x4B, 0x60, 0x00, 0x92, 0x4D,
    0x60, 0x00, 0x9C, 0x35, 0x5B, 0x00, 0x89, 0x36, 0x40, 0x00, 0x99, 0x36,
    0x5B, 0x78, 0x82, 0x4D, 0x40, 0x6B, 0x8C, 0x35, 0x40, 0x0C, 0x81, 0x4B,
    0x40, 0x00, 0x8D, 0x20, 0x40, 0x02, 0x91, 0x4B, 0x52, 0x00, 0x92, 0x4D,
    0x60, 0x00, 0x9C, 0x31, 0x5B, 0x00, 0x9D, 0x25, 0x5B, 0x77, 0x82, 0x4D,
    0x40, 0x2F, 0x80, 0x41, 0x40, 0x00, 0x80, 0x4D, 0x40, 0x3D, 0x8C, 0x31,
    0x40, 0x0C, 0x90, 0x4B, 0x4C, 0x00, 0x90, 0x3F, 0x4C, 0x00, 0x81, 0x4B,
    0x40, 0x00, 0x91, 0x4E, 0x60, 0x00, 0x92, 0x4D, 0x60, 0x00, 0x9C, 0x2C,
    0x5B, 0x00, 0x8D, 0x25, 0x40, 0x00, 0x9D, 0x25, 0x5B, 0x00, 0x89, 0x36,
    0x40, 0x00, 0x99, 0x36, 0x61, 0x78, 0x82, 0x4D, 0x40, 0x6B, 0x80, 0x4B,
    0x40, 0x00, 0x80, 0x3F, 0x40, 0x0C, 0x89, 0x36, 0x40, 0x02, 0x90, 0x4D,
    0x4C, 0x00, 0x90, 0x41, 0x4C, 0x00, 0x92, 0x4D, 0x60, 0x00, 0x99, 0x35,
    0x5B, 0x77, 0x82, 0x4D, 0x40, 0x60, 0x8C, 0x2C, 0x40, 0x0C, 0x80, 0x4D,
    0x40, 0x00, 0x80, 0x41, 0x40, 0x0C, 0x81, 0x4E, 0x40, 0x00, 0x8D, 0x25,
    0x40, 0x00, 0x89, 0x35, 0x40, 0x00, 0x8E, 0x25, 0x40, 0x01, 0x90, 0x4E,
    0x4C, 0x00, 0x90, 0x42, 0x4C, 0x00, 0x92, 0x4E, 0x60, 0x00, 0x9C, 0x27,
    0x5B, 0x00, 0x9D, 0x27, 0x5B, 0x00, 0x99, 0x37, 0x5B, 0x00, 0x9E, 0x27,
    0x5F, 0x77, 0x82, 0x4E, 0x40, 0x6B, 0x8C, 0x27, 0x40, 0x0E, 0x91, 0x4E,
    0x4D, 0x00, 0x92, 0x4E, 0x60, 0x00, 0x9C, 0x2E, 0x5B, 0x77, 0x82, 0x4E,
    0x40, 0x6C, 0x8C, 0x2E, 0x40, 0x0C, 0x81, 0x4E, 0x40, 0x00, 0x8D, 0x27,
    0x40, 0x00, 0x89, 0x37, 0x40, 0x01, 0x91, 0x4E, 0x61, 0x00, 0x92, 0x4E,
    0x60, 0x00, 0x9C, 0x33, 0x5B, 0x00, 0x9D, 0x2A, 0x5B, 0x00, 0x99, 0x36,
    0x5B, 0x77, 0x82, 0x4E, 0x40, 0x6C, 0x8C, 0x33, 0x40, 0x0B, 0x81, 0x4E,
    0x40, 0x00, 0x8D, 0x2A, 0x40, 0x02, 0x91, 0x50, 0x4C, 0x00, 0x92, 0x4E,
    0x60, 0x00, 0x9C, 0x2E, 0x5B, 0x00, 0x9D, 0x27, 0x5B, 0x77, 0x82, 0x4E,
    0x40, 0x6C, 0x8C, 0x2E, 0x40, 0x0C, 0x81, 0x50, 0x40, 0x00, 0x89, 0x36,
    0x40, 0x01, 0x91, 0x4B, 0x61, 0x00, 0x92, 0x4E, 0x60, 0x00, 0x9C, 0x36,
    0x5B, 0x00, 0x99, 0x37, 0x5B, 0x76, 0x82, 0x4E, 0x40, 0x6D, 0x8C, 0x36,
    0x40, 0x0B, 0x81, 0x4B, 0x40, 0x00, 0x8D, 0x27, 0x40, 0x02, 0x91, 0x4B,
    0x4E, 0x00, 0x92, 0x4E, 0x60, 0x00, 0x9C, 0x33, 0x5B, 0x00, 0x9D, 0x22,
    0x5B, 0x77, 0x82, 0x4E, 0x40, 0x2F, 0x80, 0x4E, 0x40, 0x00, 0x80, 0x42,
    0x40, 0x3D, 0x8C, 0x33, 0x40, 0x0C, 0x81, 0x4B, 0x40, 0x00, 0x8D, 0x22,
    0x40, 0x00, 0x89, 0x37, 0x40, 0x01, 0x90, 0x52, 0x4C, 0x00, 0x90, 0x46,
    0x4C, 0x00, 0x91, 0x4E, 0x61, 0x00, 0x92, 0x4E, 0x60, 0x00, 0x9C, 0x2E,
    0x5B, 0x00, 0x9D, 0x27, 0x5B, 0x00, 0x99, 0x36, 0x5B, 0x76, 0x82, 0x4E,
    0x40, 0x79, 0x81, 0x4E, 0x40, 0x00, 0x8D, 0x27, 0x40, 0x01, 0x91, 0x50,
    0x55, 0x00, 0x92, 0x4E, 0x60, 0x00, 0x9D, 0x22, 0x5B, 0x77, 0x82, 0x4E,
    0x40, 0x60, 0x80, 0x52, 0x40, 0x00, 0x80, 0x46, 0x40, 0x00, 0x8C, 0x2E,
    0x40, 0x18, 0x81, 0x50, 0x40, 0x00, 0x8D, 0x22, 0x40, 0x00, 0x89, 0x36,
    0x40, 0x00, 0x8E, 0x27, 0x40, 0x01, 0x90, 0x57, 0x4C, 0x00, 0x90, 0x4B,
    0x4C, 0x00, 0x91, 0x52, 0x4D, 0x00, 0x92, 0x4E, 0x60, 0x00, 0x9C, 0x2F,
    0x5B, 0x00, 0x9D, 0x23, 0x5B, 0x00, 0x99, 0x37, 0x5B, 0x00, 0x9E, 0x23,
    0x5F, 0x76, 0x82, 0x4E, 0x40, 0x6D, 0x8C, 0x2F, 0x40, 0x0C, 0x92, 0x4E,
    0x60, 0x00, 0x9C, 0x36, 0x5B, 0x78, 0x82, 0x4E, 0x40, 0x6C, 0x8C, 0x36,
    0x40, 0x0C, 0x81, 0x52, 0x40, 0x00, 0x8D, 0x23, 0x40, 0x00, 0x89, 0x37,
    0x40, 0x01, 0x91, 0x4E, 0x61, 0x00, 0x92, 0x4E, 0x60, 0x00, 0x9C, 0x3B,
    0x5B, 0x00, 0x9D, 0x1E, 0x5B, 0x00, 0x99, 0x36, 0x5B, 0x76, 0x82, 0x4E,
    0x40, 0x6D, 0x8C, 0x3B, 0x40, 0x0C, 0x81, 0x4E, 0x40, 0x00, 0x91, 0x4E,
    0x61, 0x00, 0x92, 0x4E, 0x60, 0x00, 0x9C, 0x36, 0x5B, 0x00, 0x8D, 0x1E,
    0x40, 0x00, 0x9D, 0x23, 0x5B, 0x78, 0x82, 0x4E, 0x40, 0x6C, 0x8C, 0x36,
    0x40, 0x0C, 0x81, 0x4E, 0x40, 0x00, 0x89, 0x36, 0x40, 0x00, 0xFF, 0x2F,
    0x00
};

#define VS1003B_PITCH_CAL_MIDI_LEN 162U
#define VS1003B_PITCH_CAL_MIDI_SOURCE "VS1003_pitch_calibration_C_major"
static const u8 Vs1003bPitchCalibrationMidi[VS1003B_PITCH_CAL_MIDI_LEN] = {
    0x4D, 0x54, 0x68, 0x64, 0x00, 0x00, 0x00, 0x06, 0x00, 0x00, 0x00, 0x01,
    0x01, 0xE0, 0x4D, 0x54, 0x72, 0x6B, 0x00, 0x00, 0x00, 0x8C, 0x00, 0xFF,
    0x03, 0x21, 0x56, 0x53, 0x31, 0x30, 0x30, 0x33, 0x42, 0x20, 0x43, 0x20,
    0x6D, 0x61, 0x6A, 0x6F, 0x72, 0x20, 0x70, 0x69, 0x74, 0x63, 0x68, 0x20,
    0x63, 0x61, 0x6C, 0x69, 0x62, 0x72, 0x61, 0x74, 0x69, 0x6F, 0x6E, 0x00,
    0xFF, 0x51, 0x03, 0x0C, 0xB7, 0x35, 0x00, 0xFF, 0x58, 0x04, 0x04, 0x02,
    0x18, 0x08, 0x00, 0xC0, 0x00, 0x00, 0x90, 0x3B, 0x76, 0x83, 0x60, 0x80,
    0x3B, 0x00, 0x26, 0x90, 0x3D, 0x76, 0x83, 0x60, 0x80, 0x3D, 0x00, 0x26,
    0x90, 0x3F, 0x76, 0x83, 0x60, 0x80, 0x3F, 0x00, 0x26, 0x90, 0x40, 0x76,
    0x83, 0x60, 0x80, 0x40, 0x00, 0x26, 0x90, 0x42, 0x76, 0x83, 0x60, 0x80,
    0x42, 0x00, 0x26, 0x90, 0x44, 0x76, 0x83, 0x60, 0x80, 0x44, 0x00, 0x26,
    0x90, 0x46, 0x76, 0x83, 0x60, 0x80, 0x46, 0x00, 0x26, 0x90, 0x47, 0x76,
    0x83, 0x60, 0x80, 0x47, 0x00, 0x26, 0x90, 0x47, 0x76, 0x87, 0x40, 0x80,
    0x47, 0x00, 0x00, 0xFF, 0x2F, 0x00
};

#define VS1003B_APHASIA_MIDI_LEN 2790U
#define VS1003B_APHASIA_MIDI_SOURCE "Aphasia_phrase_bar64_128_dual_tone_balanced_128bpm"
static const u8 Vs1003bAphasiaMidi[VS1003B_APHASIA_MIDI_LEN] = {
    0x4D, 0x54, 0x68, 0x64, 0x00, 0x00, 0x00, 0x06, 0x00, 0x00, 0x00, 0x01,
    0x01, 0x00, 0x4D, 0x54, 0x72, 0x6B, 0x00, 0x00, 0x0A, 0xD0, 0x00, 0xB0,
    0x07, 0x76, 0x00, 0xB1, 0x07, 0x5E, 0x00, 0xB0, 0x0B, 0x7F, 0x00, 0xFF,
    0x03, 0x15, 0x41, 0x70, 0x68, 0x61, 0x73, 0x69, 0x61, 0x20, 0x70, 0x68,
    0x72, 0x61, 0x73, 0x65, 0x20, 0x36, 0x34, 0x2D, 0x31, 0x32, 0x38, 0x00,
    0xC0, 0x00, 0x00, 0xB0, 0x07, 0x76, 0x00, 0xB0, 0x0B, 0x7F, 0x00, 0xC1,
    0x50, 0x00, 0xB1, 0x07, 0x5E, 0x00, 0xB1, 0x0B, 0x20, 0x00, 0xFF, 0x51,
    0x03, 0x07, 0x27, 0x0E, 0x00, 0xFF, 0x58, 0x04, 0x04, 0x02, 0x18, 0x08,
    0x00, 0xFF, 0x59, 0x02, 0xFD, 0x00, 0x00, 0x90, 0x50, 0x45, 0x00, 0x91,
    0x44, 0x7A, 0x00, 0x91, 0x4B, 0x7A, 0x00, 0x91, 0x52, 0x7A, 0x74, 0x90,
    0x50, 0x00, 0x00, 0x91, 0x44, 0x00, 0x00, 0x91, 0x4B, 0x00, 0x00, 0x91,
    0x52, 0x00, 0x0C, 0x90, 0x52, 0x4E, 0x00, 0x91, 0x44, 0x69, 0x00, 0x91,
    0x52, 0x69, 0x74, 0x90, 0x52, 0x00, 0x00, 0x91, 0x44, 0x00, 0x00, 0x91,
    0x52, 0x00, 0x0C, 0x90, 0x56, 0x52, 0x00, 0x91, 0x44, 0x51, 0x00, 0x91,
    0x4B, 0x51, 0x74, 0x90, 0x56, 0x00, 0x00, 0x91, 0x44, 0x00, 0x00, 0x91,
    0x4B, 0x00, 0x0C, 0x90, 0x57, 0x4E, 0x00, 0x91, 0x44, 0x63, 0x00, 0x91,
    0x4B, 0x63, 0x74, 0x90, 0x57, 0x00, 0x00, 0x91, 0x44, 0x00, 0x00, 0x91,
    0x4B, 0x00, 0x0C, 0x90, 0x5E, 0x59, 0x00, 0x91, 0x44, 0x7C, 0x00, 0x91,
    0x4B, 0x7C, 0x00, 0x91, 0x52, 0x7C, 0x74, 0x91, 0x44, 0x00, 0x00, 0x91,
    0x4B, 0x00, 0x00, 0x91, 0x52, 0x00, 0x0C, 0x91, 0x44, 0x6A, 0x00, 0x91,
    0x52, 0x6A, 0x74, 0x91, 0x44, 0x00, 0x00, 0x91, 0x52, 0x00, 0x0C, 0x91,
    0x44, 0x52, 0x00, 0x91, 0x4B, 0x52, 0x74, 0x91, 0x44, 0x00, 0x00, 0x91,
    0x4B, 0x00, 0x0C, 0x91, 0x44, 0x69, 0x00, 0x91, 0x4D, 0x69, 0x4E, 0x90,
    0x5E, 0x00, 0x32, 0x90, 0x52, 0x3A, 0x00, 0x91, 0x46, 0x68, 0x00, 0x91,
    0x4A, 0x68, 0x00, 0x91, 0x4D, 0x68, 0x74, 0x90, 0x52, 0x00, 0x00, 0x91,
    0x46, 0x00, 0x00, 0x91, 0x4A, 0x00, 0x00, 0x91, 0x4D, 0x00, 0x0B, 0x91,
    0x44, 0x00, 0x00, 0x91, 0x4D, 0x00, 0x01, 0x90, 0x56, 0x4E, 0x00, 0x91,
    0x46, 0x61, 0x00, 0x91, 0x4B, 0x61, 0x74, 0x90, 0x56, 0x00, 0x00, 0x91,
    0x46, 0x00, 0x00, 0x91, 0x4B, 0x00, 0x0C, 0x90, 0x57, 0x4F, 0x00, 0x91,
    0x46, 0x69, 0x00, 0x91, 0x4D, 0x69, 0x74, 0x90, 0x57, 0x00, 0x00, 0x91,
    0x46, 0x00, 0x00, 0x91, 0x4D, 0x00, 0x0C, 0x90, 0x59, 0x4E, 0x00, 0x91,
    0x46, 0x64, 0x00, 0x91, 0x4D, 0x64, 0x74, 0x90, 0x59, 0x00, 0x00, 0x91,
    0x46, 0x00, 0x00, 0x91, 0x4D, 0x00, 0x0C, 0x90, 0x5E, 0x54, 0x00, 0x91,
    0x46, 0x69, 0x00, 0x91, 0x4A, 0x69, 0x00, 0x91, 0x4D, 0x69, 0x74, 0x91,
    0x46, 0x00, 0x00, 0x91, 0x4A, 0x00, 0x00, 0x91, 0x4D, 0x00, 0x0C, 0x91,
    0x46, 0x67, 0x00, 0x91, 0x4D, 0x67, 0x74, 0x91, 0x46, 0x00, 0x00, 0x91,
    0x4D, 0x00, 0x0C, 0x91, 0x46, 0x59, 0x00, 0x91, 0x48, 0x59, 0x74, 0x91,
    0x46, 0x00, 0x00, 0x91, 0x48, 0x00, 0x0C, 0x91, 0x46, 0x6C, 0x00, 0x91,
    0x4B, 0x6C, 0x4E, 0x90, 0x5E, 0x00, 0x26, 0x91, 0x46, 0x00, 0x00, 0x91,
    0x4B, 0x00, 0x0C, 0x90, 0x54, 0x40, 0x00, 0x91, 0x48, 0x76, 0x00, 0x91,
    0x4B, 0x76, 0x00, 0x91, 0x4F, 0x76, 0x74, 0x90, 0x54, 0x00, 0x00, 0x91,
    0x48, 0x00, 0x00, 0x91, 0x4B, 0x00, 0x00, 0x91, 0x4F, 0x00, 0x0C, 0x90,
    0x56, 0x4B, 0x00, 0x91, 0x48, 0x57, 0x74, 0x90, 0x56, 0x00, 0x00, 0x91,
    0x48, 0x00, 0x0C, 0x90, 0x57, 0x4C, 0x00, 0x91, 0x48, 0x6A, 0x00, 0x91,
    0x4B, 0x6A, 0x74, 0x90, 0x57, 0x00, 0x00, 0x91, 0x48, 0x00, 0x00, 0x91,
    0x4B, 0x00, 0x0C, 0x90, 0x59, 0x4E, 0x00, 0x91, 0x48, 0x66, 0x00, 0x91,
    0x4B, 0x66, 0x74, 0x90, 0x59, 0x00, 0x00, 0x91, 0x48, 0x00, 0x00, 0x91,
    0x4B, 0x00, 0x0C, 0x90, 0x5E, 0x53, 0x00, 0x91, 0x48, 0x6A, 0x00, 0x91,
    0x4B, 0x6A, 0x74, 0x91, 0x48, 0x00, 0x00, 0x91, 0x4B, 0x00, 0x0C, 0x91,
    0x48, 0x64, 0x00, 0x91, 0x4B, 0x64, 0x74, 0x91, 0x48, 0x00, 0x00, 0x91,
    0x4B, 0x00, 0x0C, 0x91, 0x48, 0x67, 0x00, 0x91, 0x4B, 0x67, 0x74, 0x91,
    0x48, 0x00, 0x00, 0x91, 0x4B, 0x00, 0x0C, 0x91, 0x48, 0x65, 0x00, 0x91,
    0x4B, 0x65, 0x4E, 0x90, 0x5E, 0x00, 0x26, 0x91, 0x48, 0x00, 0x00, 0x91,
    0x4B, 0x00, 0x0C, 0x90, 0x54, 0x3D, 0x00, 0x91, 0x46, 0x5C, 0x74, 0x90,
    0x54, 0x00, 0x00, 0x91, 0x46, 0x00, 0x0C, 0x90, 0x56, 0x4B, 0x00, 0x91,
    0x46, 0x70, 0x00, 0x91, 0x4B, 0x70, 0x74, 0x90, 0x56, 0x00, 0x00, 0x91,
    0x46, 0x00, 0x00, 0x91, 0x4B, 0x00, 0x0C, 0x90, 0x57, 0x4D, 0x00, 0x91,
    0x46, 0x6C, 0x00, 0x91, 0x4D, 0x6C, 0x74, 0x90, 0x57, 0x00, 0x00, 0x91,
    0x46, 0x00, 0x00, 0x91, 0x4D, 0x00, 0x0C, 0x90, 0x59, 0x50, 0x00, 0x91,
    0x46, 0x61, 0x00, 0x91, 0x4B, 0x61, 0x74, 0x90, 0x59, 0x00, 0x00, 0x91,
    0x46, 0x00, 0x00, 0x91, 0x4B, 0x00, 0x0C, 0x90, 0x5E, 0x56, 0x00, 0x91,
    0x46, 0x71, 0x00, 0x91, 0x4F, 0x71, 0x74, 0x90, 0x5E, 0x00, 0x00, 0x91,
    0x46, 0x00, 0x00, 0x91, 0x4F, 0x00, 0x0C, 0x90, 0x5C, 0x47, 0x00, 0x91,
    0x46, 0x5B, 0x00, 0x91, 0x4B, 0x5B, 0x74, 0x90, 0x5C, 0x00, 0x00, 0x91,
    0x46, 0x00, 0x00, 0x91, 0x4B, 0x00, 0x0C, 0x90, 0x5B, 0x44, 0x00, 0x91,
    0x4D, 0x6A, 0x74, 0x90, 0x5B, 0x00, 0x00, 0x91, 0x4D, 0x00, 0x0C, 0x90,
    0x59, 0x46, 0x00, 0x91, 0x4B, 0x5E, 0x74, 0x90, 0x59, 0x00, 0x00, 0xFF,
    0x59, 0x02, 0xFD, 0x00, 0x00, 0x91, 0x4B, 0x00, 0x00, 0xFF, 0x59, 0x02,
    0xFD, 0x00, 0x0C, 0xB1, 0x0B, 0x3A, 0x00, 0x90, 0x50, 0x3D, 0x00, 0x91,
    0x44, 0x78, 0x00, 0x91, 0x4B, 0x78, 0x00, 0x91, 0x52, 0x78, 0x74, 0x90,
    0x50, 0x00, 0x00, 0x91, 0x44, 0x00, 0x00, 0x91, 0x4B, 0x00, 0x00, 0x91,
    0x52, 0x00, 0x0C, 0x90, 0x52, 0x4B, 0x00, 0x91, 0x44, 0x6B, 0x00, 0x91,
    0x52, 0x6B, 0x74, 0x90, 0x52, 0x00, 0x00, 0x91, 0x44, 0x00, 0x00, 0x91,
    0x52, 0x00, 0x0C, 0x90, 0x56, 0x53, 0x00, 0x91, 0x44, 0x51, 0x00, 0x91,
    0x4B, 0x51, 0x74, 0x90, 0x56, 0x00, 0x00, 0x91, 0x44, 0x00, 0x00, 0x91,
    0x4B, 0x00, 0x0C, 0x90, 0x57, 0x4E, 0x00, 0x91, 0x44, 0x60, 0x00, 0x91,
    0x4B, 0x60, 0x74, 0x90, 0x57, 0x00, 0x00, 0x91, 0x44, 0x00, 0x00, 0x91,
    0x4B, 0x00, 0x0C, 0x90, 0x5E, 0x56, 0x00, 0x91, 0x44, 0x7D, 0x00, 0x91,
    0x4B, 0x7D, 0x00, 0x91, 0x52, 0x7D, 0x74, 0x91, 0x44, 0x00, 0x00, 0x91,
    0x4B, 0x00, 0x00, 0x91, 0x52, 0x00, 0x0C, 0x91, 0x44, 0x69, 0x00, 0x91,
    0x52, 0x69, 0x74, 0x91, 0x44, 0x00, 0x00, 0x91, 0x52, 0x00, 0x0C, 0x91,
    0x44, 0x54, 0x00, 0x91, 0x4B, 0x54, 0x74, 0x91, 0x44, 0x00, 0x00, 0x91,
    0x4B, 0x00, 0x0C, 0x91, 0x44, 0x68, 0x00, 0x91, 0x4D, 0x68, 0x4E, 0x90,
    0x5E, 0x00, 0x32, 0x90, 0x52, 0x3A, 0x00, 0x91, 0x46, 0x6A, 0x00, 0x91,
    0x4A, 0x6A, 0x00, 0x91, 0x4D, 0x6A, 0x74, 0x90, 0x52, 0x00, 0x00, 0x91,
    0x46, 0x00, 0x00, 0x91, 0x4A, 0x00, 0x00, 0x91, 0x4D, 0x00, 0x0B, 0x91,
    0x44, 0x00, 0x00, 0x91, 0x4D, 0x00, 0x01, 0x90, 0x56, 0x4E, 0x00, 0x91,
    0x46, 0x5D, 0x00, 0x91, 0x4B, 0x5D, 0x74, 0x90, 0x56, 0x00, 0x00, 0x91,
    0x46, 0x00, 0x00, 0x91, 0x4B, 0x00, 0x0C, 0x90, 0x57, 0x4D, 0x00, 0x91,
    0x46, 0x6B, 0x00, 0x91, 0x4D, 0x6B, 0x74, 0x90, 0x57, 0x00, 0x00, 0x91,
    0x46, 0x00, 0x00, 0x91, 0x4D, 0x00, 0x0C, 0x90, 0x59, 0x4F, 0x00, 0x91,
    0x46, 0x64, 0x00, 0x91, 0x4D, 0x64, 0x74, 0x90, 0x59, 0x00, 0x00, 0x91,
    0x46, 0x00, 0x00, 0x91, 0x4D, 0x00, 0x0C, 0x90, 0x5E, 0x54, 0x00, 0x91,
    0x46, 0x69, 0x00, 0x91, 0x4A, 0x69, 0x00, 0x91, 0x4D, 0x69, 0x74, 0x91,
    0x46, 0x00, 0x00, 0x91, 0x4A, 0x00, 0x00, 0x91, 0x4D, 0x00, 0x0C, 0x91,
    0x46, 0x66, 0x00, 0x91, 0x4D, 0x66, 0x74, 0x91, 0x46, 0x00, 0x00, 0x91,
    0x4D, 0x00, 0x0C, 0x91, 0x46, 0x59, 0x00, 0x91, 0x48, 0x59, 0x74, 0x91,
    0x46, 0x00, 0x00, 0x91, 0x48, 0x00, 0x0C, 0x91, 0x46, 0x6C, 0x00, 0x91,
    0x4B, 0x6C, 0x4E, 0x90, 0x5E, 0x00, 0x26, 0x91, 0x46, 0x00, 0x00, 0x91,
    0x4B, 0x00, 0x0C, 0x90, 0x54, 0x40, 0x00, 0x91, 0x48, 0x76, 0x00, 0x91,
    0x4B, 0x76, 0x00, 0x91, 0x4F, 0x76, 0x74, 0x90, 0x54, 0x00, 0x00, 0x91,
    0x48, 0x00, 0x00, 0x91, 0x4B, 0x00, 0x00, 0x91, 0x4F, 0x00, 0x0C, 0x90,
    0x56, 0x4E, 0x00, 0x91, 0x48, 0x54, 0x74, 0x90, 0x56, 0x00, 0x00, 0x91,
    0x48, 0x00, 0x0C, 0x90, 0x57, 0x4F, 0x00, 0x91, 0x48, 0x6D, 0x00, 0x91,
    0x4B, 0x6D, 0x74, 0x90, 0x57, 0x00, 0x00, 0x91, 0x48, 0x00, 0x00, 0x91,
    0x4B, 0x00, 0x0C, 0x90, 0x59, 0x51, 0x00, 0x91, 0x48, 0x67, 0x00, 0x91,
    0x4B, 0x67, 0x74, 0x90, 0x59, 0x00, 0x00, 0x91, 0x48, 0x00, 0x00, 0x91,
    0x4B, 0x00, 0x0C, 0x90, 0x5E, 0x54, 0x00, 0x91, 0x48, 0x6B, 0x00, 0x91,
    0x4B, 0x6B, 0x74, 0x91, 0x48, 0x00, 0x00, 0x91, 0x4B, 0x00, 0x0C, 0x91,
    0x48, 0x65, 0x00, 0x91, 0x4B, 0x65, 0x74, 0x91, 0x48, 0x00, 0x00, 0x91,
    0x4B, 0x00, 0x0C, 0x91, 0x48, 0x65, 0x00, 0x91, 0x4B, 0x65, 0x81, 0x4E,
    0x90, 0x5E, 0x00, 0x32, 0x90, 0x52, 0x50, 0x00, 0x90, 0x5E, 0x50, 0x74,
    0x90, 0x52, 0x00, 0x00, 0x90, 0x5E, 0x00, 0x0C, 0x90, 0x2B, 0x3D, 0x00,
    0x90, 0x56, 0x3D, 0x74, 0x90, 0x2B, 0x00, 0x00, 0x90, 0x56, 0x00, 0x0C,
    0x90, 0x2D, 0x4D, 0x00, 0x90, 0x57, 0x4D, 0x74, 0x90, 0x2D, 0x00, 0x00,
    0x90, 0x57, 0x00, 0x0C, 0x90, 0x52, 0x57, 0x00, 0x90, 0x5E, 0x57, 0x81,
    0x74, 0x90, 0x52, 0x00, 0x00, 0x90, 0x5E, 0x00, 0x0C, 0x90, 0x2B, 0x3D,
    0x00, 0x90, 0x56, 0x3D, 0x74, 0x90, 0x2B, 0x00, 0x00, 0x90, 0x56, 0x00,
    0x0C, 0x90, 0x2D, 0x4C, 0x00, 0x90, 0x57, 0x4C, 0x74, 0x90, 0x2D, 0x00,
    0x00, 0x90, 0x57, 0x00, 0x0C, 0x90, 0x52, 0x59, 0x00, 0x90, 0x5E, 0x59,
    0x4E, 0x91, 0x48, 0x00, 0x00, 0x91, 0x4B, 0x00, 0x00, 0xFF, 0x59, 0x02,
    0xFD, 0x00, 0x26, 0x90, 0x52, 0x00, 0x00, 0x90, 0x5E, 0x00, 0x00, 0xFF,
    0x59, 0x02, 0xFD, 0x00, 0x0C, 0xB1, 0x0B, 0x58, 0x00, 0xFF, 0x06, 0x01,
    0x66, 0x00, 0x90, 0x52, 0x6E, 0x00, 0x90, 0x5E, 0x6E, 0x00, 0x91, 0x38,
    0x56, 0x00, 0x91, 0x44, 0x56, 0x81, 0x67, 0x90, 0x52, 0x00, 0x00, 0x90,
    0x5E, 0x00, 0x00, 0x91, 0x38, 0x00, 0x00, 0x91, 0x44, 0x00, 0x19, 0x90,
    0x52, 0x65, 0x00, 0x90, 0x5E, 0x65, 0x00, 0x91, 0x44, 0x76, 0x00, 0x91,
    0x48, 0x76, 0x00, 0x91, 0x4B, 0x76, 0x81, 0x67, 0x90, 0x52, 0x00, 0x00,
    0x90, 0x5E, 0x00, 0x00, 0x91, 0x44, 0x00, 0x00, 0x91, 0x48, 0x00, 0x00,
    0x91, 0x4B, 0x00, 0x19, 0x90, 0x52, 0x65, 0x00, 0x90, 0x5E, 0x65, 0x00,
    0x91, 0x38, 0x53, 0x00, 0x91, 0x44, 0x53, 0x81, 0x67, 0x90, 0x52, 0x00,
    0x00, 0x90, 0x5E, 0x00, 0x00, 0x91, 0x38, 0x00, 0x00, 0x91, 0x44, 0x00,
    0x19, 0x90, 0x4B, 0x58, 0x00, 0x90, 0x57, 0x58, 0x00, 0x91, 0x44, 0x78,
    0x00, 0x91, 0x48, 0x78, 0x00, 0x91, 0x4B, 0x78, 0x74, 0x90, 0x4B, 0x00,
    0x00, 0x90, 0x57, 0x00, 0x0C, 0x90, 0x4D, 0x68, 0x00, 0x90, 0x59, 0x68,
    0x67, 0x91, 0x44, 0x00, 0x00, 0x91, 0x48, 0x00, 0x00, 0x91, 0x4B, 0x00,
    0x19, 0x91, 0x3A, 0x5B, 0x00, 0x91, 0x46, 0x5B, 0x74, 0x90, 0x4D, 0x00,
    0x00, 0x90, 0x59, 0x00, 0x0C, 0x90, 0x4D, 0x65, 0x00, 0x90, 0x59, 0x65,
    0x67, 0x91, 0x3A, 0x00, 0x00, 0x91, 0x46, 0x00, 0x0D, 0x90, 0x4D, 0x00,
    0x00, 0x90, 0x59, 0x00, 0x0C, 0x90, 0x4D, 0x67, 0x00, 0x90, 0x59, 0x67,
    0x00, 0x91, 0x46, 0x77, 0x00, 0x91, 0x4A, 0x77, 0x00, 0x91, 0x4D, 0x77,
    0x74, 0x90, 0x4D, 0x00, 0x00, 0x90, 0x59, 0x00, 0x0C, 0x90, 0x4D, 0x65,
    0x00, 0x90, 0x59, 0x65, 0x67, 0x91, 0x46, 0x00, 0x00, 0x91, 0x4A, 0x00,
    0x00, 0x91, 0x4D, 0x00, 0x0D, 0x90, 0x4D, 0x00, 0x00, 0x90, 0x59, 0x00,
    0x0C, 0x90, 0x4D, 0x6A, 0x00, 0x90, 0x59, 0x6A, 0x00, 0x91, 0x3A, 0x54,
    0x00, 0x91, 0x46, 0x54, 0x74, 0x90, 0x4D, 0x00, 0x00, 0x90, 0x59, 0x00,
    0x0C, 0x90, 0x4D, 0x67, 0x00, 0x90, 0x59, 0x67, 0x67, 0x91, 0x3A, 0x00,
    0x00, 0x91, 0x46, 0x00, 0x0D, 0x90, 0x4D, 0x00, 0x00, 0x90, 0x59, 0x00,
    0x0C, 0x90, 0x48, 0x58, 0x00, 0x90, 0x54, 0x58, 0x00, 0x91, 0x46, 0x76,
    0x00, 0x91, 0x4A, 0x76, 0x00, 0x91, 0x4D, 0x76, 0x74, 0x90, 0x48, 0x00,
    0x00, 0x90, 0x54, 0x00, 0x0C, 0x90, 0x4B, 0x6D, 0x00, 0x90, 0x57, 0x6D,
    0x67, 0x91, 0x46, 0x00, 0x00, 0x91, 0x4A, 0x00, 0x00, 0x91, 0x4D, 0x00,
    0x0D, 0x90, 0x4B, 0x00, 0x00, 0x90, 0x57, 0x00, 0x0C, 0x90, 0x52, 0x7B,
    0x00, 0x90, 0x5E, 0x7B, 0x00, 0x91, 0x3C, 0x5D, 0x00, 0x91, 0x48, 0x5D,
    0x81, 0x67, 0x90, 0x52, 0x00, 0x00, 0x90, 0x5E, 0x00, 0x00, 0x91, 0x3C,
    0x00, 0x00, 0x91, 0x48, 0x00, 0x19, 0x90, 0x52, 0x68, 0x00, 0x90, 0x5E,
    0x68, 0x00, 0x91, 0x48, 0x75, 0x00, 0x91, 0x4B, 0x75, 0x00, 0x91, 0x4F,
    0x75, 0x81, 0x67, 0x90, 0x52, 0x00, 0x00, 0x90, 0x5E, 0x00, 0x00, 0x91,
    0x48, 0x00, 0x00, 0x91, 0x4B, 0x00, 0x00, 0x91, 0x4F, 0x00, 0x19, 0x90,
    0x52, 0x67, 0x00, 0x90, 0x5E, 0x67, 0x00, 0x91, 0x3C, 0x56, 0x00, 0x91,
    0x48, 0x56, 0x81, 0x67, 0x90, 0x52, 0x00, 0x00, 0x90, 0x5E, 0x00, 0x00,
    0x91, 0x3C, 0x00, 0x00, 0x91, 0x48, 0x00, 0x19, 0x90, 0x4B, 0x57, 0x00,
    0x90, 0x57, 0x57, 0x00, 0x91, 0x48, 0x76, 0x00, 0x91, 0x4B, 0x76, 0x00,
    0x91, 0x4F, 0x76, 0x74, 0x90, 0x4B, 0x00, 0x00, 0x90, 0x57, 0x00, 0x0C,
    0x90, 0x4D, 0x67, 0x00, 0x90, 0x59, 0x67, 0x67, 0x91, 0x48, 0x00, 0x00,
    0x91, 0x4B, 0x00, 0x00, 0x91, 0x4F, 0x00, 0x19, 0x91, 0x3A, 0x56, 0x00,
    0x91, 0x46, 0x56, 0x74, 0x90, 0x4D, 0x00, 0x00, 0x90, 0x59, 0x00, 0x0C,
    0x90, 0x4D, 0x68, 0x00, 0x90, 0x59, 0x68, 0x67, 0x91, 0x3A, 0x00, 0x00,
    0x91, 0x46, 0x00, 0x0D, 0x90, 0x4D, 0x00, 0x00, 0x90, 0x59, 0x00, 0x0C,
    0x90, 0x4D, 0x65, 0x00, 0x90, 0x59, 0x65, 0x00, 0x91, 0x46, 0x72, 0x00,
    0x91, 0x4A, 0x72, 0x00, 0x91, 0x4D, 0x72, 0x74, 0x90, 0x4D, 0x00, 0x00,
    0x90, 0x59, 0x00, 0x0C, 0x90, 0x4D, 0x68, 0x00, 0x90, 0x59, 0x68, 0x67,
    0x91, 0x46, 0x00, 0x00, 0x91, 0x4A, 0x00, 0x00, 0x91, 0x4D, 0x00, 0x0D,
    0x90, 0x4D, 0x00, 0x00, 0x90, 0x59, 0x00, 0x0C, 0x90, 0x4D, 0x68, 0x00,
    0x90, 0x59, 0x68, 0x00, 0x91, 0x3A, 0x55, 0x00, 0x91, 0x46, 0x55, 0x74,
    0x90, 0x4D, 0x00, 0x00, 0x90, 0x59, 0x00, 0x0C, 0x90, 0x4F, 0x6E, 0x00,
    0x90, 0x5B, 0x6E, 0x67, 0x91, 0x3A, 0x00, 0x00, 0x91, 0x46, 0x00, 0x0D,
    0x90, 0x4F, 0x00, 0x00, 0x90, 0x5B, 0x00, 0x0C, 0x90, 0x4F, 0x64, 0x00,
    0x90, 0x5B, 0x64, 0x00, 0x91, 0x46, 0x75, 0x00, 0x91, 0x4A, 0x75, 0x00,
    0x91, 0x4D, 0x75, 0x74, 0x90, 0x4F, 0x00, 0x00, 0x90, 0x5B, 0x00, 0x0C,
    0x90, 0x4F, 0x65, 0x00, 0x90, 0x5B, 0x65, 0x67, 0x91, 0x46, 0x00, 0x00,
    0x91, 0x4A, 0x00, 0x00, 0x91, 0x4D, 0x00, 0x00, 0xFF, 0x59, 0x02, 0xFD,
    0x00, 0x0D, 0x90, 0x4F, 0x00, 0x00, 0x90, 0x5B, 0x00, 0x00, 0xFF, 0x59,
    0x02, 0xFD, 0x00, 0x0C, 0xB1, 0x0B, 0x70, 0x00, 0x90, 0x52, 0x71, 0x00,
    0x90, 0x5E, 0x71, 0x00, 0x91, 0x38, 0x55, 0x00, 0x91, 0x44, 0x55, 0x81,
    0x67, 0x90, 0x52, 0x00, 0x00, 0x90, 0x5E, 0x00, 0x00, 0x91, 0x38, 0x00,
    0x00, 0x91, 0x44, 0x00, 0x19, 0x90, 0x52, 0x67, 0x00, 0x90, 0x5E, 0x67,
    0x00, 0x91, 0x44, 0x76, 0x00, 0x91, 0x48, 0x76, 0x00, 0x91, 0x4B, 0x76,
    0x81, 0x67, 0x90, 0x52, 0x00, 0x00, 0x90, 0x5E, 0x00, 0x00, 0x91, 0x44,
    0x00, 0x00, 0x91, 0x48, 0x00, 0x00, 0x91, 0x4B, 0x00, 0x19, 0x90, 0x52,
    0x66, 0x00, 0x90, 0x5E, 0x66, 0x00, 0x91, 0x38, 0x56, 0x00, 0x91, 0x44,
    0x56, 0x81, 0x67, 0x90, 0x52, 0x00, 0x00, 0x90, 0x5E, 0x00, 0x00, 0x91,
    0x38, 0x00, 0x00, 0x91, 0x44, 0x00, 0x19, 0x90, 0x4B, 0x55, 0x00, 0x90,
    0x57, 0x55, 0x00, 0x91, 0x44, 0x76, 0x00, 0x91, 0x48, 0x76, 0x00, 0x91,
    0x4B, 0x76, 0x74, 0x90, 0x4B, 0x00, 0x00, 0x90, 0x57, 0x00, 0x0C, 0x90,
    0x4D, 0x68, 0x00, 0x90, 0x59, 0x68, 0x67, 0x91, 0x44, 0x00, 0x00, 0x91,
    0x48, 0x00, 0x00, 0x91, 0x4B, 0x00, 0x19, 0x91, 0x3A, 0x5D, 0x00, 0x91,
    0x46, 0x5D, 0x74, 0x90, 0x4D, 0x00, 0x00, 0x90, 0x59, 0x00, 0x0C, 0x90,
    0x4D, 0x66, 0x00, 0x90, 0x59, 0x66, 0x67, 0x91, 0x3A, 0x00, 0x00, 0x91,
    0x46, 0x00, 0x0D, 0x90, 0x4D, 0x00, 0x00, 0x90, 0x59, 0x00, 0x0C, 0x90,
    0x4D, 0x66, 0x00, 0x90, 0x59, 0x66, 0x00, 0x91, 0x46, 0x76, 0x00, 0x91,
    0x4A, 0x76, 0x00, 0x91, 0x4D, 0x76, 0x74, 0x90, 0x4D, 0x00, 0x00, 0x90,
    0x59, 0x00, 0x0C, 0x90, 0x4D, 0x67, 0x00, 0x90, 0x59, 0x67, 0x67, 0x91,
    0x46, 0x00, 0x00, 0x91, 0x4A, 0x00, 0x00, 0x91, 0x4D, 0x00, 0x0D, 0x90,
    0x4D, 0x00, 0x00, 0x90, 0x59, 0x00, 0x0C, 0x90, 0x4D, 0x69, 0x00, 0x90,
    0x59, 0x69, 0x00, 0x91, 0x3A, 0x55, 0x00, 0x91, 0x46, 0x55, 0x74, 0x90,
    0x4D, 0x00, 0x00, 0x90, 0x59, 0x00, 0x0C, 0x90, 0x4D, 0x66, 0x00, 0x90,
    0x59, 0x66, 0x67, 0x91, 0x3A, 0x00, 0x00, 0x91, 0x46, 0x00, 0x0D, 0x90,
    0x4D, 0x00, 0x00, 0x90, 0x59, 0x00, 0x0C, 0x90, 0x48, 0x59, 0x00, 0x90,
    0x54, 0x59, 0x00, 0x91, 0x46, 0x75, 0x00, 0x91, 0x4A, 0x75, 0x00, 0x91,
    0x4D, 0x75, 0x74, 0x90, 0x48, 0x00, 0x00, 0x90, 0x54, 0x00, 0x0C, 0x90,
    0x4B, 0x6C, 0x00, 0x90, 0x57, 0x6C, 0x67, 0x91, 0x46, 0x00, 0x00, 0x91,
    0x4A, 0x00, 0x00, 0x91, 0x4D, 0x00, 0x0D, 0x90, 0x4B, 0x00, 0x00, 0x90,
    0x57, 0x00, 0x0C, 0x90, 0x52, 0x7E, 0x00, 0x90, 0x5E, 0x7E, 0x00, 0x91,
    0x3C, 0x5B, 0x00, 0x91, 0x48, 0x5B, 0x81, 0x67, 0x90, 0x52, 0x00, 0x00,
    0x90, 0x5E, 0x00, 0x00, 0x91, 0x3C, 0x00, 0x00, 0x91, 0x48, 0x00, 0x19,
    0x90, 0x52, 0x69, 0x00, 0x90, 0x5E, 0x69, 0x00, 0x91, 0x48, 0x77, 0x00,
    0x91, 0x4B, 0x77, 0x00, 0x91, 0x4F, 0x77, 0x81, 0x67, 0x90, 0x52, 0x00,
    0x00, 0x90, 0x5E, 0x00, 0x00, 0x91, 0x48, 0x00, 0x00, 0x91, 0x4B, 0x00,
    0x00, 0x91, 0x4F, 0x00, 0x19, 0x90, 0x52, 0x66, 0x00, 0x90, 0x5E, 0x66,
    0x00, 0x91, 0x3C, 0x55, 0x00, 0x91, 0x48, 0x55, 0x81, 0x67, 0x90, 0x52,
    0x00, 0x00, 0x90, 0x5E, 0x00, 0x00, 0x91, 0x3C, 0x00, 0x00, 0x91, 0x48,
    0x00, 0x19, 0x90, 0x4D, 0x5A, 0x00, 0x90, 0x59, 0x5A, 0x00, 0x91, 0x48,
    0x76, 0x00, 0x91, 0x4B, 0x76, 0x00, 0x91, 0x4F, 0x76, 0x74, 0x90, 0x4D,
    0x00, 0x00, 0x90, 0x59, 0x00, 0x0C, 0x90, 0x4B, 0x5D, 0x00, 0x90, 0x57,
    0x5D, 0x67, 0x91, 0x48, 0x00, 0x00, 0x91, 0x4B, 0x00, 0x00, 0x91, 0x4F,
    0x00, 0x18, 0x90, 0x4B, 0x00, 0x00, 0x90, 0x57, 0x00, 0x01, 0x90, 0x4B,
    0x4C, 0x00, 0x91, 0x3A, 0x55, 0x00, 0x91, 0x46, 0x55, 0x7F, 0x90, 0x4B,
    0x00, 0x01, 0x90, 0x4B, 0x63, 0x74, 0x90, 0x4B, 0x00, 0x0C, 0x90, 0x4B,
    0x64, 0x74, 0x90, 0x4B, 0x00, 0x0C, 0x90, 0x4A, 0x60, 0x74, 0x90, 0x4A,
    0x00, 0x0C, 0x90, 0x4A, 0x65, 0x74, 0x90, 0x4A, 0x00, 0x0C, 0x90, 0x4B,
    0x6A, 0x81, 0x67, 0x90, 0x4B, 0x00, 0x67, 0x91, 0x3A, 0x00, 0x00, 0x91,
    0x46, 0x00, 0x00, 0xFF, 0x2F, 0x00
};

#endif /* VS1003B_MIDI_ASSETS_H */
